<svg width="26" height="25" viewBox="0 0 26 25" fill="none" xmlns="http://www.w3.org/2000/svg">
<path d="M12.9994 24.364C19.3719 24.364 24.5379 19.1981 24.5379 12.8256C24.5379 6.45305 19.3719 1.28711 12.9994 1.28711C6.62688 1.28711 1.46094 6.45305 1.46094 12.8256C1.46094 19.1981 6.62688 24.364 12.9994 24.364Z" stroke="#313131"/>
<path d="M12.5648 12.6293V12.4816C12.5648 10.737 12.5648 8.99268 12.5648 7.24868C12.5635 7.06274 12.6362 6.88393 12.7668 6.75159C12.8974 6.61925 13.0753 6.54421 13.2612 6.54298C13.4472 6.54176 13.626 6.61445 13.7583 6.74506C13.8907 6.87567 13.9657 7.05351 13.9669 7.23945C13.9669 8.15206 13.9669 9.06437 13.9669 9.97637V12.6293C14.0103 12.5887 14.0398 12.5638 14.0666 12.537C14.4589 12.1447 14.8485 11.7496 15.2445 11.361C15.3105 11.2966 15.3885 11.2458 15.4741 11.2115C15.5598 11.1772 15.6513 11.1602 15.7436 11.1613C15.8358 11.1624 15.9269 11.1817 16.0117 11.218C16.0965 11.2543 16.1733 11.307 16.2377 11.373C16.3021 11.439 16.3529 11.517 16.3872 11.6027C16.4214 11.6883 16.4385 11.7799 16.4374 11.8721C16.4363 11.9643 16.417 12.0554 16.3807 12.1402C16.3444 12.225 16.2917 12.3018 16.2257 12.3662C15.742 12.8524 15.2571 13.3376 14.7709 13.8219C14.4485 14.1444 14.1257 14.4668 13.8026 14.7893C13.7364 14.8667 13.6542 14.9288 13.5617 14.9714C13.4692 15.014 13.3686 15.036 13.2668 15.036C13.1649 15.036 13.0643 15.014 12.9718 14.9714C12.8793 14.9288 12.7971 14.8667 12.7309 14.7893L10.3078 12.3681C10.2111 12.2804 10.1414 12.167 10.1067 12.0411C10.072 11.9152 10.0739 11.7821 10.1121 11.6573C10.1421 11.5358 10.2062 11.4254 10.2968 11.339C10.3874 11.2527 10.5007 11.194 10.6235 11.1699C10.7448 11.1396 10.872 11.1427 10.9917 11.179C11.1113 11.2152 11.2189 11.2832 11.3029 11.3758C11.6894 11.7634 12.0765 12.1505 12.4641 12.537C12.4918 12.5647 12.5205 12.5896 12.5657 12.6293" fill="#313131"/>
<path d="M13.2726 16.3505C14.9046 16.3505 16.5353 16.3505 18.1649 16.3505C18.2589 16.3468 18.3528 16.362 18.4408 16.3953C18.5289 16.4286 18.6093 16.4793 18.6773 16.5444C18.7453 16.6095 18.7995 16.6876 18.8367 16.7741C18.8738 16.8606 18.8931 16.9537 18.8935 17.0478C18.8939 17.142 18.8753 17.2352 18.8388 17.322C18.8024 17.4088 18.7488 17.4873 18.6813 17.5529C18.6138 17.6186 18.5338 17.6699 18.446 17.7039C18.3582 17.7379 18.2645 17.7539 18.1704 17.7508C17.7181 17.7508 17.2649 17.7508 16.8126 17.7508H8.3821C8.19628 17.7544 8.01667 17.684 7.88277 17.5551C7.74887 17.4262 7.67165 17.2494 7.6681 17.0636C7.66455 16.8778 7.73496 16.6982 7.86384 16.5643C7.99272 16.4304 8.16951 16.3532 8.35533 16.3496C8.93594 16.3496 9.51656 16.3496 10.0963 16.3496H13.2726" fill="#313131"/>
</svg>
