<svg width="19" height="19" viewBox="0 0 19 19" fill="none" xmlns="http://www.w3.org/2000/svg">
<path d="M1.5155 16.8615H9.85669C10.7102 18.0768 12.0573 18.8527 13.5369 18.9811C15.0164 19.1096 16.477 18.5774 17.5273 17.5273C18.5773 16.4772 19.1096 15.0165 18.9811 13.5369C18.8527 12.0574 18.0768 10.7103 16.8615 9.85681V3.00631C16.861 2.60445 16.7011 2.21921 16.417 1.93501C16.1328 1.6508 15.7476 1.49104 15.3457 1.49043H14.974V2.33479H15.3457V2.33494C15.5238 2.33509 15.6943 2.40592 15.8202 2.53183C15.9459 2.65758 16.0168 2.82826 16.0169 3.0063V5.40129H0.844384V3.0063C0.844679 2.82826 0.915363 2.65759 1.04127 2.53183C1.16718 2.40592 1.33771 2.33509 1.51575 2.33494H2.60754V3.40225V3.4021C2.60754 3.63536 2.79662 3.82444 3.02972 3.82444C3.26298 3.82444 3.45206 3.63536 3.45206 3.4021V0.422181C3.45206 0.189071 3.26298 0 3.02972 0C2.79661 0 2.60754 0.189079 2.60754 0.422181V1.49039H1.51575C1.11388 1.49098 0.728638 1.65076 0.444429 1.93497C0.160215 2.21918 0.000452383 2.60441 0 3.00627V15.3456C0.00044179 15.7475 0.160219 16.1329 0.444429 16.4169C0.728642 16.7011 1.11388 16.861 1.51575 16.8615H1.5155ZM18.1553 13.9693C18.1551 15.0795 17.7141 16.1443 16.9291 16.9294C16.144 17.7145 15.0792 18.1554 13.969 18.1554C12.8586 18.1554 11.7939 17.7144 11.0088 16.9294C10.2237 16.1442 9.78269 15.0795 9.78269 13.9692C9.78269 12.859 10.2237 11.7942 11.0088 11.0092C11.7938 10.2241 12.8586 9.78311 13.9688 9.78296C15.0787 9.78429 16.1429 10.2258 16.9277 11.0105C17.7125 11.7954 18.154 12.8595 18.1553 13.9693ZM16.0166 6.24575V9.37586C14.7701 8.81894 13.3506 8.79301 12.0847 9.30385C10.8185 9.81485 9.81465 10.8187 9.30365 12.0848C8.7928 13.351 8.81873 14.7704 9.37581 16.0167H1.51566C1.33762 16.0166 1.16709 15.9458 1.04118 15.8199C0.915276 15.6941 0.844591 15.5234 0.844294 15.3454V6.24545L16.0166 6.24575ZM13.4097 2.33457H12.2736V1.49021H13.4097V0.422294C13.4097 0.189184 13.5988 0.000113104 13.832 0.000113104C14.0652 0.000113104 14.2542 0.189192 14.2542 0.422294V3.40222C14.2542 3.63547 14.0651 3.82455 13.832 3.82455C13.5988 3.82455 13.4097 3.63547 13.4097 3.40222V2.33457ZM5.30753 2.33457H4.17171V1.49021H5.30768V0.422294C5.30768 0.189184 5.49661 0.000113104 5.72986 0.000113104C5.96312 0.000113104 6.15205 0.189192 6.15205 0.422294V3.40222C6.15205 3.63547 5.96312 3.82455 5.72986 3.82455C5.49661 3.82455 5.30768 3.63547 5.30768 3.40222L5.30753 2.33457ZM8.00829 2.33457H6.87217V1.49021H8.00829L8.00844 0.422294C8.00844 0.189184 8.19737 0.000113104 8.43062 0.000113104C8.66388 0.000113104 8.85281 0.189192 8.85281 0.422294V3.40222C8.85281 3.63547 8.66388 3.82455 8.43062 3.82455C8.19737 3.82455 8.00844 3.63547 8.00844 3.40222L8.00829 2.33457ZM10.7089 2.33457H9.57293V1.49021H10.7089V0.422294C10.7089 0.189184 10.898 0.000113104 11.1312 0.000113104C11.3644 0.000113104 11.5534 0.189192 11.5534 0.422294V3.40222C11.5534 3.63547 11.3643 3.82455 11.1312 3.82455C10.898 3.82455 10.7089 3.63547 10.7089 3.40222V2.33457ZM2.16 10.526V9.57279C2.16 9.52331 2.17958 9.4759 2.21463 9.441C2.24953 9.40595 2.29695 9.38637 2.34643 9.38637H3.63922C3.6887 9.38637 3.73612 9.40595 3.77102 9.441C3.80592 9.4759 3.82565 9.52331 3.82565 9.57279V10.526C3.82565 10.5753 3.80592 10.6227 3.77102 10.6578C3.73612 10.6927 3.6887 10.7124 3.63922 10.7124H2.34643C2.29695 10.7124 2.24953 10.6927 2.21463 10.6578C2.17958 10.6227 2.16 10.5753 2.16 10.526ZM2.16 12.6905V11.7373C2.16 11.6879 2.17958 11.6404 2.21463 11.6055C2.24953 11.5705 2.29695 11.5509 2.34643 11.5509H3.63922C3.6887 11.5509 3.73612 11.5705 3.77102 11.6055C3.80592 11.6404 3.82565 11.6879 3.82565 11.7373V12.6905C3.82565 12.7935 3.74216 12.877 3.63922 12.877H2.34643C2.24349 12.877 2.16 12.7935 2.16 12.6905ZM2.16 14.8551V13.9019C2.16 13.799 2.24349 13.7155 2.34643 13.7155H3.63922C3.74216 13.7155 3.82565 13.799 3.82565 13.9019V14.8551C3.82565 14.9046 3.80592 14.9518 3.77102 14.9869C3.73612 15.0218 3.6887 15.0415 3.63922 15.0415H2.34643C2.29695 15.0415 2.24953 15.0218 2.21463 14.9869C2.17958 14.9518 2.16 14.9046 2.16 14.8551ZM4.87901 10.5258V9.57264C4.87901 9.52316 4.89859 9.47575 4.93349 9.44085C4.96854 9.4058 5.01596 9.38621 5.06529 9.38621H6.35824C6.40757 9.38621 6.45499 9.4058 6.49004 9.44085C6.52494 9.47575 6.54452 9.52316 6.54452 9.57264V10.5258C6.54452 10.5752 6.52494 10.6226 6.49004 10.6576C6.45499 10.6925 6.40757 10.7123 6.35824 10.7123H5.06529C5.01596 10.7123 4.96854 10.6925 4.93349 10.6576C4.89859 10.6226 4.87901 10.5752 4.87901 10.5258ZM4.87901 12.6904V11.7372C4.87901 11.6877 4.89859 11.6403 4.93349 11.6054C4.96854 11.5703 5.01596 11.5508 5.06529 11.5508H6.35824C6.40757 11.5508 6.45499 11.5703 6.49004 11.6054C6.52494 11.6403 6.54452 11.6877 6.54452 11.7372V12.6904C6.54452 12.7933 6.46117 12.8768 6.35824 12.8768H5.06529C5.01596 12.8768 4.96854 12.8571 4.93349 12.8222C4.89859 12.7871 4.87901 12.7397 4.87901 12.6904ZM4.87901 14.8549V13.9017C4.87901 13.8523 4.89859 13.8048 4.93349 13.7699C4.96854 13.7349 5.01596 13.7153 5.06529 13.7153H6.35824C6.46117 13.7153 6.54452 13.7988 6.54452 13.9017V14.8549C6.54452 14.9044 6.52494 14.9517 6.49004 14.9867C6.45499 15.0216 6.40757 15.0414 6.35824 15.0414H5.06529C5.01596 15.0414 4.96854 15.0216 4.93349 14.9867C4.89859 14.9517 4.87901 14.9044 4.87901 14.8549ZM7.59787 8.36144V7.40824C7.59787 7.35877 7.61745 7.31135 7.6525 7.27645C7.6874 7.2414 7.73482 7.22181 7.7843 7.22181H9.07709C9.18003 7.22181 9.26352 7.30531 9.26352 7.40824V8.36144C9.26352 8.41077 9.24394 8.45819 9.20889 8.49324C9.17399 8.52814 9.12657 8.54772 9.07709 8.54772H7.7843C7.73482 8.54787 7.6874 8.52814 7.6525 8.49324C7.61745 8.45819 7.59787 8.41092 7.59787 8.36144ZM7.59757 10.526V9.57177V9.57192C7.59845 9.46958 7.68122 9.38697 7.78341 9.38608H9.07753C9.18003 9.38623 9.26308 9.46928 9.26323 9.57192V10.526C9.26367 10.6272 9.18282 10.7098 9.08165 10.7119H7.78339C7.6809 10.7117 7.5977 10.6287 7.59755 10.526L7.59757 10.526ZM7.59757 12.6898V11.7378C7.59757 11.6348 7.68048 11.551 7.78341 11.5499H8.61734C8.42311 11.9735 8.28203 12.4195 8.19719 12.8778H7.78338C7.68044 12.8767 7.59753 12.7929 7.59753 12.6899L7.59757 12.6898ZM7.59757 14.8558V13.9017C7.59772 13.7991 7.68092 13.716 7.78341 13.7159H8.10002C8.09575 13.8002 8.09369 13.8848 8.09369 13.9691C8.0931 14.3291 8.12697 14.6882 8.195 15.0416H7.78341C7.68121 15.0407 7.59846 14.9582 7.59757 14.8558ZM10.3167 8.36231V7.40809C10.3169 7.3056 10.3999 7.2224 10.5026 7.22225H11.7967C11.8992 7.2224 11.9822 7.3056 11.9824 7.40809V8.36231C11.9819 8.39161 11.9747 8.42062 11.9613 8.44669C11.9294 8.50839 11.8661 8.54727 11.7967 8.548H10.5026C10.4002 8.54712 10.3176 8.46451 10.3167 8.36231ZM13.9689 8.09415C13.6564 8.09415 13.3444 8.11889 13.0359 8.16807V7.40808C13.0356 7.35875 13.055 7.31133 13.0899 7.27643C13.1248 7.24153 13.1723 7.22194 13.2216 7.22224H14.5157C14.6183 7.22238 14.7014 7.30558 14.7015 7.40808V8.1407C14.4586 8.10904 14.214 8.09356 13.9689 8.09415ZM13.6675 10.5902H14.2704C14.3371 10.5902 14.3911 10.6442 14.3911 10.7109V13.5477H17.2279C17.2946 13.5477 17.3487 13.6018 17.3487 13.6685V14.2713C17.3487 14.3034 17.336 14.3341 17.3133 14.3567C17.2907 14.3794 17.26 14.3922 17.2279 14.3922H13.6675C13.6354 14.3922 13.6048 14.3794 13.5821 14.3567C13.5594 14.3341 13.5466 14.3034 13.5466 14.2713V10.7109C13.5466 10.6788 13.5594 10.6482 13.5821 10.6255C13.6048 10.6028 13.6354 10.5902 13.6675 10.5902Z" fill="#404040"/>
</svg>
