<svg xmlns="http://www.w3.org/2000/svg" xmlns:xlink="http://www.w3.org/1999/xlink" width="22.386" height="22.386" viewBox="0 0 22.386 22.386">
  <defs>
    <clipPath id="clip-path">
      <rect id="Rectangle_16101" data-name="Rectangle 16101" width="15.821" height="15.838" fill="#f54e30"/>
    </clipPath>
  </defs>
  <g id="Group_16230" data-name="Group 16230" transform="translate(11.199) rotate(45)">
    <g id="Group_15411" data-name="Group 15411" clip-path="url(#clip-path)">
      <path id="Path_41212" data-name="Path 41212" d="M11.98,9.6H9.768c-.174,0-.174,0-.175.179,0,1.442,0,2.884,0,4.326a1.625,1.625,0,0,1-1.014,1.587A1.682,1.682,0,0,1,6.3,14.662a2.062,2.062,0,0,1-.077-.59c-.006-1.438,0-2.877,0-4.315,0-.156,0-.155-.156-.155-1.467,0-2.934,0-4.4,0a1.687,1.687,0,0,1-.6-3.256,1.866,1.866,0,0,1,.627-.111c1.467-.009,2.934,0,4.4,0,.129,0,.132,0,.132-.147q0-2.179,0-4.359A1.653,1.653,0,0,1,6.764.441a1.687,1.687,0,0,1,2.769.8,1.936,1.936,0,0,1,.058.484c0,1.449,0,2.9,0,4.348,0,.153,0,.154.159.154,1.427,0,2.854,0,4.282,0a1.738,1.738,0,0,1,1.149.36A1.614,1.614,0,0,1,15.8,8.151a1.6,1.6,0,0,1-1.265,1.4,1.759,1.759,0,0,1-.442.046c-.7,0-1.409,0-2.114,0" transform="translate(0 0)" fill="#f54e30"/>
    </g>
  </g>
</svg>
