<svg xmlns="http://www.w3.org/2000/svg" xmlns:xlink="http://www.w3.org/1999/xlink" width="21.46" height="21.46" viewBox="0 0 21.46 21.46">
  <defs>
    <clipPath id="clip-path">
      <rect id="Rectangle_16101" data-name="Rectangle 16101" width="15.166" height="15.183" fill="#ef6286"/>
    </clipPath>
  </defs>
  <g id="Group_15467" data-name="Group 15467" transform="translate(10.736) rotate(45)">
    <g id="Group_15411" data-name="Group 15411" clip-path="url(#clip-path)">
      <path id="Path_41212" data-name="Path 41212" d="M11.484,9.2H9.364c-.167,0-.167,0-.167.172,0,1.382,0,2.765,0,4.147a1.557,1.557,0,0,1-.972,1.521,1.613,1.613,0,0,1-2.183-.99,1.977,1.977,0,0,1-.074-.566c-.006-1.379,0-2.758,0-4.137,0-.15,0-.148-.15-.148-1.406,0-2.813,0-4.219,0a1.617,1.617,0,0,1-.576-3.121,1.789,1.789,0,0,1,.6-.106c1.406-.009,2.813,0,4.219,0,.123,0,.127,0,.127-.141q0-2.089,0-4.178A1.585,1.585,0,0,1,6.484.422a1.618,1.618,0,0,1,2.654.77,1.856,1.856,0,0,1,.056.464c0,1.389,0,2.779,0,4.168,0,.147,0,.147.153.147,1.368,0,2.736,0,4.1,0a1.666,1.666,0,0,1,1.1.345,1.547,1.547,0,0,1,.593,1.5,1.537,1.537,0,0,1-1.212,1.345,1.686,1.686,0,0,1-.424.044c-.675,0-1.351,0-2.026,0" transform="translate(0 0)" fill="#ef6286"/>
    </g>
  </g>
</svg>
