<svg width="16" height="16" viewBox="0 0 16 16" fill="none" xmlns="http://www.w3.org/2000/svg">
<path d="M1.20703 1.09362C1.22479 1.05261 1.24255 1.0116 1.26031 0.970586C1.4338 0.557778 1.95085 0.415917 2.31422 0.68283C2.37296 0.725859 2.42555 0.778973 2.47746 0.83007C4.38242 2.70452 6.28737 4.57964 8.19165 6.45475C8.23058 6.49308 8.262 6.53812 8.30298 6.5872C8.36241 6.5314 8.4027 6.49509 8.44095 6.45744C10.3589 4.56955 12.2768 2.68233 14.1941 0.793764C14.3956 0.595428 14.6244 0.498613 14.9092 0.571224C15.3887 0.693588 15.5861 1.24758 15.289 1.63955C15.2453 1.69737 15.1913 1.74914 15.1387 1.80024C13.2378 3.67199 11.3363 5.54375 9.43407 7.41484C9.39514 7.45316 9.35006 7.4861 9.29405 7.53317C9.34391 7.58426 9.37943 7.62326 9.417 7.66024C11.3315 9.54477 13.2454 11.43 15.1612 13.3132C15.3907 13.5384 15.4946 13.7898 15.3819 14.1031C15.2951 14.3425 15.1018 14.4635 14.8737 14.5462H14.5957C14.3867 14.4803 14.2337 14.3398 14.0827 14.1905C12.2024 12.3363 10.32 10.484 8.43754 8.63175C8.39929 8.5941 8.35967 8.55846 8.29957 8.50266C8.25654 8.55645 8.22648 8.60351 8.18755 8.64183C6.30923 10.4921 4.43023 12.3403 2.55327 14.1912C2.40164 14.3405 2.24933 14.481 2.04032 14.5469H1.76233C1.48366 14.4554 1.29514 14.2766 1.20703 13.9989V13.7253C1.27465 13.5202 1.41672 13.369 1.56903 13.2204C3.45282 11.3695 5.33455 9.51653 7.21629 7.6636C7.25454 7.62595 7.29074 7.58695 7.34811 7.52779C7.29074 7.48274 7.23951 7.4498 7.19716 7.40811C5.31748 5.55989 3.43916 3.71032 1.55879 1.86209C1.41057 1.7162 1.2726 1.56828 1.20703 1.36726C1.20703 1.27582 1.20703 1.18506 1.20703 1.09362Z" fill="#545554" stroke="#545554"/>
</svg>
