<svg width="22" height="22" viewBox="0 0 22 22" fill="none" xmlns="http://www.w3.org/2000/svg">
<path d="M11 21C16.5228 21 21 16.5228 21 11C21 5.47715 16.5228 1 11 1C5.47715 1 1 5.47715 1 11C1 16.5228 5.47715 21 11 21Z" stroke="#313131" stroke-width="0.833333"/>
<g clip-path="url(#clip0_821_27308)">
<path d="M11.4571 4.33398V12.4116C12.2555 11.6131 13.0476 10.8208 13.833 10.0354C14.0632 10.2653 14.2742 10.4765 14.4788 10.6812C13.3237 11.8362 12.1596 13.0004 11.0022 14.1577C9.84469 13.0001 8.68053 11.836 7.52344 10.6786C7.72715 10.4754 7.93838 10.2644 8.15234 10.0511C8.93734 10.8361 9.72894 11.6277 10.5458 12.4448V4.33398H11.4573H11.4571Z" fill="black"/>
<path d="M5.16797 15.0898H16.8346V16.0013H5.16797C5.16797 15.6976 5.16797 15.3936 5.16797 15.0898Z" fill="black"/>
</g>
<defs>
<clipPath id="clip0_821_27308">
<rect width="11.6667" height="11.6667" fill="white" transform="translate(5.16797 4.33398)"/>
</clipPath>
</defs>
</svg>
