<svg width="30" height="30" viewBox="0 0 30 30" fill="none" xmlns="http://www.w3.org/2000/svg">
<path d="M28.9424 15C28.9424 23.0854 22.5393 29.625 14.6587 29.625C6.77811 29.625 0.375 23.0854 0.375 15C0.375 6.91465 6.77811 0.375 14.6587 0.375C22.5393 0.375 28.9424 6.91465 28.9424 15Z" fill="white" stroke="#19B3B5" stroke-width="0.75"/>
<path d="M9.21094 17.3868V19.9018H11.7259L19.1428 12.4849L16.6279 9.96655L9.21094 17.3868ZM21.0874 10.538C21.2115 10.412 21.2811 10.2422 21.2811 10.0654C21.2811 9.88848 21.2115 9.7187 21.0874 9.59268L19.5156 8.02082C19.3896 7.89671 19.2198 7.82715 19.0429 7.82715C18.866 7.82715 18.6962 7.89671 18.5702 8.02082L17.3453 9.25248L19.8603 11.763L21.0874 10.538Z" fill="#29BCC1"/>
</svg>
