<svg width="171" height="36" viewBox="0 0 171 36" fill="none" xmlns="http://www.w3.org/2000/svg">
<path d="M10.2345 2.9178C7.8938 0.547583 4.09838 0.547583 1.75772 2.9178C-0.585906 5.28502 -0.585906 9.12651 1.75772 11.4937L5.99461 15.7817L10.2345 11.4937C12.5751 9.12651 12.5751 5.28801 10.2345 2.9178Z" fill="#FBDB00"/>
<path d="M18.7372 2.91848C16.3966 0.551262 12.6012 0.551262 10.2605 2.91848C7.91687 5.2857 7.91687 9.12719 10.2605 11.4944L14.4974 15.7824L18.7372 11.4944C21.0779 9.12719 21.0779 5.2887 18.7372 2.91848Z" fill="#7CC14B"/>
<path d="M14.4982 7.22854C12.1575 4.86132 8.36212 4.86132 6.02146 7.22854C3.6808 9.59576 3.6808 13.4342 6.02146 15.8015L10.2613 20.0894L14.5012 15.8015C16.8418 13.4342 16.8418 9.59576 14.5012 7.22854" fill="#19B3B5"/>
<path d="M160.945 35.0923C160.945 35.5627 160.565 35.9433 160.1 35.9433C159.635 35.9433 159.256 35.5627 159.256 35.0923C159.256 34.6218 159.635 34.2383 160.1 34.2383C160.565 34.2383 160.945 34.6188 160.945 35.0923Z" fill="#19B3B5"/>
<path d="M162.778 35.0923C162.778 35.5627 162.401 35.9433 161.933 35.9433C161.465 35.9433 161.089 35.5627 161.089 35.0923C161.089 34.6218 161.468 34.2383 161.933 34.2383C162.399 34.2383 162.778 34.6188 162.778 35.0923Z" fill="#19B3B5"/>
<path d="M145.122 28.9977C145.105 28.6651 145.045 28.3474 144.954 28.0478C144.948 28.0268 144.942 28.0058 144.936 27.9849C144.927 27.9549 144.918 27.9249 144.906 27.898C144.832 27.6912 144.746 27.4934 144.64 27.3017C144.311 26.7174 143.854 26.2619 143.268 25.9353C142.681 25.6087 142.014 25.4438 141.271 25.4438C141.265 25.4438 141.259 25.4438 141.253 25.4438C141.247 25.4438 141.241 25.4438 141.238 25.4438C140.494 25.4438 139.828 25.6087 139.241 25.9353C138.655 26.2619 138.195 26.7174 137.869 27.3017C137.763 27.4934 137.677 27.6912 137.603 27.898C137.591 27.9279 137.582 27.9579 137.57 27.9849C137.561 28.0058 137.558 28.0268 137.552 28.0478C137.463 28.3474 137.404 28.6651 137.386 28.9977C137.381 29.0876 137.378 29.1775 137.378 29.2674V31.4548C137.378 31.7185 137.455 31.9282 137.606 32.084C137.757 32.2369 137.97 32.3148 138.246 32.3148H144.26C144.536 32.3148 144.749 32.2369 144.9 32.084C145.054 31.9282 145.128 31.7215 145.128 31.4548V29.2674C145.128 29.1745 145.125 29.0876 145.12 28.9977M143.709 30.6128H138.788V29.5191C138.788 28.7849 138.992 28.2246 139.407 27.829C139.41 27.826 139.413 27.8201 139.419 27.8171L139.425 27.8111C139.446 27.7901 139.466 27.7751 139.49 27.7571C139.908 27.4005 140.492 27.2178 141.244 27.2178H141.256C142.009 27.2178 142.592 27.3976 143.01 27.7571C143.031 27.7751 143.054 27.7901 143.075 27.8111L143.081 27.8171C143.084 27.8201 143.087 27.826 143.09 27.829C143.502 28.2246 143.709 28.7879 143.709 29.5191V30.6128Z" fill="#19B3B5"/>
<path d="M156.559 29.4893C156.556 30.6878 156.559 31.8834 156.559 33.082C156.559 33.127 156.559 33.1719 156.559 33.2169V29.4893H156.556H156.559Z" fill="#19B3B5"/>
<path d="M156.611 33.5254C156.575 33.4325 156.563 33.3247 156.56 33.2168V33.4505C156.56 33.8401 156.471 34.1337 156.297 34.3255C156.122 34.5173 155.882 34.6132 155.577 34.6132C155.405 34.6132 155.245 34.5802 155.097 34.5113C154.946 34.4454 154.794 34.3435 154.64 34.2086C154.531 34.1008 154.427 34.0258 154.332 33.9779C154.237 33.927 154.134 33.903 154.015 33.903C153.823 33.903 153.654 33.9689 153.506 34.1068C153.36 34.2416 153.289 34.4184 153.289 34.6371C153.289 34.9068 153.429 35.1615 153.701 35.3922C153.917 35.566 154.193 35.7099 154.531 35.8267C154.869 35.9436 155.2 36.0005 155.52 36.0005C156.388 36.0005 157.055 35.7608 157.52 35.2844C157.757 35.0417 157.929 34.751 158.045 34.4034C157.606 34.4154 157.15 34.3105 156.919 34.0888C156.771 33.9449 156.682 33.7232 156.605 33.5224" fill="#19B3B5"/>
<path d="M158.223 28.8359C158.223 28.7191 158.208 28.6142 158.181 28.5243C158.101 28.2966 157.936 28.1408 157.69 28.0658C157.076 27.8711 156.564 28.2486 156.558 28.9168C156.558 29.1086 156.558 29.3004 156.558 29.4892H156.561V33.2138C156.564 33.3217 156.576 33.4295 156.611 33.5254C156.688 33.7262 156.777 33.9449 156.925 34.0888C157.153 34.3105 157.61 34.4154 158.051 34.4034C158.164 34.0618 158.223 33.6693 158.223 33.2228V28.8329V28.8359Z" fill="#19B3B5"/>
<path d="M153.809 28.8425C153.509 28.6388 153.139 28.474 152.697 28.3421L151.418 27.9676C150.958 27.8357 150.629 27.6979 150.434 27.557C150.235 27.4132 150.141 27.1975 150.141 26.8978C150.141 26.6311 150.241 26.4244 150.449 26.2745C150.644 26.1337 150.926 26.0588 151.293 26.0528C151.311 26.0528 151.329 26.0498 151.346 26.0498C151.625 26.0498 151.906 26.0918 152.191 26.1757C152.472 26.2596 152.798 26.4004 153.169 26.6012C153.34 26.7 153.53 26.748 153.734 26.748C153.957 26.748 154.143 26.6671 154.297 26.4993C154.449 26.3345 154.523 26.1337 154.523 25.903C154.523 25.894 154.523 25.885 154.52 25.876C154.508 25.4895 154.241 25.1898 153.711 24.9681C153.367 24.8093 152.976 24.6924 152.54 24.6115C152.502 24.6025 152.46 24.5995 152.419 24.5935C152.028 24.5306 151.655 24.4946 151.296 24.4946C150.404 24.4946 149.664 24.7074 149.074 25.1299C148.896 25.2587 148.751 25.4056 148.627 25.5704C148.339 25.9509 148.194 26.4304 148.194 27.0087C148.194 28.2372 148.952 29.0792 150.472 29.5377L151.456 29.8104C151.98 29.9602 152.342 30.11 152.537 30.2599C152.733 30.4097 152.834 30.6134 152.834 30.8711C152.834 30.9221 152.831 30.967 152.825 31.009C152.795 31.2667 152.692 31.4614 152.508 31.5993C152.292 31.7581 151.972 31.842 151.554 31.842C151.106 31.842 150.632 31.7251 150.135 31.4884C149.954 31.4045 149.773 31.3086 149.586 31.1948C149.515 31.1528 149.456 31.1169 149.4 31.0839C149.338 31.0359 149.278 30.985 149.222 30.9341C148.985 30.7123 148.754 30.4067 148.52 30.0141C148.437 29.8643 148.357 29.7505 148.277 29.6755C148.197 29.5976 148.108 29.5407 148.01 29.4988C147.773 29.4029 147.545 29.3999 147.323 29.4868C147.104 29.5737 146.944 29.7385 146.849 29.9782C146.739 30.2539 146.778 30.5835 146.973 30.967C147.207 31.3955 147.545 31.7881 147.978 32.1476C148.102 32.2525 148.232 32.3454 148.366 32.4383C148.44 32.5102 148.529 32.5731 148.635 32.6241C148.709 32.666 148.789 32.705 148.867 32.7439C149.062 32.8488 149.264 32.9477 149.477 33.0346C150.283 33.3642 151.077 33.4871 151.865 33.4062C152.327 33.3552 152.763 33.2384 153.169 33.0526C153.177 33.0466 153.186 33.0436 153.198 33.0406C153.21 33.0346 153.222 33.0286 153.234 33.0256C153.237 33.0256 153.24 33.0226 153.243 33.0226C153.456 32.9267 153.646 32.8099 153.817 32.681C154.034 32.5132 154.217 32.3214 154.363 32.0967C154.632 31.6862 154.769 31.2067 154.769 30.6614C154.769 29.8823 154.449 29.277 153.812 28.8425" fill="#19B3B5"/>
<path d="M167.844 33.7716C167.234 33.7716 166.689 33.6458 166.209 33.3941C165.729 33.1424 165.352 32.7828 165.083 32.3213C164.81 31.8599 164.674 31.3265 164.674 30.7242C164.674 30.1219 164.807 29.5676 165.071 29.1001C165.335 28.6327 165.705 28.2731 166.182 28.0154C166.656 27.7607 167.207 27.6318 167.832 27.6318C168.457 27.6318 168.985 27.7607 169.465 28.0154C169.945 28.2731 170.321 28.6327 170.591 29.1001C170.863 29.5676 171 30.1069 171 30.7242C171 31.3415 170.863 31.8569 170.591 32.3213C170.321 32.7828 169.948 33.1424 169.471 33.3941C168.994 33.6458 168.452 33.7716 167.844 33.7716ZM167.82 32.4052C168.283 32.4052 168.662 32.2494 168.964 31.9378C169.266 31.6261 169.414 31.2186 169.414 30.7122C169.414 30.2058 169.269 29.7863 168.979 29.4717C168.689 29.157 168.318 28.9982 167.862 28.9982C167.406 28.9982 167.009 29.154 166.706 29.4657C166.404 29.7773 166.256 30.1908 166.256 30.7032C166.256 31.2156 166.401 31.6172 166.698 31.9318C166.991 32.2464 167.367 32.4052 167.818 32.4052" fill="#19B3B5"/>
<path d="M131.831 30.6334C131.831 30.6334 131.804 30.6304 131.792 30.6304V32.3054C131.875 32.3114 131.964 32.3144 132.053 32.3144H138.45V30.6334H131.828H131.831Z" fill="#19B3B5"/>
<path d="M161.073 30.6431C161.073 30.6431 161.047 30.6431 161.035 30.6431V32.3181C161.118 32.3241 161.207 32.3271 161.298 32.3271H165.426V30.6431H161.073Z" fill="#19B3B5"/>
<path d="M162.281 28.2072C162.142 28.0723 161.97 28.0034 161.762 28.0034C161.555 28.0034 161.38 28.0693 161.238 28.2072C161.096 28.342 161.025 28.5308 161.025 28.7705V30.6433H156.963V32.3273H161.671C161.94 32.3273 162.142 32.2554 162.281 32.1146C162.417 31.9708 162.485 31.77 162.485 31.5063V28.7735C162.485 28.5308 162.417 28.345 162.281 28.2102" fill="#19B3B5"/>
<path d="M115.742 29.5659C115.742 29.2453 115.799 28.9097 115.914 28.5681C116.03 28.2265 116.172 27.9448 116.344 27.7261C116.572 27.4474 116.824 27.3096 117.093 27.3096C117.307 27.3096 117.482 27.3845 117.618 27.5313C117.751 27.6781 117.819 27.8489 117.819 28.0437C117.819 28.1636 117.793 28.2714 117.745 28.3643C117.695 28.4602 117.621 28.5621 117.517 28.673C117.384 28.8318 117.283 28.9876 117.215 29.1344C117.15 29.2843 117.114 29.4491 117.114 29.6199C117.114 29.9315 117.212 30.1712 117.399 30.348C117.588 30.5248 117.876 30.6147 118.264 30.6147H125.357V28.7419C125.357 28.5022 125.428 28.3134 125.57 28.1785C125.712 28.0437 125.884 27.9748 126.095 27.9748C126.305 27.9748 126.474 28.0407 126.613 28.1785C126.752 28.3134 126.821 28.5022 126.821 28.7419V31.4717C126.821 31.7354 126.749 31.9391 126.613 32.083C126.477 32.2268 126.272 32.2987 126.006 32.2987H118.489C117.603 32.2987 116.925 32.062 116.453 31.5945C115.979 31.1241 115.745 30.4469 115.745 29.5659" fill="#19B3B5"/>
<path d="M135.17 27.215C134.933 26.7146 134.583 26.3251 134.127 26.0494C133.67 25.7707 133.125 25.6299 132.494 25.6299H130.974C131.605 25.6299 132.15 25.7707 132.607 26.0494C133.063 26.3251 133.413 26.7176 133.65 27.215C133.792 27.5147 133.89 27.8473 133.949 28.2039C134.038 28.4256 134.088 28.6743 134.088 28.959C134.088 29.2436 134.047 29.4834 133.961 29.6991C133.863 30.4123 133.617 30.9906 133.217 31.4281C132.69 32.0064 131.94 32.2971 130.974 32.2971H132.494C133.463 32.2971 134.21 32.0064 134.737 31.4281C135.264 30.8498 135.528 30.0287 135.528 28.968C135.528 28.2997 135.407 27.7124 135.17 27.212" fill="#19B3B5"/>
<path d="M133.96 29.6988C133.895 29.8696 133.8 30.0254 133.682 30.1573C133.409 30.4629 132.989 30.6157 132.414 30.6157H124.213C123.744 30.6157 123.404 30.7356 123.196 30.9753C122.989 31.215 122.885 31.5716 122.885 32.0361C122.885 32.1259 122.891 32.2128 122.897 32.2937H130.971C131.94 32.2937 132.686 32.0031 133.214 31.4248C133.614 30.9873 133.863 30.409 133.96 29.6958" fill="#19B3B5"/>
<path d="M133.676 27.7734C133.791 27.8993 133.883 28.0461 133.948 28.2049C133.892 27.8453 133.791 27.5157 133.649 27.2131C133.412 26.7127 133.063 26.3231 132.606 26.0444C132.15 25.7658 131.605 25.6279 130.974 25.6279H128.423C128.168 25.6279 127.975 25.7028 127.848 25.8527C127.718 26.0025 127.652 26.2092 127.652 26.4729C127.652 26.7366 127.718 26.9434 127.848 27.0932C127.978 27.243 128.168 27.3209 128.423 27.3209H132.417C132.983 27.3209 133.4 27.4708 133.676 27.7704" fill="#19B3B5"/>
<path d="M121.943 26.4839C121.943 26.9573 121.567 27.3379 121.099 27.3379C120.631 27.3379 120.257 26.9573 120.257 26.4839C120.257 26.0104 120.634 25.6299 121.099 25.6299C121.564 25.6299 121.943 26.0134 121.943 26.4839Z" fill="#19B3B5"/>
<path d="M123.777 26.4839C123.777 26.9573 123.4 27.3379 122.932 27.3379C122.464 27.3379 122.091 26.9573 122.091 26.4839C122.091 26.0104 122.467 25.6299 122.932 25.6299C123.397 25.6299 123.777 26.0134 123.777 26.4839Z" fill="#19B3B5"/>
<path d="M33.6772 6.79499C33.5676 8.27225 33.455 9.75251 33.3484 11.2328C33.1824 13.5491 33.0313 15.8653 32.8565 18.1846C32.7706 19.3712 32.0773 20.0544 30.987 20.0604C29.7722 20.0694 29.0463 19.3802 29.1085 18.1397C29.1974 16.3358 29.3663 14.5349 29.4996 12.734C29.6033 11.3676 29.704 10.0012 29.8077 8.63482C29.9114 7.2924 30.0181 5.94998 30.1277 4.54163C29.8344 4.51766 29.5677 4.50268 29.3041 4.47571C28.6285 4.40379 28.1545 3.98129 28.03 3.35203C27.8789 2.59692 28.0922 1.97365 28.7085 1.66801C29.1411 1.45226 29.624 1.31742 30.0981 1.23052C30.5603 1.14962 31.0373 1.14962 31.5084 1.15561C34.7261 1.19456 36.0327 2.0186 37.1438 5.12894C38.1038 7.81379 39.1793 10.4507 40.2607 13.2584C40.3881 12.9498 40.474 12.764 40.5451 12.5782C41.7155 9.48582 42.874 6.39046 44.0591 3.30109C44.7169 1.5871 46.0294 0.885927 47.816 1.2485C49.0841 1.5062 49.8367 2.31824 49.9582 3.66366C50.21 6.47137 50.4293 9.28206 50.6604 12.0928C50.8055 13.8727 50.9359 15.6556 51.0959 17.4355C51.2174 18.8049 50.7404 19.7008 49.6974 19.9885C48.373 20.3541 47.2738 19.7038 47.1049 18.3404C46.9272 16.8841 46.8738 15.4129 46.776 13.9476C46.6131 11.5564 46.462 9.1622 46.1924 6.73805C46.1153 6.92383 46.0324 7.11261 45.9613 7.30139C44.785 10.4567 43.6236 13.615 42.4325 16.7643C41.8784 18.2325 40.474 18.8678 39.1022 18.3254C38.3112 18.0138 37.8697 17.3905 37.5764 16.6174C36.406 13.5461 35.2209 10.4807 34.0387 7.41226C33.9587 7.19951 33.8639 6.98976 33.775 6.77701C33.7424 6.783 33.7098 6.78899 33.6743 6.79499" fill="#545554"/>
<path d="M107.68 2.30067C108.311 2.6123 108.877 3.01982 109.02 3.78093C109.286 5.22823 108.039 6.27999 106.623 5.78857C106.125 5.61477 105.66 5.34209 105.177 5.12335C103.935 4.55702 102.652 4.26336 101.284 4.54803C100.374 4.73681 99.8317 5.2552 99.731 6.03129C99.6243 6.85831 99.9769 7.58945 100.842 7.93105C101.989 8.38352 103.186 8.70115 104.359 9.08769C105.103 9.33341 105.861 9.55515 106.581 9.86378C108.394 10.6399 109.514 11.9793 109.582 14.0319C109.654 16.1414 108.839 17.8374 107.014 18.9251C105.026 20.1087 102.851 20.2376 100.626 19.881C99.1828 19.6533 97.7873 19.2158 96.5429 18.4397C96.0926 18.158 95.6926 17.6756 95.4585 17.1902C95.1445 16.5339 95.3519 15.8567 95.8792 15.3413C96.4096 14.82 97.0585 14.7121 97.734 14.9878C98.1666 15.1646 98.5666 15.4282 98.9814 15.656C100.401 16.4441 101.894 16.9924 103.538 16.6928C104.051 16.5999 104.617 16.3631 104.99 16.0096C105.87 15.1646 105.6 13.6993 104.448 13.1899C103.378 12.7134 102.22 12.4497 101.115 12.0542C100.137 11.7036 99.1265 11.401 98.2258 10.9036C96.2733 9.82783 95.3844 8.09886 95.6155 5.85449C95.8437 3.6311 97.1474 2.22875 99.2006 1.60249C100.312 1.26389 102.869 0.403895 107.689 2.29767" fill="#545554"/>
<path d="M128.607 3.22174C128.352 3.22174 128.178 3.23073 128.003 3.22174C127.253 3.17979 126.785 2.78126 126.631 2.0681C126.486 1.39389 126.756 0.68672 127.384 0.41404C128.738 -0.176266 130.107 -0.155291 131.398 0.605815C132.077 1.00435 132.352 1.70253 132.361 2.47862C132.385 4.08773 132.379 5.69684 132.385 7.30594V7.9442C132.915 7.48573 133.342 7.05124 133.831 6.70365C135.351 5.62492 137.043 5.35524 138.823 5.8137C140.66 6.28714 141.845 7.75542 141.905 9.70013C141.967 11.8037 141.934 13.9132 141.94 16.0167V16.7958C142.216 16.7958 142.441 16.8048 142.669 16.7958C143.279 16.7658 143.745 16.9936 144.008 17.5659C144.257 18.1143 144.115 18.8364 143.691 19.2829C142.648 20.3826 139.552 20.1938 138.684 18.9473C138.459 18.6237 138.346 18.1952 138.257 17.7996C138.183 17.476 138.204 17.1284 138.204 16.7898C138.198 15.1028 138.207 13.4128 138.201 11.7228C138.189 9.50237 136.874 8.4536 134.767 9.10084C134.003 9.33456 133.315 9.85595 132.637 10.3114C132.468 10.4223 132.397 10.7909 132.397 11.0396C132.379 13.4038 132.4 15.768 132.379 18.1322C132.367 19.5735 131.167 20.3976 129.819 19.9301C129.218 19.7234 128.818 19.3069 128.693 18.6716C128.634 18.363 128.613 18.0393 128.613 17.7247C128.607 13.1551 128.61 8.58544 128.61 4.01581V3.22474L128.607 3.22174Z" fill="#545554"/>
<path d="M158.421 16.796H159.189C159.805 16.796 160.238 17.1017 160.489 17.653C160.729 18.1924 160.584 18.8936 160.134 19.2921C159.918 19.4839 159.657 19.6637 159.384 19.7506C158.244 20.1221 157.076 20.1281 156.004 19.5888C155.494 19.3341 155.118 18.8127 154.623 18.3602C154.632 18.3512 154.513 18.4411 154.398 18.531C152.445 20.0263 150.285 20.4518 147.954 19.6817C146.321 19.1423 145.388 17.8178 145.302 16.1128C145.219 14.3959 145.983 13.1254 147.583 12.3702C149.207 11.5972 150.928 11.5822 152.662 11.765C153.308 11.8309 153.939 11.9627 154.688 12.0826C154.653 11.4234 154.691 10.7851 154.567 10.1798C154.377 9.23892 153.58 8.59768 152.448 8.65161C151.45 8.70255 150.457 8.99321 149.477 9.24192C149.008 9.36478 148.585 9.64645 148.131 9.83822C147.266 10.2068 146.466 9.97006 146.087 9.24791C145.66 8.43287 145.832 7.39609 146.644 7.01254C147.699 6.51213 148.822 6.11359 149.957 5.84691C151.497 5.48733 153.076 5.49332 154.632 5.8559C156.996 6.41025 158.35 8.0673 158.401 10.5214C158.439 12.3702 158.413 14.2161 158.415 16.0649V16.796M151.951 14.0063C151.34 14.0782 150.807 14.0992 150.297 14.2131C149.373 14.4228 148.94 14.9622 148.967 15.7563C148.997 16.5294 149.518 17.0418 150.425 17.1916C151.527 17.3744 152.57 17.1556 153.565 16.6882C154.697 16.1578 154.691 16.1368 154.667 14.8633C154.662 14.5427 154.561 14.3899 154.256 14.3479C153.465 14.2371 152.673 14.1142 151.951 14.0093" fill="#545554"/>
<path d="M57.5601 13.9527C57.6727 15.4119 58.6208 16.4757 60.1111 16.8083C61.5866 17.1379 62.994 16.9791 64.2976 16.1401C64.6917 15.8854 65.1095 15.6457 65.548 15.4899C66.185 15.2591 66.8753 15.5048 67.2338 16.0052C67.616 16.5446 67.622 17.2788 67.2072 17.8391C67.0353 18.0758 66.8249 18.3035 66.582 18.4564C63.6191 20.3202 60.4963 20.6438 57.3319 19.1366C54.6891 17.8751 53.3558 14.9205 53.8121 11.7772C54.618 6.18279 61.0622 3.54588 65.4739 7.0248C67.1242 8.32527 67.8234 10.1112 67.7553 12.1997C67.7197 13.2605 66.9138 13.9287 65.6872 13.9437C64.0784 13.9646 62.4666 13.9497 60.8577 13.9497H57.566M57.5453 11.4416H63.9599C63.9273 9.6587 62.8043 8.60095 61.0563 8.56798C59.0652 8.53502 57.643 9.72762 57.5453 11.4416Z" fill="#545554"/>
<path d="M162.307 8.72682C161.859 8.72682 161.507 8.7418 161.154 8.72682C160.342 8.69086 159.788 8.09456 159.77 7.24955C159.753 6.42852 160.313 5.79626 161.127 5.75131C161.533 5.72734 161.942 5.74832 162.416 5.74832C162.416 4.94526 162.41 4.19614 162.416 3.44702C162.425 2.29038 163.121 1.57722 164.241 1.57422C165.326 1.57422 166.007 2.26041 166.04 3.41406C166.061 4.1482 166.058 4.88233 166.067 5.61647C166.067 5.63145 166.081 5.64943 166.126 5.74232C167.104 5.74232 168.117 5.72135 169.13 5.74832C170.277 5.77229 170.923 6.84802 170.446 7.89679C170.188 8.45713 169.738 8.72682 169.13 8.72981C168.132 8.73281 167.133 8.72981 166.096 8.72981C166.078 8.92159 166.046 9.07141 166.043 9.22423C166.04 11.2499 166.034 13.2755 166.043 15.2981C166.049 16.5416 166.632 17.0331 167.847 16.7903C168.227 16.7154 168.597 16.5626 168.964 16.4308C169.726 16.1641 170.381 16.3349 170.742 16.8982C171.154 17.5395 171.056 18.4384 170.481 18.9688C170.253 19.1785 169.978 19.3583 169.69 19.4722C168.253 20.0445 166.769 20.2243 165.249 19.8647C163.418 19.4332 162.351 18.0549 162.313 15.9933C162.274 13.8088 162.301 11.6244 162.298 9.43998V8.72382" fill="#545554"/>
<path d="M71.0471 8.93007H70.4812C69.7079 8.92108 69.2338 8.57349 69.0383 7.86932C68.8368 7.13518 69.0797 6.42501 69.7493 6.0954C70.8871 5.53806 72.0663 5.51408 73.204 6.09241C73.8618 6.42801 74.1996 7.0303 74.2559 7.77643C74.2855 8.12702 74.2914 8.4776 74.3151 8.97502C74.6618 8.45963 74.9166 8.0521 75.204 7.67155C75.9151 6.72766 76.6943 5.86767 77.9594 5.70586C78.869 5.59199 79.5209 5.90662 79.8172 6.6108C80.1401 7.3779 79.9208 8.28583 79.2483 8.80422C78.9698 9.01997 78.6498 9.18178 78.3298 9.32261C77.3965 9.73313 76.4632 10.1556 75.5062 10.5062C74.9877 10.698 74.804 10.9557 74.8129 11.528C74.8514 13.6945 74.8425 15.8579 74.8247 18.0214C74.8099 19.5616 73.6574 20.4036 72.2381 19.9361C71.4589 19.6814 71.056 19.0762 71.053 18.0903C71.0441 15.2706 71.05 12.4509 71.05 9.63125V8.93007H71.0471Z" fill="#545554"/>
<path d="M82.9431 8.93323C82.635 8.91525 82.3831 8.90626 82.1313 8.88828C81.4706 8.83435 81.035 8.49575 80.8721 7.90844C80.6943 7.26419 80.8869 6.63193 81.3846 6.25438C82.4068 5.47529 84.9727 5.52623 85.8911 6.41319C86.223 6.73681 86.4215 7.23123 86.5963 7.67771C86.7148 7.97735 86.7148 8.33993 86.7148 8.67553C86.7237 11.7889 86.7296 14.9082 86.7148 18.0246C86.7059 19.5228 85.5534 20.3768 84.1756 19.9393C83.3727 19.6846 82.949 19.0883 82.9461 18.1264C82.9342 15.966 82.9401 13.7995 82.9401 11.6361V8.93023" fill="#545554"/>
<path d="M115.684 13.9527C115.797 15.4119 116.745 16.4757 118.238 16.8083C119.714 17.1379 121.118 16.9791 122.422 16.1401C122.816 15.8854 123.234 15.6457 123.672 15.4899C124.309 15.2591 125.003 15.5048 125.358 16.0052C125.74 16.5446 125.746 17.2788 125.332 17.8391C125.16 18.0758 124.946 18.3035 124.703 18.4564C121.741 20.3202 118.621 20.6438 115.453 19.1366C112.811 17.8751 111.48 14.9205 111.934 11.7772C112.739 6.18279 119.184 3.54588 123.595 7.0248C125.249 8.32527 125.945 10.1112 125.877 12.1997C125.844 13.2605 125.035 13.9287 123.809 13.9437C122.2 13.9646 120.588 13.9497 118.979 13.9497H115.684M115.664 11.4416H122.078C122.046 9.6587 120.923 8.60095 119.175 8.56798C117.181 8.53502 115.759 9.72762 115.661 11.4416" fill="#545554"/>
<path d="M86.7268 2.13447C86.7268 3.31209 85.7817 4.26497 84.6172 4.26497C83.4528 4.26497 82.5077 3.31209 82.5077 2.13447C82.5077 0.956854 83.4528 0.000976562 84.6172 0.000976562C85.7817 0.000976562 86.7268 0.956854 86.7268 2.13447Z" fill="#545554"/>
</svg>
