<svg width="17" height="17" viewBox="0 0 17 17" fill="none" xmlns="http://www.w3.org/2000/svg">
<circle cx="8.06061" cy="8.06061" r="7.81061" stroke="#19B3B5" stroke-width="0.5"/>
<path d="M6.90253 9.43678C8.13128 8.39472 9.3502 7.35765 10.5691 6.32556C10.7706 6.15603 10.9721 5.98153 11.1737 5.812C11.4292 5.59761 11.7241 5.58764 11.8962 5.79206C12.0879 6.01643 12.0485 6.36544 11.793 6.58483C10.8738 7.3726 9.95474 8.1554 9.03564 8.94317C8.46058 9.43678 7.88061 9.92541 7.30556 10.419C6.96151 10.7132 6.77965 10.7132 6.4356 10.424C5.73767 9.83067 5.03482 9.23735 4.33198 8.64402C4.26808 8.58917 4.19927 8.52934 4.15012 8.46453C3.9781 8.23517 3.99284 7.96094 4.1747 7.78644C4.39096 7.58201 4.68094 7.56207 4.90703 7.75652C5.36413 8.14044 5.82122 8.52934 6.27341 8.91825C6.48475 9.08278 6.68627 9.2523 6.90253 9.43678Z" fill="#19B3B5"/>
</svg>
