<svg xmlns="http://www.w3.org/2000/svg" xmlns:xlink="http://www.w3.org/1999/xlink" width="192.754" height="33.885" viewBox="0 0 192.754 33.885">
  <defs>
    <clipPath id="clip-path">
      <rect id="Rectangle_1" data-name="Rectangle 1" width="192.754" height="33.885" fill="#313131"/>
    </clipPath>
  </defs>
  <g id="Group_2" data-name="Group 2" transform="translate(0 0)">
    <g id="Group_1" data-name="Group 1" transform="translate(0 0)" clip-path="url(#clip-path)">
      <path id="Path_8" data-name="Path 8" d="M190.613,1.268l-.374-.35a3.421,3.421,0,0,0-4.821.157l-1.2,1.243v9.3a3.056,3.056,0,0,0,2.369-.951l4.183-4.574a3.421,3.421,0,0,0-.157-4.821" transform="translate(-108.603 0)" fill="#12b6b8"/>
      <path id="Path_9" data-name="Path 9" d="M167.086,1.268l.373-.35a3.421,3.421,0,0,1,4.821.157l1.2,1.243v9.3a3.056,3.056,0,0,1-2.369-.951l-4.183-4.574a3.42,3.42,0,0,1,.157-4.821" transform="translate(-97.869 0)" fill="#70d44b"/>
      <path id="Path_10" data-name="Path 10" d="M7.668,28.585c-.148,1.971-.3,3.941-.442,5.912C7,37.586,6.8,40.676,6.567,43.763a2.42,2.42,0,0,1-2.521,2.5,2.251,2.251,0,0,1-2.529-2.56c.12-2.4.346-4.8.527-7.2q.206-2.732.415-5.463c.139-1.79.282-3.581.431-5.458-.4-.03-.753-.05-1.109-.087A1.846,1.846,0,0,1,.062,24a1.872,1.872,0,0,1,.915-2.242,7.163,7.163,0,0,1,1.875-.581,10.151,10.151,0,0,1,1.9-.1c4.337.052,6.1,1.15,7.6,5.3,1.292,3.576,2.744,7.094,4.2,10.834.173-.41.284-.656.38-.906,1.578-4.121,3.142-8.248,4.736-12.363A4.084,4.084,0,0,1,26.729,21.2a3.342,3.342,0,0,1,2.888,3.219c.339,3.742.635,7.488.945,11.232.2,2.373.373,4.748.586,7.12.163,1.826-.477,3.017-1.884,3.4a2.56,2.56,0,0,1-3.492-2.2c-.241-1.94-.312-3.9-.445-5.855-.217-3.188-.423-6.377-.786-9.606-.1.25-.217.5-.312.749-1.584,4.2-3.151,8.414-4.754,12.61a3.363,3.363,0,0,1-4.491,2.08,3.628,3.628,0,0,1-2.057-2.279Q10.56,35.533,8.16,29.406c-.11-.284-.238-.563-.357-.845l-.135.024" transform="translate(0 -12.42)" fill="#313131"/>
      <path id="Path_11" data-name="Path 11" d="M237.729,22.516a2.831,2.831,0,0,1,1.8,1.973,2.351,2.351,0,0,1-3.23,2.676c-.671-.231-1.3-.591-1.947-.884a8.388,8.388,0,0,0-5.245-.768,2.339,2.339,0,0,0-2.093,1.976,2.246,2.246,0,0,0,1.495,2.53c1.547.6,3.161,1.027,4.742,1.542,1,.328,2.023.623,2.993,1.034a5.968,5.968,0,0,1,4.045,5.556,6.822,6.822,0,0,1-3.46,6.52,12.549,12.549,0,0,1-8.611,1.277,14.778,14.778,0,0,1-5.506-1.922,4.152,4.152,0,0,1-1.458-1.666,2.075,2.075,0,0,1,.565-2.465,2.2,2.2,0,0,1,2.5-.468,16.416,16.416,0,0,1,1.679.892,9.22,9.22,0,0,0,6.141,1.383,3.957,3.957,0,0,0,1.955-.911,2.284,2.284,0,0,0-.728-3.759c-1.443-.632-3.005-.986-4.5-1.513a26.747,26.747,0,0,1-3.894-1.533,6.394,6.394,0,0,1-3.519-6.728,6.294,6.294,0,0,1,4.83-5.667c1.5-.451,4.944-1.6,11.442.927" transform="translate(-130.319 -12.342)" fill="#313131"/>
      <path id="Path_12" data-name="Path 12" d="M326.5,21.621c-.344,0-.58.011-.814,0a1.832,1.832,0,0,1-1.85-1.538,1.9,1.9,0,0,1,1.016-2.2,5.769,5.769,0,0,1,5.41.254,2.751,2.751,0,0,1,1.3,2.495c.03,2.145.023,4.289.032,6.434,0,.252,0,.5,0,.85.714-.612,1.289-1.192,1.947-1.654a7.89,7.89,0,0,1,6.733-1.185,5.32,5.32,0,0,1,4.152,5.181c.085,2.8.038,5.613.048,8.42,0,.314,0,.627,0,1.036.371,0,.677.012.981,0a1.718,1.718,0,0,1,1.8,1.028,2.143,2.143,0,0,1-.426,2.288c-1.4,1.462-5.578,1.212-6.746-.448a4.442,4.442,0,0,1-.577-1.534,6.02,6.02,0,0,1-.073-1.344c-.006-2.25.006-4.5-.005-6.752-.016-2.958-1.79-4.355-4.628-3.493a11.605,11.605,0,0,0-2.868,1.612,1.332,1.332,0,0,0-.326.971c-.025,3.151,0,6.3-.024,9.453a2.473,2.473,0,0,1-3.452,2.4,2.145,2.145,0,0,1-1.519-1.679,6.612,6.612,0,0,1-.108-1.26q-.01-9.136,0-18.271Z" transform="translate(-190.879 -10.213)" fill="#313131"/>
      <path id="Path_13" data-name="Path 13" d="M402.882,50.39h1.036a1.8,1.8,0,0,1,1.75,1.143,1.933,1.933,0,0,1-.477,2.185,2.988,2.988,0,0,1-1.009.612,5.928,5.928,0,0,1-4.559-.215,9.732,9.732,0,0,1-1.861-1.638c.013-.01-.147.108-.306.229a9.038,9.038,0,0,1-8.686,1.531,5.017,5.017,0,0,1-3.571-4.755,4.891,4.891,0,0,1,3.072-4.992,12.657,12.657,0,0,1,6.848-.808c.865.089,1.721.265,2.728.424a17.834,17.834,0,0,0-.16-2.538,2.589,2.589,0,0,0-2.852-2.035,20.7,20.7,0,0,0-4.005.787,13.578,13.578,0,0,0-1.812.8,2.027,2.027,0,0,1-2.753-.789,2.119,2.119,0,0,1,.75-2.979,22.49,22.49,0,0,1,4.466-1.551,13.915,13.915,0,0,1,6.3.014,6.1,6.1,0,0,1,5.079,6.219c.05,2.462.018,4.925.021,7.388,0,.289,0,.578,0,.973m-8.713-3.719c-.824.1-1.542.121-2.231.275A1.946,1.946,0,0,0,390.146,49c.038,1.029.743,1.712,1.965,1.913a7.124,7.124,0,0,0,4.234-.673c1.524-.707,1.518-.736,1.485-2.433-.009-.425-.143-.629-.555-.686-1.068-.15-2.135-.311-3.106-.453" transform="translate(-227.083 -20.894)" fill="#313131"/>
      <path id="Path_14" data-name="Path 14" d="M89.667,46.369a4.123,4.123,0,0,0,3.442,3.805,7.2,7.2,0,0,0,5.641-.892,8.62,8.62,0,0,1,1.684-.866,1.993,1.993,0,0,1,2.272.687,2.059,2.059,0,0,1-.035,2.446,3.255,3.255,0,0,1-.845.823,12.414,12.414,0,0,1-12.468.9C85.792,51.6,84,47.657,84.61,43.471a9.79,9.79,0,0,1,15.719-6.334,7.945,7.945,0,0,1,3.076,6.9c-.047,1.413-1.134,2.3-2.79,2.326-2.17.029-4.34.008-6.51.009Zm-.029-3.345h8.646A3.654,3.654,0,0,0,94.372,39.2c-2.685-.046-4.6,1.544-4.734,3.828" transform="translate(-49.811 -20.663)" fill="#313131"/>
      <path id="Path_15" data-name="Path 15" d="M280.524,46.508a4.1,4.1,0,0,0,3.428,3.8,7.169,7.169,0,0,0,5.64-.888,8.881,8.881,0,0,1,1.531-.823,2.038,2.038,0,0,1,2.47.7,2.108,2.108,0,0,1-.207,2.574,3.1,3.1,0,0,1-.7.634c-4.025,2.483-8.251,2.934-12.539.868-3.554-1.711-5.258-5.575-4.676-9.841.477-3.5,2.153-6.179,5.517-7.421,3.557-1.315,7.106-1.181,10.246,1.212a7.807,7.807,0,0,1,3.025,6.836c-.049,1.441-1.152,2.326-2.862,2.336-3.335.02-6.669.006-10,.007Zm8.587-3.338c.045-2.39-1.637-3.889-4.106-3.835-2.624.056-4.6,1.8-4.482,3.835Z" transform="translate(-162.331 -20.802)" fill="#313131"/>
      <path id="Path_16" data-name="Path 16" d="M436.141,31.969c-.6,0-1.077.017-1.551,0A1.989,1.989,0,0,1,434.554,28c.548-.032,1.1-.006,1.737-.006,0-1.071-.007-2.068,0-3.065a2.443,2.443,0,1,1,4.885-.043c.029.979.024,1.958.036,2.936,0,.023.021.045.08.168,1.317,0,2.685-.024,4.051.007a1.948,1.948,0,0,1,1.769,2.865,1.813,1.813,0,0,1-1.77,1.109c-1.346,0-2.691,0-4.087,0-.028.256-.07.456-.07.657,0,2.7-.011,5.4,0,8.1.007,1.657.8,2.309,2.43,1.989a11.63,11.63,0,0,0,1.508-.479,1.913,1.913,0,0,1,2.4.624,2.179,2.179,0,0,1-.351,2.758,3.57,3.57,0,0,1-1.064.67,9.874,9.874,0,0,1-5.988.525,4.953,4.953,0,0,1-3.957-5.157c-.051-2.911-.017-5.823-.02-8.734Z" transform="translate(-255.105 -13.225)" fill="#313131"/>
      <path id="Path_17" data-name="Path 17" d="M137.368,40.071c-.347,0-.556,0-.765,0a1.815,1.815,0,0,1-1.943-1.411,1.917,1.917,0,0,1,.957-2.365,5.065,5.065,0,0,1,4.658,0,2.582,2.582,0,0,1,1.417,2.244c.037.466.048.933.08,1.6.468-.684.808-1.231,1.2-1.74.96-1.259,2.009-2.4,3.714-2.616a2.16,2.16,0,0,1,2.5,1.206,2.46,2.46,0,0,1-.77,2.922,5.959,5.959,0,0,1-1.239.692c-1.259.548-2.516,1.109-3.806,1.577a1.2,1.2,0,0,0-.935,1.362c.052,2.883.038,5.768.014,8.652a2.513,2.513,0,0,1-3.483,2.554,2.3,2.3,0,0,1-1.6-2.46c-.011-3.757,0-7.515,0-11.273Z" transform="translate(-79.331 -21.061)" fill="#313131"/>
      <path id="Path_18" data-name="Path 18" d="M176.32,40.148c-.417-.023-.755-.034-1.091-.061a1.75,1.75,0,0,1-1.7-1.3,2.009,2.009,0,0,1,.687-2.207c1.379-1.037,4.84-.971,6.075.214a4.712,4.712,0,0,1,.951,1.685,3.737,3.737,0,0,1,.16,1.332c.011,4.153.021,8.307,0,12.46a2.507,2.507,0,0,1-3.42,2.552,2.281,2.281,0,0,1-1.66-2.414c-.016-2.884-.006-5.767-.007-8.651Z" transform="translate(-102.251 -21.133)" fill="#313131"/>
    </g>
  </g>
</svg>
