<svg width="25" height="24" viewBox="0 0 25 24" fill="none" xmlns="http://www.w3.org/2000/svg">
<path d="M12.75 24C19.3774 24 24.75 18.6274 24.75 12C24.75 5.37258 19.3774 0 12.75 0C6.12258 0 0.75 5.37258 0.75 12C0.75 18.6274 6.12258 24 12.75 24Z" fill="white"/>
<path d="M12.75 23.5C19.1013 23.5 24.25 18.3513 24.25 12C24.25 5.64873 19.1013 0.5 12.75 0.5C6.39873 0.5 1.25 5.64873 1.25 12C1.25 18.3513 6.39873 23.5 12.75 23.5Z" stroke="#313131"/>
<path d="M8.93359 14.0883V16.1273H10.9726L16.9846 10.1143L14.9466 8.07626L8.93359 14.0883ZM18.5616 8.53826C18.6121 8.48798 18.6522 8.42823 18.6796 8.36241C18.7069 8.2966 18.721 8.22603 18.721 8.15476C18.721 8.08348 18.7069 8.01291 18.6796 7.9471C18.6522 7.88129 18.6121 7.82153 18.5616 7.77126L17.2896 6.49926C17.2393 6.44873 17.1796 6.40864 17.1138 6.38128C17.0479 6.35393 16.9774 6.33984 16.9061 6.33984C16.8348 6.33984 16.7643 6.35393 16.6984 6.38128C16.6326 6.40864 16.5729 6.44873 16.5226 6.49926L15.5276 7.49426L17.5666 9.53326L18.5616 8.53826Z" fill="#313131"/>
</svg>
