<svg width="20" height="14" viewBox="0 0 20 14" fill="none" xmlns="http://www.w3.org/2000/svg">
<path d="M0 9.78573C0.0386394 9.49066 0.0723877 9.19405 0.117385 8.90001C0.495953 6.40757 1.58862 4.32105 3.38021 2.64249C4.68661 1.41809 6.20235 0.606774 7.9196 0.237809C10.7007 -0.359513 13.287 0.165967 15.6318 1.84196C17.713 3.32911 19.0668 5.38022 19.6934 7.94245C20.1585 9.84423 20.0837 11.7383 19.5422 13.6139C19.4645 13.8839 19.3265 13.9906 19.0585 13.9993C19.013 14.0009 18.9675 13.9993 18.922 13.9993C12.974 13.9993 7.02552 13.9993 1.0775 13.9993C0.629479 13.9993 0.542907 13.9259 0.417207 13.4805C0.21863 12.779 0.0919519 12.0642 0.0342374 11.3355C0.0288572 11.2688 0.0117385 11.2036 0.000489106 11.1374C0.000489106 10.6868 0.000489106 10.2358 0.000489106 9.78522L0 9.78573ZM14.2036 1.96974C13.0127 1.32674 11.764 0.974712 10.4214 0.914159C10.4214 1.2395 10.4248 1.53919 10.4199 1.83888C10.4175 1.99488 10.4175 2.15396 10.3881 2.30535C10.348 2.5101 10.1851 2.62659 9.9895 2.62299C9.80217 2.6194 9.65348 2.50394 9.60604 2.30894C9.58403 2.21811 9.5762 2.12112 9.57522 2.02618C9.5718 1.65979 9.57376 1.29287 9.57376 0.912619C8.22676 0.977278 6.98052 1.32623 5.7959 1.96666C5.83748 2.04825 5.86976 2.11394 5.90497 2.17808C6.06051 2.46186 6.218 2.7441 6.37305 3.02839C6.47087 3.20749 6.4919 3.39223 6.36962 3.56619C6.18719 3.82482 5.83992 3.79609 5.66971 3.50358C5.46233 3.14591 5.26669 2.78002 5.06273 2.41208C3.9373 3.18388 3.01925 4.13837 2.29684 5.31608C2.37608 5.36585 2.43624 5.40485 2.49786 5.44231C2.77323 5.60961 3.05104 5.7733 3.32445 5.9447C3.49613 6.05195 3.58612 6.21257 3.54846 6.42605C3.51423 6.62002 3.39439 6.75499 3.20951 6.76935C3.09604 6.77808 2.96594 6.73446 2.86274 6.67647C2.5321 6.49122 2.21076 6.28852 1.87132 6.08428C1.25553 7.33486 0.928812 8.64497 0.860337 10.0546C0.963049 10.0546 1.05304 10.0536 1.14255 10.0546C1.47416 10.0592 1.80627 10.0526 2.1369 10.0741C2.35553 10.0885 2.50178 10.285 2.49737 10.5052C2.49297 10.7243 2.33401 10.9044 2.11881 10.928C2.04153 10.9368 1.96278 10.9321 1.88452 10.9321C1.54753 10.9321 1.21103 10.9321 0.827078 10.9321C0.936149 11.6773 1.04082 12.3926 1.14402 13.1003H18.8531C18.9558 12.3834 19.0585 11.669 19.1641 10.9321C19.0614 10.9321 19.0169 10.9321 18.9719 10.9321C18.6271 10.9321 18.2818 10.9357 17.937 10.9306C17.6817 10.927 17.5041 10.75 17.4973 10.5083C17.4909 10.2748 17.6494 10.0936 17.893 10.0649C17.9893 10.0536 18.0876 10.0551 18.185 10.0551C18.4965 10.0541 18.8076 10.0551 19.1343 10.0551C19.0653 8.6424 18.7386 7.32922 18.1228 6.08479C17.7619 6.30238 17.4273 6.51226 17.0854 6.7088C16.7954 6.87558 16.4834 6.72625 16.4437 6.41065C16.4154 6.18435 16.5225 6.03553 16.701 5.92725C17.0321 5.72712 17.3613 5.52493 17.6998 5.31864C16.9676 4.13477 16.0515 3.17618 14.9319 2.41568C14.883 2.50189 14.8395 2.57784 14.7974 2.65378C14.634 2.94834 14.4741 3.24546 14.3059 3.53694C14.2173 3.68986 14.0774 3.7576 13.9077 3.73758C13.7365 3.71757 13.5952 3.61596 13.5712 3.44508C13.5512 3.30242 13.582 3.13051 13.6451 3.00068C13.8123 2.65532 14.009 2.32536 14.2031 1.97128L14.2036 1.96974Z" fill="#404040"/>
<path d="M9.16602 10.5837C9.16504 10.2235 9.2658 10.0023 9.45655 9.82628C11.0481 8.35709 12.6392 6.88739 14.2322 5.42026C14.4855 5.18677 14.7482 5.19652 14.9106 5.43052C15.0412 5.61885 15.0206 5.82104 14.8382 6.04016C14.2992 6.68726 13.7577 7.33282 13.2168 7.97838C12.4015 8.95185 11.5861 9.92583 10.7693 10.8988C10.6881 10.9958 10.6064 11.0964 10.5101 11.1754C10.2406 11.3971 9.94126 11.4376 9.63263 11.2796C9.32449 11.122 9.17385 10.8506 9.16602 10.5837Z" fill="#404040"/>
</svg>
