<svg width="19" height="20" viewBox="0 0 19 20" fill="none" xmlns="http://www.w3.org/2000/svg">
<path d="M3.86399 1.23032C3.86399 0.965792 3.86194 0.724535 3.86467 0.483621C3.86774 0.181109 4.02849 -0.000603386 4.28618 8.10304e-05C4.54489 0.000765446 4.70359 0.18282 4.70632 0.486358C4.70837 0.721798 4.70667 0.957579 4.70667 1.21184H10.4822C10.4822 0.974005 10.4805 0.733433 10.4826 0.492518C10.4849 0.187953 10.6416 0.00487194 10.8986 8.10304e-05C11.158 -0.00436767 11.3228 0.174607 11.3286 0.477119C11.3334 0.718718 11.3297 0.960659 11.3297 1.23066C11.4307 1.23066 11.5109 1.22963 11.5915 1.23066C12.1867 1.24024 12.7857 1.20979 13.3761 1.26865C14.37 1.36823 15.1554 2.23709 15.1813 3.24182C15.2052 4.17194 15.1915 5.10309 15.1919 6.03355C15.1929 7.50607 15.1919 8.97825 15.1919 10.4508C15.1919 10.5332 15.1919 10.6157 15.1919 10.7085C16.4943 10.9901 17.5226 11.6649 18.2486 12.7761C18.8008 13.621 19.0503 14.5573 18.9916 15.564C18.8684 17.6758 17.4011 19.417 15.3676 19.8834C13.1618 20.3895 10.8112 19.2175 9.96104 17.0195C9.88186 17.0195 9.79926 17.0195 9.71633 17.0195C7.19477 17.0195 4.67356 17.0215 2.152 17.0184C1.06871 17.0171 0.212032 16.2916 0.0263623 15.2249C0.00144713 15.0826 0.00110583 14.9344 0.00110583 14.7893C8.1913e-05 11.0178 -0.000600695 7.24633 0.000764521 3.47486C0.00110583 2.13169 0.903514 1.23203 2.24552 1.23066C2.70287 1.23032 3.15988 1.23066 3.61722 1.23066C3.69163 1.23066 3.76603 1.23066 3.86399 1.23066V1.23032ZM9.73339 16.1718C9.51428 14.7226 9.83101 13.429 10.7583 12.3175C11.6853 11.2067 12.901 10.6705 14.3297 10.6277V5.2516H0.846857C0.846857 5.344 0.846857 5.41963 0.846857 5.49491C0.846857 8.57102 0.846857 11.6468 0.846857 14.7229C0.846857 15.651 1.36223 16.1715 2.28307 16.1718C4.68619 16.1725 7.08931 16.1718 9.49209 16.1718H9.73305H9.73339ZM18.1547 15.3231C18.165 13.2196 16.4468 11.4904 14.34 11.4839C12.2437 11.4774 10.5283 13.1847 10.517 15.2892C10.5058 17.4126 12.1986 19.1367 14.3048 19.1463C16.4257 19.1559 18.1445 17.4489 18.1547 15.3231ZM3.86774 2.1115C3.18377 2.1115 2.51686 2.06086 1.86155 2.12759C1.33868 2.18097 0.97587 2.55945 0.894981 3.08509C0.830475 3.50292 0.882012 3.93889 0.882012 4.37658H14.3492C14.3492 4.04395 14.3512 3.72536 14.3488 3.40676C14.3434 2.63714 13.8116 2.09816 13.043 2.08926C12.5304 2.08344 12.0181 2.08755 11.5054 2.08892C11.4529 2.08892 11.4003 2.10021 11.3379 2.1074C11.3379 2.2412 11.3379 2.35892 11.3379 2.47664C11.3379 2.60155 11.3416 2.72679 11.3365 2.8517C11.3246 3.14052 11.1624 3.31676 10.9129 3.3171C10.6546 3.31779 10.4897 3.13402 10.486 2.83425C10.4829 2.59299 10.4853 2.35173 10.4853 2.10534H4.71042C4.71042 2.30896 4.71042 2.49512 4.71042 2.68162C4.71042 3.12239 4.58482 3.31368 4.29403 3.31642C3.9988 3.31916 3.86774 3.12752 3.86774 2.69155C3.86774 2.49888 3.86774 2.30588 3.86774 2.1115Z" fill="#404040"/>
<path d="M7.17746 9.74414C6.13853 9.74414 5.09926 9.74414 4.06033 9.74414C3.99105 9.74414 3.92142 9.74585 3.85282 9.73866C3.62687 9.71505 3.4651 9.54326 3.461 9.32767C3.45725 9.11618 3.61971 8.92934 3.83882 8.89922C3.90026 8.89067 3.9634 8.89443 4.02552 8.89409C6.12454 8.89409 8.22322 8.89409 10.3222 8.89409C10.3567 8.89409 10.3915 8.89341 10.426 8.89409C10.6994 8.90265 10.8932 9.08196 10.8909 9.32356C10.8885 9.56208 10.7089 9.73524 10.44 9.74174C10.1352 9.74893 9.83042 9.74414 9.52563 9.74414C8.74302 9.74414 7.96007 9.74414 7.17746 9.74414Z" fill="#404040"/>
<path d="M5.86828 12.5146C5.21741 12.5146 4.56654 12.5181 3.91568 12.5129C3.65287 12.5109 3.46686 12.3312 3.46106 12.0954C3.4556 11.8579 3.63308 11.681 3.89861 11.6629C3.96073 11.6588 4.02319 11.6608 4.08565 11.6608C5.24198 11.6608 6.39832 11.6608 7.55466 11.6608C7.63077 11.6608 7.70722 11.6588 7.78299 11.6619C8.06901 11.6742 8.24478 11.8381 8.24307 12.0893C8.24171 12.3411 8.06252 12.5116 7.7789 12.5133C7.14202 12.5174 6.50481 12.5146 5.86794 12.5146H5.86828Z" fill="#404040"/>
<path d="M13.7823 16.1991C13.9935 15.9975 14.1986 15.8028 14.4027 15.6074C15.014 15.0225 15.6219 14.4336 16.2403 13.8563C16.3338 13.769 16.4803 13.6859 16.5977 13.6917C16.7216 13.6979 16.8926 13.7855 16.9468 13.8881C17.0062 14.0007 16.9731 14.1749 16.9458 14.3155C16.9321 14.385 16.8448 14.4432 16.785 14.5007C15.9096 15.3411 15.0331 16.1809 14.157 17.0207C13.8727 17.2931 13.672 17.291 13.3935 17.0125C12.8983 16.517 12.4013 16.0232 11.9102 15.5235C11.6546 15.2635 11.7324 14.8881 12.0553 14.7888C12.244 14.7306 12.3911 14.8076 12.5215 14.9397C12.8874 15.3097 13.2546 15.6779 13.6218 16.0464C13.6703 16.095 13.7208 16.1412 13.7819 16.1994L13.7823 16.1991Z" fill="#404040"/>
</svg>
