<svg width="24" height="16" viewBox="0 0 24 16" fill="none" xmlns="http://www.w3.org/2000/svg">
<path d="M12.0109 0.326402C15.1848 0.326402 18.3589 0.326402 21.5332 0.326402C22.2569 0.326402 22.7913 0.722186 22.9556 1.38288C22.9877 1.52916 23.0019 1.67884 22.9981 1.82861C23.0006 5.9382 23.0006 10.0478 22.9981 14.1574C22.9981 15.1057 22.4357 15.671 21.4983 15.6748C15.1655 15.6748 8.83267 15.6748 2.49987 15.6748C1.56933 15.6748 1 15.0982 1 14.1529C1 10.0429 1 5.93335 1 1.82419C1 0.875822 1.54245 0.330828 2.48487 0.330828C5.66127 0.327034 8.83662 0.325559 12.0109 0.326402ZM12.0109 0.958646H2.56049C1.93054 0.958646 1.67807 1.21154 1.67807 1.84379C1.67807 5.94537 1.67807 10.0467 1.67807 14.1479C1.67807 14.7359 1.94117 15.0027 2.51737 15.0033H21.4658C22.0282 15.0033 22.3357 14.7043 22.3363 14.1296C22.3392 9.98878 22.3392 5.848 22.3363 1.70722C22.3363 1.27224 22.0551 0.984569 21.6251 0.961808C21.547 0.958015 21.4689 0.961808 21.3908 0.961808L12.0109 0.958646Z" fill="#EF6286" stroke="#EF6286" stroke-width="0.2"/>
<path d="M17.4736 7.9958C17.4739 8.72504 17.3321 9.44718 17.0564 10.1209C16.7806 10.7947 16.3763 11.4069 15.8665 11.9224C15.3568 12.438 14.7515 12.8468 14.0854 13.1256C13.4194 13.4043 12.7055 13.5475 11.9847 13.5469C11.2639 13.5467 10.5502 13.4027 9.88438 13.1232C9.21862 12.8436 8.61384 12.4341 8.10464 11.918C7.59544 11.4018 7.1918 10.7892 6.91681 10.1151C6.64182 9.44102 6.50086 8.71871 6.50201 7.98948C6.49864 7.25819 6.63815 6.53343 6.91251 5.85686C7.18687 5.18029 7.59068 4.56523 8.10075 4.04704C8.61081 3.52885 9.21705 3.11774 9.88466 2.83733C10.5523 2.55692 11.2681 2.41275 11.9909 2.41309C12.7137 2.41374 13.4293 2.55885 14.0965 2.84009C14.7637 3.12132 15.3695 3.53314 15.8789 4.05188C16.3884 4.57063 16.7915 5.18608 17.0652 5.8629C17.3388 6.53972 17.4776 7.26456 17.4736 7.9958ZM16.8099 7.99264C16.8099 5.27399 14.6607 3.08579 11.9978 3.08327C9.3349 3.08074 7.16321 5.29612 7.16821 8.00845C7.17284 9.30122 7.68371 10.5394 8.58893 11.4519C9.49415 12.3644 10.7199 12.8767 11.9978 12.8767C13.2754 12.8722 14.4991 12.3557 15.4011 11.4403C16.303 10.5248 16.8096 9.28514 16.8099 7.99264Z" fill="#EF6286" stroke="#EF6286" stroke-width="0.2"/>
<path d="M9.8293 8.00276C9.8293 7.45018 9.8243 6.89823 9.8293 6.34628C9.8393 5.53069 10.5955 5.08875 11.2917 5.50224C12.1987 6.04091 13.0996 6.58885 13.9946 7.14607C14.6545 7.55703 14.6645 8.427 14.0064 8.84175C13.1011 9.41287 12.1868 9.96946 11.2635 10.5115C10.6099 10.8959 9.84929 10.4432 9.82617 9.68074C9.82617 9.66493 9.82617 9.64912 9.82617 9.63332L9.8293 8.00276ZM10.4911 7.98822C10.4911 8.51614 10.4911 9.0447 10.4911 9.57262C10.4911 9.92162 10.6998 10.0506 10.9911 9.8742C11.866 9.34691 12.7395 8.81519 13.6115 8.27905C13.8877 8.10898 13.8846 7.89022 13.6115 7.72078C12.739 7.18506 11.8654 6.65186 10.9904 6.1212C10.683 5.93469 10.4905 6.04217 10.4905 6.40192C10.4905 6.92794 10.4905 7.45777 10.4905 7.98569L10.4911 7.98822Z" fill="#EF6286" stroke="#EF6286" stroke-width="0.2"/>
</svg>
