<svg width="21" height="22" viewBox="0 0 21 22" fill="none" xmlns="http://www.w3.org/2000/svg">
<mask id="path-1-outside-1_781_7992" maskUnits="userSpaceOnUse" x="0" y="0" width="21" height="22" fill="black">
<rect fill="white" width="21" height="22"/>
<path d="M18.384 21H2.05292C2.0175 20.9859 1.98261 20.9693 1.94875 20.9589C1.3758 20.7979 1.00234 20.3187 1.00182 19.7213C0.999392 16.4864 0.999392 13.2512 1.00182 10.0156C1.00182 9.55149 1.21017 9.18897 1.60603 8.94364C1.65091 8.92126 1.68802 8.8859 1.71254 8.84215C1.73707 8.7984 1.74786 8.74828 1.74353 8.69832C1.74353 8.03787 2.1399 7.65087 2.80556 7.64722C3.0113 7.64722 3.21757 7.64722 3.42227 7.64722C3.43581 7.58368 3.44779 7.54617 3.45143 7.50815C3.58529 6.15391 3.72384 4.79968 3.84885 3.44857C3.91083 2.77509 4.33117 2.42351 5.00464 2.49331C6.40263 2.63759 7.80166 2.77353 9.20017 2.91C9.43039 2.93291 9.56061 3.04698 9.54706 3.22251C9.533 3.40846 9.37778 3.50169 9.14235 3.47825C7.72388 3.33936 6.30575 3.20046 4.88797 3.06157C4.58795 3.03292 4.4593 3.13449 4.42909 3.42877C4.29922 4.70384 4.17196 5.97908 4.0473 7.25449C3.99903 7.7441 3.95111 8.23319 3.90354 8.72176C4.24939 8.79103 4.25669 8.78478 4.28846 8.46445C4.39263 7.42273 4.49593 6.38101 4.59837 5.33929C4.62597 5.05854 4.75463 4.84603 5.02496 4.73665C5.34773 4.60833 5.62372 4.38466 5.81614 4.09547C5.9724 3.86473 6.19532 3.77098 6.47294 3.79858C7.16569 3.86786 7.85843 3.93453 8.55118 4.0038C8.78036 4.0262 8.90693 4.15016 8.88453 4.32517C8.86213 4.50018 8.72254 4.58821 8.48607 4.56529C7.82562 4.5007 7.16517 4.43768 6.5068 4.36736C6.45353 4.35658 6.39822 4.36274 6.34862 4.38497C6.29902 4.4072 6.25762 4.44439 6.23022 4.49133C6.01501 4.81293 5.7092 5.06345 5.35153 5.21116C5.21402 5.26793 5.16923 5.35127 5.15673 5.48617C5.10464 6.04974 5.04579 6.61279 4.99058 7.17636C4.93849 7.69202 4.89161 8.20819 4.83953 8.75197C5.24528 8.75197 5.63384 8.74415 6.0224 8.75561C6.17866 8.75978 6.2672 8.70665 6.35366 8.57904C7.93222 6.25253 9.51216 3.9288 11.0935 1.60784C11.282 1.32971 11.4914 1.09844 11.8227 1H12.1743C12.291 1.05469 12.4186 1.09428 12.5238 1.16563C14.4562 2.47786 16.3863 3.79268 18.3142 5.11011C18.7585 5.41429 18.8569 5.94922 18.5632 6.39976C18.3288 6.75968 18.0808 7.11021 17.8397 7.46544C17.8048 7.51753 17.7741 7.56961 17.7256 7.6493C17.8225 7.6493 17.8871 7.64618 17.9511 7.6493C18.4246 7.67743 18.7955 7.98161 18.8793 8.42643C18.9059 8.5655 18.8866 8.71238 18.9017 8.85405C18.9052 8.92181 18.9315 8.9864 18.9762 9.0374C19.3075 9.32856 19.445 9.69368 19.4413 10.1312C19.4351 10.9187 19.4413 11.7063 19.4413 12.4938V12.7178C19.5356 12.7178 19.6054 12.7178 19.6757 12.7178C20.1226 12.722 20.3794 12.9756 20.3799 13.4204C20.3799 14.3965 20.3799 15.3728 20.3799 16.3492C20.3799 16.7711 20.1231 17.0264 19.6997 17.0389C19.6184 17.0415 19.5366 17.0389 19.4392 17.0389V17.2795C19.4392 18.0931 19.4429 18.9067 19.4392 19.7202C19.4424 20.0028 19.351 20.2782 19.1796 20.5029C19.0083 20.7275 18.7667 20.8883 18.4934 20.9599C18.4538 20.9687 18.4194 20.9859 18.384 21ZM1.5904 18.9395C1.5904 19.277 1.56331 19.5968 1.6029 19.9078C1.62113 20.0479 1.74666 20.2151 1.87166 20.2895C2.03505 20.3785 2.2185 20.424 2.4045 20.4218C7.61311 20.4281 12.8217 20.4297 18.0303 20.4265C18.1084 20.4282 18.1864 20.4254 18.2642 20.4182C18.546 20.3864 18.8137 20.1666 18.8408 19.888C18.8705 19.5812 18.8475 19.2692 18.8475 18.9395H1.5904ZM18.5934 18.3754H18.8496V17.0373H18.6064C17.8121 17.0373 17.0178 17.0425 16.2235 17.0373C14.8911 17.0269 13.9384 16.0315 14.003 14.7257C14.0551 13.6569 14.9817 12.7418 16.0547 12.722C16.9141 12.7063 17.7735 12.7173 18.6329 12.7162H18.8632V11.3995H1.58623V18.3754H18.5934ZM18.8632 10.7979V10.1557C18.8632 9.57388 18.6106 9.32231 18.0298 9.32231H2.40398C2.33887 9.32231 2.27325 9.31918 2.20866 9.32231C1.90864 9.34731 1.62113 9.57232 1.59248 9.85984C1.56227 10.1666 1.58571 10.4786 1.58571 10.7974L18.8632 10.7979ZM14.1806 8.74988C14.4859 8.74988 14.7718 8.75613 15.0572 8.7452C15.1237 8.73064 15.1819 8.69063 15.2192 8.63373C15.5495 8.15819 15.8776 7.68056 16.1948 7.19616C16.2169 7.15744 16.2304 7.11438 16.2342 7.06996C16.2381 7.02554 16.2323 6.98081 16.2172 6.93885C16.0386 6.58164 15.9626 6.18193 15.9974 5.7841C16.0099 5.65545 15.9656 5.58253 15.862 5.51221C14.9189 4.87433 13.9777 4.23316 13.0384 3.58868C12.9991 3.556 12.9505 3.53643 12.8995 3.5327C12.8485 3.52896 12.7977 3.54125 12.754 3.56784C12.4102 3.74458 12.0222 3.817 11.6378 3.77619C11.5783 3.76485 11.5167 3.77265 11.4618 3.79848C11.407 3.8243 11.3618 3.86682 11.3326 3.91994C10.2766 5.47975 9.21857 7.03504 8.15845 8.58581C8.12772 8.63009 8.10636 8.67957 8.06313 8.75092C8.50482 8.75092 8.91474 8.74572 9.32413 8.75353C9.46008 8.75613 9.49758 8.70144 9.51477 8.57592C9.74447 6.85708 11.7691 5.98359 13.1775 6.98989C13.7728 7.41492 14.0963 8.00089 14.1806 8.74988ZM17.8376 16.4685C18.4163 16.4685 18.9955 16.4617 19.5741 16.4727C19.7518 16.4758 19.8096 16.4284 19.808 16.2456C19.799 15.3351 19.799 14.4247 19.808 13.5142C19.808 13.3173 19.7413 13.2777 19.5611 13.2788C18.4673 13.2861 17.3735 13.2788 16.2828 13.284C16.1204 13.2812 15.9581 13.2964 15.799 13.3293C15.0255 13.5085 14.4885 14.2434 14.5676 14.996C14.6557 15.8372 15.3078 16.4513 16.1391 16.4633C16.7058 16.4742 17.2714 16.4685 17.8376 16.4685ZM6.93599 8.7254C7.20371 8.78947 7.37716 8.7478 7.52977 8.51029C7.9949 7.7889 8.48972 7.08625 8.97307 6.37476C9.61443 5.43408 10.2554 4.49324 10.8961 3.55222C11.0524 3.31835 11.2607 3.17407 11.5492 3.20584C11.9065 3.24884 12.2685 3.18313 12.5878 3.01729C12.6912 2.95954 12.8088 2.93217 12.927 2.93835C13.0452 2.94452 13.1593 2.98399 13.2561 3.05219C14.2694 3.73764 15.2802 4.42605 16.2886 5.1174C16.3882 5.18161 16.4673 5.27306 16.5165 5.38089C16.5658 5.48873 16.583 5.60843 16.5662 5.72577C16.5252 6.07056 16.591 6.41962 16.7547 6.72582C16.8198 6.83966 16.8501 6.97005 16.842 7.10092C16.8338 7.23179 16.7876 7.35742 16.7089 7.46232C16.5224 7.73664 16.336 8.01113 16.1495 8.2858C16.0526 8.42851 15.9568 8.57227 15.8542 8.7254C16.1203 8.7853 16.2922 8.7452 16.4464 8.50664C16.9511 7.72535 17.4881 6.96489 18.009 6.1961C18.2303 5.87161 18.2038 5.72108 17.8845 5.50336L12.3201 1.71254C11.9883 1.48648 11.8461 1.51565 11.6164 1.85265L7.47351 7.93213C7.30059 8.19152 7.12402 8.44726 6.93599 8.7254ZM10.0742 8.7353H13.5869C13.5504 7.87536 12.7535 7.14355 11.8612 7.13365C10.9372 7.12376 10.1346 7.83681 10.0737 8.7353H10.0742ZM18.3157 8.74415C18.3402 8.48841 18.2793 8.30507 18.097 8.26965C17.8527 8.22225 17.5964 8.23736 17.3454 8.22954C17.3266 8.22954 17.3011 8.25559 17.2876 8.27538C17.1834 8.42174 17.087 8.57019 16.9693 8.74415H18.3157ZM3.36705 8.23632C3.33846 8.23069 3.3096 8.22651 3.28059 8.22381C3.08579 8.22381 2.89099 8.21756 2.6967 8.22381C2.41544 8.23579 2.26908 8.44674 2.34148 8.74884H2.85817C3.34205 8.75093 3.34205 8.75092 3.36914 8.23892L3.36705 8.23632Z"/>
</mask>
<path d="M18.384 21H2.05292C2.0175 20.9859 1.98261 20.9693 1.94875 20.9589C1.3758 20.7979 1.00234 20.3187 1.00182 19.7213C0.999392 16.4864 0.999392 13.2512 1.00182 10.0156C1.00182 9.55149 1.21017 9.18897 1.60603 8.94364C1.65091 8.92126 1.68802 8.8859 1.71254 8.84215C1.73707 8.7984 1.74786 8.74828 1.74353 8.69832C1.74353 8.03787 2.1399 7.65087 2.80556 7.64722C3.0113 7.64722 3.21757 7.64722 3.42227 7.64722C3.43581 7.58368 3.44779 7.54617 3.45143 7.50815C3.58529 6.15391 3.72384 4.79968 3.84885 3.44857C3.91083 2.77509 4.33117 2.42351 5.00464 2.49331C6.40263 2.63759 7.80166 2.77353 9.20017 2.91C9.43039 2.93291 9.56061 3.04698 9.54706 3.22251C9.533 3.40846 9.37778 3.50169 9.14235 3.47825C7.72388 3.33936 6.30575 3.20046 4.88797 3.06157C4.58795 3.03292 4.4593 3.13449 4.42909 3.42877C4.29922 4.70384 4.17196 5.97908 4.0473 7.25449C3.99903 7.7441 3.95111 8.23319 3.90354 8.72176C4.24939 8.79103 4.25669 8.78478 4.28846 8.46445C4.39263 7.42273 4.49593 6.38101 4.59837 5.33929C4.62597 5.05854 4.75463 4.84603 5.02496 4.73665C5.34773 4.60833 5.62372 4.38466 5.81614 4.09547C5.9724 3.86473 6.19532 3.77098 6.47294 3.79858C7.16569 3.86786 7.85843 3.93453 8.55118 4.0038C8.78036 4.0262 8.90693 4.15016 8.88453 4.32517C8.86213 4.50018 8.72254 4.58821 8.48607 4.56529C7.82562 4.5007 7.16517 4.43768 6.5068 4.36736C6.45353 4.35658 6.39822 4.36274 6.34862 4.38497C6.29902 4.4072 6.25762 4.44439 6.23022 4.49133C6.01501 4.81293 5.7092 5.06345 5.35153 5.21116C5.21402 5.26793 5.16923 5.35127 5.15673 5.48617C5.10464 6.04974 5.04579 6.61279 4.99058 7.17636C4.93849 7.69202 4.89161 8.20819 4.83953 8.75197C5.24528 8.75197 5.63384 8.74415 6.0224 8.75561C6.17866 8.75978 6.2672 8.70665 6.35366 8.57904C7.93222 6.25253 9.51216 3.9288 11.0935 1.60784C11.282 1.32971 11.4914 1.09844 11.8227 1H12.1743C12.291 1.05469 12.4186 1.09428 12.5238 1.16563C14.4562 2.47786 16.3863 3.79268 18.3142 5.11011C18.7585 5.41429 18.8569 5.94922 18.5632 6.39976C18.3288 6.75968 18.0808 7.11021 17.8397 7.46544C17.8048 7.51753 17.7741 7.56961 17.7256 7.6493C17.8225 7.6493 17.8871 7.64618 17.9511 7.6493C18.4246 7.67743 18.7955 7.98161 18.8793 8.42643C18.9059 8.5655 18.8866 8.71238 18.9017 8.85405C18.9052 8.92181 18.9315 8.9864 18.9762 9.0374C19.3075 9.32856 19.445 9.69368 19.4413 10.1312C19.4351 10.9187 19.4413 11.7063 19.4413 12.4938V12.7178C19.5356 12.7178 19.6054 12.7178 19.6757 12.7178C20.1226 12.722 20.3794 12.9756 20.3799 13.4204C20.3799 14.3965 20.3799 15.3728 20.3799 16.3492C20.3799 16.7711 20.1231 17.0264 19.6997 17.0389C19.6184 17.0415 19.5366 17.0389 19.4392 17.0389V17.2795C19.4392 18.0931 19.4429 18.9067 19.4392 19.7202C19.4424 20.0028 19.351 20.2782 19.1796 20.5029C19.0083 20.7275 18.7667 20.8883 18.4934 20.9599C18.4538 20.9687 18.4194 20.9859 18.384 21ZM1.5904 18.9395C1.5904 19.277 1.56331 19.5968 1.6029 19.9078C1.62113 20.0479 1.74666 20.2151 1.87166 20.2895C2.03505 20.3785 2.2185 20.424 2.4045 20.4218C7.61311 20.4281 12.8217 20.4297 18.0303 20.4265C18.1084 20.4282 18.1864 20.4254 18.2642 20.4182C18.546 20.3864 18.8137 20.1666 18.8408 19.888C18.8705 19.5812 18.8475 19.2692 18.8475 18.9395H1.5904ZM18.5934 18.3754H18.8496V17.0373H18.6064C17.8121 17.0373 17.0178 17.0425 16.2235 17.0373C14.8911 17.0269 13.9384 16.0315 14.003 14.7257C14.0551 13.6569 14.9817 12.7418 16.0547 12.722C16.9141 12.7063 17.7735 12.7173 18.6329 12.7162H18.8632V11.3995H1.58623V18.3754H18.5934ZM18.8632 10.7979V10.1557C18.8632 9.57388 18.6106 9.32231 18.0298 9.32231H2.40398C2.33887 9.32231 2.27325 9.31918 2.20866 9.32231C1.90864 9.34731 1.62113 9.57232 1.59248 9.85984C1.56227 10.1666 1.58571 10.4786 1.58571 10.7974L18.8632 10.7979ZM14.1806 8.74988C14.4859 8.74988 14.7718 8.75613 15.0572 8.7452C15.1237 8.73064 15.1819 8.69063 15.2192 8.63373C15.5495 8.15819 15.8776 7.68056 16.1948 7.19616C16.2169 7.15744 16.2304 7.11438 16.2342 7.06996C16.2381 7.02554 16.2323 6.98081 16.2172 6.93885C16.0386 6.58164 15.9626 6.18193 15.9974 5.7841C16.0099 5.65545 15.9656 5.58253 15.862 5.51221C14.9189 4.87433 13.9777 4.23316 13.0384 3.58868C12.9991 3.556 12.9505 3.53643 12.8995 3.5327C12.8485 3.52896 12.7977 3.54125 12.754 3.56784C12.4102 3.74458 12.0222 3.817 11.6378 3.77619C11.5783 3.76485 11.5167 3.77265 11.4618 3.79848C11.407 3.8243 11.3618 3.86682 11.3326 3.91994C10.2766 5.47975 9.21857 7.03504 8.15845 8.58581C8.12772 8.63009 8.10636 8.67957 8.06313 8.75092C8.50482 8.75092 8.91474 8.74572 9.32413 8.75353C9.46008 8.75613 9.49758 8.70144 9.51477 8.57592C9.74447 6.85708 11.7691 5.98359 13.1775 6.98989C13.7728 7.41492 14.0963 8.00089 14.1806 8.74988ZM17.8376 16.4685C18.4163 16.4685 18.9955 16.4617 19.5741 16.4727C19.7518 16.4758 19.8096 16.4284 19.808 16.2456C19.799 15.3351 19.799 14.4247 19.808 13.5142C19.808 13.3173 19.7413 13.2777 19.5611 13.2788C18.4673 13.2861 17.3735 13.2788 16.2828 13.284C16.1204 13.2812 15.9581 13.2964 15.799 13.3293C15.0255 13.5085 14.4885 14.2434 14.5676 14.996C14.6557 15.8372 15.3078 16.4513 16.1391 16.4633C16.7058 16.4742 17.2714 16.4685 17.8376 16.4685ZM6.93599 8.7254C7.20371 8.78947 7.37716 8.7478 7.52977 8.51029C7.9949 7.7889 8.48972 7.08625 8.97307 6.37476C9.61443 5.43408 10.2554 4.49324 10.8961 3.55222C11.0524 3.31835 11.2607 3.17407 11.5492 3.20584C11.9065 3.24884 12.2685 3.18313 12.5878 3.01729C12.6912 2.95954 12.8088 2.93217 12.927 2.93835C13.0452 2.94452 13.1593 2.98399 13.2561 3.05219C14.2694 3.73764 15.2802 4.42605 16.2886 5.1174C16.3882 5.18161 16.4673 5.27306 16.5165 5.38089C16.5658 5.48873 16.583 5.60843 16.5662 5.72577C16.5252 6.07056 16.591 6.41962 16.7547 6.72582C16.8198 6.83966 16.8501 6.97005 16.842 7.10092C16.8338 7.23179 16.7876 7.35742 16.7089 7.46232C16.5224 7.73664 16.336 8.01113 16.1495 8.2858C16.0526 8.42851 15.9568 8.57227 15.8542 8.7254C16.1203 8.7853 16.2922 8.7452 16.4464 8.50664C16.9511 7.72535 17.4881 6.96489 18.009 6.1961C18.2303 5.87161 18.2038 5.72108 17.8845 5.50336L12.3201 1.71254C11.9883 1.48648 11.8461 1.51565 11.6164 1.85265L7.47351 7.93213C7.30059 8.19152 7.12402 8.44726 6.93599 8.7254ZM10.0742 8.7353H13.5869C13.5504 7.87536 12.7535 7.14355 11.8612 7.13365C10.9372 7.12376 10.1346 7.83681 10.0737 8.7353H10.0742ZM18.3157 8.74415C18.3402 8.48841 18.2793 8.30507 18.097 8.26965C17.8527 8.22225 17.5964 8.23736 17.3454 8.22954C17.3266 8.22954 17.3011 8.25559 17.2876 8.27538C17.1834 8.42174 17.087 8.57019 16.9693 8.74415H18.3157ZM3.36705 8.23632C3.33846 8.23069 3.3096 8.22651 3.28059 8.22381C3.08579 8.22381 2.89099 8.21756 2.6967 8.22381C2.41544 8.23579 2.26908 8.44674 2.34148 8.74884H2.85817C3.34205 8.75093 3.34205 8.75092 3.36914 8.23892L3.36705 8.23632Z" fill="#19B3B5"/>
<path d="M18.384 21H2.05292C2.0175 20.9859 1.98261 20.9693 1.94875 20.9589C1.3758 20.7979 1.00234 20.3187 1.00182 19.7213C0.999392 16.4864 0.999392 13.2512 1.00182 10.0156C1.00182 9.55149 1.21017 9.18897 1.60603 8.94364C1.65091 8.92126 1.68802 8.8859 1.71254 8.84215C1.73707 8.7984 1.74786 8.74828 1.74353 8.69832C1.74353 8.03787 2.1399 7.65087 2.80556 7.64722C3.0113 7.64722 3.21757 7.64722 3.42227 7.64722C3.43581 7.58368 3.44779 7.54617 3.45143 7.50815C3.58529 6.15391 3.72384 4.79968 3.84885 3.44857C3.91083 2.77509 4.33117 2.42351 5.00464 2.49331C6.40263 2.63759 7.80166 2.77353 9.20017 2.91C9.43039 2.93291 9.56061 3.04698 9.54706 3.22251C9.533 3.40846 9.37778 3.50169 9.14235 3.47825C7.72388 3.33936 6.30575 3.20046 4.88797 3.06157C4.58795 3.03292 4.4593 3.13449 4.42909 3.42877C4.29922 4.70384 4.17196 5.97908 4.0473 7.25449C3.99903 7.7441 3.95111 8.23319 3.90354 8.72176C4.24939 8.79103 4.25669 8.78478 4.28846 8.46445C4.39263 7.42273 4.49593 6.38101 4.59837 5.33929C4.62597 5.05854 4.75463 4.84603 5.02496 4.73665C5.34773 4.60833 5.62372 4.38466 5.81614 4.09547C5.9724 3.86473 6.19532 3.77098 6.47294 3.79858C7.16569 3.86786 7.85843 3.93453 8.55118 4.0038C8.78036 4.0262 8.90693 4.15016 8.88453 4.32517C8.86213 4.50018 8.72254 4.58821 8.48607 4.56529C7.82562 4.5007 7.16517 4.43768 6.5068 4.36736C6.45353 4.35658 6.39822 4.36274 6.34862 4.38497C6.29902 4.4072 6.25762 4.44439 6.23022 4.49133C6.01501 4.81293 5.7092 5.06345 5.35153 5.21116C5.21402 5.26793 5.16923 5.35127 5.15673 5.48617C5.10464 6.04974 5.04579 6.61279 4.99058 7.17636C4.93849 7.69202 4.89161 8.20819 4.83953 8.75197C5.24528 8.75197 5.63384 8.74415 6.0224 8.75561C6.17866 8.75978 6.2672 8.70665 6.35366 8.57904C7.93222 6.25253 9.51216 3.9288 11.0935 1.60784C11.282 1.32971 11.4914 1.09844 11.8227 1H12.1743C12.291 1.05469 12.4186 1.09428 12.5238 1.16563C14.4562 2.47786 16.3863 3.79268 18.3142 5.11011C18.7585 5.41429 18.8569 5.94922 18.5632 6.39976C18.3288 6.75968 18.0808 7.11021 17.8397 7.46544C17.8048 7.51753 17.7741 7.56961 17.7256 7.6493C17.8225 7.6493 17.8871 7.64618 17.9511 7.6493C18.4246 7.67743 18.7955 7.98161 18.8793 8.42643C18.9059 8.5655 18.8866 8.71238 18.9017 8.85405C18.9052 8.92181 18.9315 8.9864 18.9762 9.0374C19.3075 9.32856 19.445 9.69368 19.4413 10.1312C19.4351 10.9187 19.4413 11.7063 19.4413 12.4938V12.7178C19.5356 12.7178 19.6054 12.7178 19.6757 12.7178C20.1226 12.722 20.3794 12.9756 20.3799 13.4204C20.3799 14.3965 20.3799 15.3728 20.3799 16.3492C20.3799 16.7711 20.1231 17.0264 19.6997 17.0389C19.6184 17.0415 19.5366 17.0389 19.4392 17.0389V17.2795C19.4392 18.0931 19.4429 18.9067 19.4392 19.7202C19.4424 20.0028 19.351 20.2782 19.1796 20.5029C19.0083 20.7275 18.7667 20.8883 18.4934 20.9599C18.4538 20.9687 18.4194 20.9859 18.384 21ZM1.5904 18.9395C1.5904 19.277 1.56331 19.5968 1.6029 19.9078C1.62113 20.0479 1.74666 20.2151 1.87166 20.2895C2.03505 20.3785 2.2185 20.424 2.4045 20.4218C7.61311 20.4281 12.8217 20.4297 18.0303 20.4265C18.1084 20.4282 18.1864 20.4254 18.2642 20.4182C18.546 20.3864 18.8137 20.1666 18.8408 19.888C18.8705 19.5812 18.8475 19.2692 18.8475 18.9395H1.5904ZM18.5934 18.3754H18.8496V17.0373H18.6064C17.8121 17.0373 17.0178 17.0425 16.2235 17.0373C14.8911 17.0269 13.9384 16.0315 14.003 14.7257C14.0551 13.6569 14.9817 12.7418 16.0547 12.722C16.9141 12.7063 17.7735 12.7173 18.6329 12.7162H18.8632V11.3995H1.58623V18.3754H18.5934ZM18.8632 10.7979V10.1557C18.8632 9.57388 18.6106 9.32231 18.0298 9.32231H2.40398C2.33887 9.32231 2.27325 9.31918 2.20866 9.32231C1.90864 9.34731 1.62113 9.57232 1.59248 9.85984C1.56227 10.1666 1.58571 10.4786 1.58571 10.7974L18.8632 10.7979ZM14.1806 8.74988C14.4859 8.74988 14.7718 8.75613 15.0572 8.7452C15.1237 8.73064 15.1819 8.69063 15.2192 8.63373C15.5495 8.15819 15.8776 7.68056 16.1948 7.19616C16.2169 7.15744 16.2304 7.11438 16.2342 7.06996C16.2381 7.02554 16.2323 6.98081 16.2172 6.93885C16.0386 6.58164 15.9626 6.18193 15.9974 5.7841C16.0099 5.65545 15.9656 5.58253 15.862 5.51221C14.9189 4.87433 13.9777 4.23316 13.0384 3.58868C12.9991 3.556 12.9505 3.53643 12.8995 3.5327C12.8485 3.52896 12.7977 3.54125 12.754 3.56784C12.4102 3.74458 12.0222 3.817 11.6378 3.77619C11.5783 3.76485 11.5167 3.77265 11.4618 3.79848C11.407 3.8243 11.3618 3.86682 11.3326 3.91994C10.2766 5.47975 9.21857 7.03504 8.15845 8.58581C8.12772 8.63009 8.10636 8.67957 8.06313 8.75092C8.50482 8.75092 8.91474 8.74572 9.32413 8.75353C9.46008 8.75613 9.49758 8.70144 9.51477 8.57592C9.74447 6.85708 11.7691 5.98359 13.1775 6.98989C13.7728 7.41492 14.0963 8.00089 14.1806 8.74988ZM17.8376 16.4685C18.4163 16.4685 18.9955 16.4617 19.5741 16.4727C19.7518 16.4758 19.8096 16.4284 19.808 16.2456C19.799 15.3351 19.799 14.4247 19.808 13.5142C19.808 13.3173 19.7413 13.2777 19.5611 13.2788C18.4673 13.2861 17.3735 13.2788 16.2828 13.284C16.1204 13.2812 15.9581 13.2964 15.799 13.3293C15.0255 13.5085 14.4885 14.2434 14.5676 14.996C14.6557 15.8372 15.3078 16.4513 16.1391 16.4633C16.7058 16.4742 17.2714 16.4685 17.8376 16.4685ZM6.93599 8.7254C7.20371 8.78947 7.37716 8.7478 7.52977 8.51029C7.9949 7.7889 8.48972 7.08625 8.97307 6.37476C9.61443 5.43408 10.2554 4.49324 10.8961 3.55222C11.0524 3.31835 11.2607 3.17407 11.5492 3.20584C11.9065 3.24884 12.2685 3.18313 12.5878 3.01729C12.6912 2.95954 12.8088 2.93217 12.927 2.93835C13.0452 2.94452 13.1593 2.98399 13.2561 3.05219C14.2694 3.73764 15.2802 4.42605 16.2886 5.1174C16.3882 5.18161 16.4673 5.27306 16.5165 5.38089C16.5658 5.48873 16.583 5.60843 16.5662 5.72577C16.5252 6.07056 16.591 6.41962 16.7547 6.72582C16.8198 6.83966 16.8501 6.97005 16.842 7.10092C16.8338 7.23179 16.7876 7.35742 16.7089 7.46232C16.5224 7.73664 16.336 8.01113 16.1495 8.2858C16.0526 8.42851 15.9568 8.57227 15.8542 8.7254C16.1203 8.7853 16.2922 8.7452 16.4464 8.50664C16.9511 7.72535 17.4881 6.96489 18.009 6.1961C18.2303 5.87161 18.2038 5.72108 17.8845 5.50336L12.3201 1.71254C11.9883 1.48648 11.8461 1.51565 11.6164 1.85265L7.47351 7.93213C7.30059 8.19152 7.12402 8.44726 6.93599 8.7254ZM10.0742 8.7353H13.5869C13.5504 7.87536 12.7535 7.14355 11.8612 7.13365C10.9372 7.12376 10.1346 7.83681 10.0737 8.7353H10.0742ZM18.3157 8.74415C18.3402 8.48841 18.2793 8.30507 18.097 8.26965C17.8527 8.22225 17.5964 8.23736 17.3454 8.22954C17.3266 8.22954 17.3011 8.25559 17.2876 8.27538C17.1834 8.42174 17.087 8.57019 16.9693 8.74415H18.3157ZM3.36705 8.23632C3.33846 8.23069 3.3096 8.22651 3.28059 8.22381C3.08579 8.22381 2.89099 8.21756 2.6967 8.22381C2.41544 8.23579 2.26908 8.44674 2.34148 8.74884H2.85817C3.34205 8.75093 3.34205 8.75092 3.36914 8.23892L3.36705 8.23632Z" stroke="#19B3B5" stroke-width="0.2" mask="url(#path-1-outside-1_781_7992)"/>
<path d="M16.2247 13.6756C16.0666 13.6751 15.91 13.7057 15.7638 13.7656C15.6175 13.8256 15.4844 13.9138 15.3722 14.0253C15.26 14.1367 15.1708 14.2691 15.1097 14.415C15.0487 14.5609 15.017 14.7174 15.0164 14.8755L15.0164 14.876C15.0185 15.1953 15.1461 15.501 15.3716 15.7271C15.5971 15.9532 15.9024 16.0816 16.2217 16.0846L16.2224 16.0846C16.5417 16.0834 16.8476 15.9558 17.0731 15.7296C17.2985 15.5035 17.4252 15.1973 17.4254 14.878M16.2247 13.6756C16.3828 13.6744 16.5396 13.7047 16.6858 13.7647C16.8322 13.8247 16.9652 13.9133 17.077 14.0252C17.1887 14.1371 17.2771 14.2702 17.3369 14.4167C17.3967 14.5631 17.4268 14.7199 17.4254 14.878M16.2247 13.6756C16.2246 13.6756 16.2245 13.6756 16.2244 13.6756L16.2248 13.7256L16.225 13.6756C16.2249 13.6756 16.2248 13.6756 16.2247 13.6756ZM17.4254 14.878C17.4254 14.8781 17.4254 14.8781 17.4254 14.8782L17.3754 14.8778L17.4254 14.8778C17.4254 14.8779 17.4254 14.8779 17.4254 14.878ZM16.2227 15.4085L16.2225 15.4085C16.1525 15.4088 16.0832 15.3953 16.0185 15.3686C15.9539 15.3419 15.8952 15.3026 15.8458 15.253C15.7964 15.2034 15.7574 15.1445 15.731 15.0797C15.7046 15.015 15.6913 14.9456 15.692 14.8756H15.692V14.8752C15.692 14.7334 15.748 14.5975 15.8479 14.497C15.9476 14.3966 16.0829 14.3398 16.2243 14.3387C16.3659 14.3424 16.5007 14.4004 16.6008 14.5007C16.7008 14.601 16.7584 14.7359 16.7618 14.8774C16.7596 15.0188 16.7019 15.1537 16.6013 15.253C16.5004 15.3526 16.3644 15.4084 16.2227 15.4085Z" fill="#19B3B5" stroke="#19B3B5" stroke-width="0.1"/>
</svg>
