<svg width="144" height="31" viewBox="0 0 144 31" fill="none" xmlns="http://www.w3.org/2000/svg">
<path d="M8.58828 3.15775C6.62411 1.16877 3.43917 1.16877 1.47499 3.15775C-0.491665 5.1442 -0.491665 8.3678 1.47499 10.3543L5.03039 13.9525L8.58828 10.3543C10.5525 8.3678 10.5525 5.14672 8.58828 3.15775Z" fill="#FBDB00"/>
<path d="M15.723 3.15586C13.7589 1.1694 10.5739 1.1694 8.60976 3.15586C6.6431 5.14232 6.6431 8.36591 8.60976 10.3524L12.1652 13.9506L15.723 10.3524C17.6872 8.36591 17.6872 5.14483 15.723 3.15586Z" fill="#7CC14B"/>
<path d="M12.1665 6.77305C10.2023 4.78659 7.01738 4.78659 5.05321 6.77305C3.08903 8.75951 3.08903 11.9806 5.05321 13.967L8.6111 17.5653L12.169 13.967C14.1332 11.9806 14.1332 8.75951 12.169 6.77305" fill="#19B3B5"/>
<path d="M135.056 30.1561C135.056 30.5509 134.738 30.8702 134.347 30.8702C133.957 30.8702 133.639 30.5509 133.639 30.1561C133.639 29.7613 133.957 29.4395 134.347 29.4395C134.738 29.4395 135.056 29.7588 135.056 30.1561Z" fill="#19B3B5"/>
<path d="M136.595 30.1561C136.595 30.5509 136.279 30.8702 135.886 30.8702C135.493 30.8702 135.178 30.5509 135.178 30.1561C135.178 29.7613 135.496 29.4395 135.886 29.4395C136.277 29.4395 136.595 29.7588 136.595 30.1561Z" fill="#19B3B5"/>
<path d="M121.78 25.0398C121.766 24.7607 121.716 24.4942 121.639 24.2427C121.634 24.2251 121.629 24.2075 121.624 24.1899C121.616 24.1648 121.609 24.1396 121.599 24.117C121.537 23.9435 121.465 23.7775 121.375 23.6166C121.099 23.1263 120.716 22.7441 120.224 22.47C119.732 22.1959 119.172 22.0576 118.548 22.0576C118.543 22.0576 118.538 22.0576 118.533 22.0576C118.528 22.0576 118.523 22.0576 118.521 22.0576C117.897 22.0576 117.337 22.1959 116.845 22.47C116.353 22.7441 115.967 23.1263 115.694 23.6166C115.604 23.7775 115.532 23.9435 115.47 24.117C115.46 24.1421 115.453 24.1673 115.443 24.1899C115.435 24.2075 115.433 24.2251 115.428 24.2427C115.353 24.4942 115.304 24.7607 115.289 25.0398C115.284 25.1153 115.281 25.1907 115.281 25.2661V27.1017C115.281 27.323 115.346 27.499 115.473 27.6298C115.599 27.758 115.779 27.8234 116.01 27.8234H121.057C121.288 27.8234 121.467 27.758 121.594 27.6298C121.723 27.499 121.785 27.3255 121.785 27.1017V25.2661C121.785 25.1882 121.783 25.1153 121.778 25.0398M120.594 26.3951H116.465V25.4773C116.465 24.8613 116.636 24.3911 116.984 24.0592C116.987 24.0566 116.989 24.0516 116.994 24.0491L116.999 24.0441C117.017 24.0265 117.034 24.0139 117.054 23.9988C117.405 23.6996 117.894 23.5462 118.526 23.5462H118.536C119.167 23.5462 119.657 23.6971 120.008 23.9988C120.025 24.0139 120.045 24.0265 120.062 24.0441L120.067 24.0491C120.07 24.0516 120.072 24.0566 120.075 24.0592C120.42 24.3911 120.594 24.8638 120.594 25.4773V26.3951Z" fill="#19B3B5"/>
<path d="M131.378 25.4541C131.375 26.4599 131.378 27.4632 131.378 28.469C131.378 28.5067 131.378 28.5444 131.378 28.5821V25.4541H131.375H131.378Z" fill="#19B3B5"/>
<path d="M131.42 28.84C131.39 28.7621 131.38 28.6716 131.378 28.5811V28.7772C131.378 29.1041 131.303 29.3505 131.156 29.5114C131.01 29.6724 130.808 29.7528 130.552 29.7528C130.408 29.7528 130.274 29.7252 130.149 29.6673C130.023 29.612 129.896 29.5265 129.767 29.4134C129.675 29.3228 129.588 29.26 129.508 29.2197C129.428 29.177 129.341 29.1569 129.242 29.1569C129.08 29.1569 128.939 29.2122 128.814 29.3279C128.692 29.441 128.633 29.5894 128.633 29.7729C128.633 29.9992 128.75 30.213 128.978 30.4066C129.16 30.5524 129.391 30.6731 129.675 30.7712C129.958 30.8693 130.236 30.917 130.505 30.917C131.233 30.917 131.793 30.7159 132.183 30.3161C132.382 30.1124 132.526 29.8685 132.623 29.5768C132.255 29.5869 131.872 29.4988 131.679 29.3128C131.554 29.1921 131.48 29.006 131.415 28.8375" fill="#19B3B5"/>
<path d="M132.774 24.904C132.774 24.806 132.762 24.718 132.739 24.6425C132.672 24.4514 132.533 24.3207 132.327 24.2578C131.812 24.0944 131.382 24.4112 131.377 24.9719C131.377 25.1329 131.377 25.2938 131.377 25.4522H131.379V28.5777C131.382 28.6682 131.392 28.7588 131.422 28.8392C131.486 29.0077 131.561 29.1913 131.685 29.312C131.877 29.498 132.26 29.586 132.63 29.576C132.725 29.2893 132.774 28.9599 132.774 28.5853V24.9015V24.904Z" fill="#19B3B5"/>
<path d="M129.071 24.9132C128.82 24.7422 128.509 24.6039 128.138 24.4933L127.064 24.179C126.679 24.0683 126.403 23.9527 126.239 23.8345C126.072 23.7138 125.993 23.5327 125.993 23.2813C125.993 23.0575 126.077 22.884 126.251 22.7583C126.415 22.6401 126.652 22.5772 126.96 22.5722C126.975 22.5722 126.99 22.5697 127.005 22.5697C127.238 22.5697 127.474 22.6049 127.713 22.6753C127.949 22.7457 128.223 22.8639 128.534 23.0323C128.678 23.1153 128.837 23.1556 129.009 23.1556C129.195 23.1556 129.352 23.0877 129.481 22.9469C129.608 22.8086 129.67 22.6401 129.67 22.4465C129.67 22.4389 129.67 22.4314 129.667 22.4238C129.657 22.0995 129.434 21.848 128.989 21.6619C128.7 21.5287 128.372 21.4306 128.007 21.3627C127.974 21.3552 127.939 21.3527 127.905 21.3476C127.576 21.2948 127.263 21.2646 126.962 21.2646C126.214 21.2646 125.592 21.4432 125.098 21.7977C124.948 21.9058 124.827 22.0291 124.722 22.1674C124.481 22.4867 124.359 22.889 124.359 23.3743C124.359 24.4053 124.996 25.1118 126.271 25.4966L127.097 25.7254C127.537 25.8511 127.84 25.9768 128.004 26.1026C128.168 26.2283 128.253 26.3993 128.253 26.6155C128.253 26.6583 128.25 26.696 128.245 26.7312C128.22 26.9474 128.133 27.1109 127.979 27.2265C127.798 27.3598 127.529 27.4302 127.179 27.4302C126.803 27.4302 126.405 27.3321 125.988 27.1335C125.836 27.0631 125.684 26.9826 125.528 26.8871C125.468 26.8519 125.418 26.8217 125.371 26.794C125.319 26.7538 125.269 26.7111 125.222 26.6683C125.023 26.4822 124.829 26.2258 124.633 25.8964C124.563 25.7706 124.496 25.6751 124.429 25.6122C124.362 25.5468 124.287 25.4991 124.205 25.4639C124.006 25.3834 123.815 25.3809 123.628 25.4538C123.444 25.5267 123.31 25.665 123.23 25.8662C123.138 26.0975 123.171 26.3741 123.335 26.696C123.531 27.0556 123.815 27.385 124.178 27.6867C124.282 27.7747 124.391 27.8527 124.503 27.9306C124.566 27.9909 124.64 28.0438 124.73 28.0865C124.792 28.1217 124.859 28.1544 124.924 28.1871C125.088 28.2751 125.257 28.3581 125.436 28.431C126.112 28.7076 126.778 28.8107 127.44 28.7428C127.828 28.7 128.193 28.602 128.534 28.4461C128.541 28.441 128.549 28.4385 128.559 28.436C128.568 28.431 128.578 28.426 128.588 28.4234C128.591 28.4234 128.593 28.4209 128.596 28.4209C128.775 28.3405 128.934 28.2424 129.078 28.1343C129.26 27.9935 129.414 27.8325 129.536 27.6439C129.762 27.2995 129.876 26.8971 129.876 26.4395C129.876 25.7857 129.608 25.2778 129.073 24.9132" fill="#19B3B5"/>
<path d="M140.846 29.0497C140.334 29.0497 139.876 28.9441 139.473 28.7329C139.071 28.5216 138.755 28.2199 138.529 27.8327C138.3 27.4454 138.186 26.9978 138.186 26.4924C138.186 25.987 138.297 25.5218 138.519 25.1296C138.74 24.7373 139.051 24.4356 139.451 24.2193C139.849 24.0056 140.311 23.8975 140.836 23.8975C141.361 23.8975 141.803 24.0056 142.206 24.2193C142.609 24.4356 142.924 24.7373 143.151 25.1296C143.379 25.5218 143.494 25.9744 143.494 26.4924C143.494 27.0104 143.379 27.4429 143.151 27.8327C142.924 28.2199 142.611 28.5216 142.211 28.7329C141.811 28.9441 141.356 29.0497 140.846 29.0497ZM140.826 27.9031C141.214 27.9031 141.532 27.7723 141.786 27.5108C142.039 27.2493 142.164 26.9073 142.164 26.4824C142.164 26.0574 142.042 25.7054 141.798 25.4414C141.554 25.1773 141.244 25.0441 140.861 25.0441C140.478 25.0441 140.145 25.1748 139.891 25.4363C139.638 25.6978 139.513 26.0448 139.513 26.4748C139.513 26.9048 139.635 27.2418 139.884 27.5058C140.13 27.7698 140.446 27.9031 140.824 27.9031" fill="#19B3B5"/>
<path d="M110.626 26.4146C110.626 26.4146 110.604 26.4121 110.594 26.4121V27.8177C110.663 27.8227 110.738 27.8253 110.813 27.8253H116.18V26.4146H110.624H110.626Z" fill="#19B3B5"/>
<path d="M135.165 26.4238C135.165 26.4238 135.143 26.4238 135.133 26.4238V27.8294C135.202 27.8345 135.277 27.837 135.354 27.837H138.818V26.4238H135.165Z" fill="#19B3B5"/>
<path d="M136.176 24.3819C136.059 24.2688 135.915 24.2109 135.741 24.2109C135.567 24.2109 135.42 24.2663 135.301 24.3819C135.181 24.4951 135.122 24.6535 135.122 24.8547V26.4262H131.713V27.8394H135.664C135.89 27.8394 136.059 27.779 136.176 27.6608C136.29 27.5401 136.347 27.3717 136.347 27.1504V24.8572C136.347 24.6535 136.29 24.4976 136.176 24.3844" fill="#19B3B5"/>
<path d="M97.125 25.5184C97.125 25.2494 97.1722 24.9677 97.2692 24.6811C97.3662 24.3944 97.4855 24.1581 97.6297 23.9745C97.8212 23.7407 98.0325 23.625 98.2587 23.625C98.4378 23.625 98.5845 23.6879 98.6988 23.8111C98.8107 23.9343 98.8679 24.0776 98.8679 24.2411C98.8679 24.3416 98.8455 24.4322 98.8057 24.5101C98.7635 24.5906 98.7013 24.6761 98.6143 24.7691C98.5024 24.9024 98.4179 25.0331 98.3607 25.1563C98.306 25.2821 98.2761 25.4204 98.2761 25.5637C98.2761 25.8252 98.3582 26.0264 98.5148 26.1747C98.674 26.3231 98.9151 26.3985 99.2408 26.3985H105.193V24.8269C105.193 24.6258 105.253 24.4674 105.372 24.3542C105.491 24.2411 105.636 24.1832 105.812 24.1832C105.989 24.1832 106.13 24.2385 106.247 24.3542C106.364 24.4674 106.421 24.6258 106.421 24.8269V27.1176C106.421 27.3389 106.362 27.5099 106.247 27.6306C106.133 27.7513 105.961 27.8117 105.738 27.8117H99.4298C98.6864 27.8117 98.117 27.613 97.7217 27.2207C97.3239 26.826 97.1275 26.2577 97.1275 25.5184" fill="#19B3B5"/>
<path d="M113.429 23.547C113.23 23.127 112.937 22.8002 112.554 22.5688C112.171 22.335 111.713 22.2168 111.184 22.2168H109.908C110.438 22.2168 110.895 22.335 111.278 22.5688C111.661 22.8002 111.954 23.1296 112.153 23.547C112.273 23.7984 112.355 24.0775 112.404 24.3768C112.479 24.5628 112.521 24.7715 112.521 25.0104C112.521 25.2493 112.486 25.4505 112.414 25.6315C112.332 26.2299 112.126 26.7152 111.79 27.0824C111.348 27.5677 110.719 27.8116 109.908 27.8116H111.184C111.997 27.8116 112.623 27.5677 113.066 27.0824C113.508 26.5971 113.73 25.9081 113.73 25.018C113.73 24.4572 113.628 23.9644 113.429 23.5445" fill="#19B3B5"/>
<path d="M112.415 25.6334C112.36 25.7767 112.281 25.9075 112.181 26.0181C111.952 26.2746 111.599 26.4028 111.117 26.4028H104.235C103.842 26.4028 103.556 26.5034 103.382 26.7046C103.208 26.9057 103.121 27.2049 103.121 27.5947C103.121 27.6701 103.126 27.743 103.131 27.8109H109.906C110.719 27.8109 111.346 27.567 111.788 27.0817C112.124 26.7146 112.333 26.2293 112.415 25.6309" fill="#19B3B5"/>
<path d="M112.176 24.0133C112.273 24.1189 112.35 24.2421 112.404 24.3754C112.357 24.0736 112.273 23.797 112.153 23.5431C111.954 23.1231 111.661 22.7963 111.278 22.5624C110.895 22.3286 110.438 22.2129 109.908 22.2129H107.768C107.554 22.2129 107.392 22.2758 107.285 22.4015C107.176 22.5272 107.121 22.7007 107.121 22.922C107.121 23.1433 107.176 23.3168 107.285 23.4425C107.395 23.5682 107.554 23.6336 107.768 23.6336H111.119C111.594 23.6336 111.945 23.7593 112.176 24.0108" fill="#19B3B5"/>
<path d="M102.331 22.9334C102.331 23.3307 102.015 23.6501 101.622 23.6501C101.229 23.6501 100.916 23.3307 100.916 22.9334C100.916 22.5361 101.232 22.2168 101.622 22.2168C102.012 22.2168 102.331 22.5387 102.331 22.9334Z" fill="#19B3B5"/>
<path d="M103.868 22.9334C103.868 23.3307 103.552 23.6501 103.159 23.6501C102.766 23.6501 102.453 23.3307 102.453 22.9334C102.453 22.5361 102.769 22.2168 103.159 22.2168C103.55 22.2168 103.868 22.5387 103.868 22.9334Z" fill="#19B3B5"/>
<path d="M28.2604 6.40902C28.1685 7.64868 28.074 8.89084 27.9845 10.133C27.8452 12.0767 27.7184 14.0204 27.5717 15.9667C27.4996 16.9624 26.9178 17.5357 26.0029 17.5407C24.9835 17.5483 24.3744 16.9699 24.4266 15.9289C24.5012 14.4152 24.6429 12.904 24.7548 11.3928C24.8418 10.2462 24.9263 9.09954 25.0133 7.95293C25.1004 6.82643 25.1899 5.69993 25.2819 4.51812C25.0357 4.498 24.812 4.48543 24.5907 4.4628C24.0238 4.40245 23.626 4.0479 23.5216 3.51986C23.3948 2.8862 23.5738 2.36319 24.0909 2.10671C24.4539 1.92566 24.8592 1.81251 25.257 1.73959C25.6449 1.6717 26.0452 1.6717 26.4405 1.67673C29.1406 1.70941 30.2371 2.4009 31.1694 5.01096C31.975 7.26396 32.8775 9.47672 33.785 11.8328C33.8919 11.5738 33.964 11.4179 34.0237 11.262C35.0058 8.66705 35.9779 6.06957 36.9724 3.47711C37.5244 2.03882 38.6258 1.45042 40.125 1.75468C41.1892 1.97092 41.8207 2.65235 41.9226 3.78137C42.134 6.13746 42.318 8.49606 42.5119 10.8547C42.6337 12.3483 42.7431 13.8444 42.8774 15.338C42.9793 16.4872 42.579 17.239 41.7038 17.4804C40.5925 17.7872 39.67 17.2415 39.5283 16.0974C39.3792 14.8754 39.3344 13.6407 39.2524 12.4111C39.1156 10.4046 38.9888 8.39548 38.7626 6.36125C38.6979 6.51715 38.6283 6.67556 38.5686 6.83398C37.5816 9.48175 36.6069 12.132 35.6074 14.7748C35.1425 16.0069 33.964 16.54 32.8129 16.0848C32.149 15.8233 31.7786 15.3003 31.5324 14.6516C30.5503 12.0742 29.5558 9.50186 28.5638 6.92701C28.4966 6.74848 28.4171 6.57247 28.3425 6.39394C28.3151 6.39897 28.2878 6.404 28.258 6.40902" fill="#545554"/>
<path d="M90.3605 2.64118C90.8901 2.90269 91.365 3.24466 91.4844 3.88335C91.7081 5.09785 90.6614 5.98044 89.4729 5.56807C89.0552 5.42222 88.6649 5.19341 88.2596 5.00985C87.2179 4.5346 86.1413 4.28818 84.9926 4.52706C84.2294 4.68547 83.7744 5.12048 83.6898 5.77174C83.6003 6.46574 83.8962 7.07928 84.6222 7.36594C85.5844 7.74563 86.5888 8.01217 87.5734 8.33654C88.1975 8.54273 88.834 8.7288 89.4381 8.98779C90.9597 9.63905 91.8996 10.763 91.9568 12.4855C92.0164 14.2557 91.3327 15.6789 89.8011 16.5917C88.1328 17.5849 86.3079 17.693 84.4407 17.3938C83.2299 17.2027 82.0588 16.8356 81.0146 16.1843C80.6367 15.9479 80.301 15.5431 80.1046 15.1358C79.841 14.5851 80.0151 14.0168 80.4576 13.5843C80.9027 13.1468 81.4472 13.0563 82.0141 13.2876C82.3771 13.436 82.7127 13.6572 83.0608 13.8483C84.2517 14.5096 85.5048 14.9698 86.8847 14.7184C87.3148 14.6404 87.7897 14.4418 88.103 14.145C88.8414 13.436 88.6152 12.2064 87.648 11.7789C86.7505 11.3791 85.7783 11.1578 84.8509 10.8259C84.0304 10.5317 83.1826 10.2777 82.4268 9.86033C80.7883 8.95762 80.0424 7.50675 80.2364 5.62339C80.4278 3.75762 81.5218 2.58083 83.2448 2.0553C84.1771 1.77116 86.3228 1.0495 90.368 2.63867" fill="#545554"/>
<path d="M107.921 3.41154C107.707 3.41154 107.561 3.41909 107.414 3.41154C106.785 3.37634 106.392 3.04191 106.263 2.44346C106.141 1.87769 106.367 1.28427 106.894 1.05545C108.03 0.560093 109.179 0.577695 110.263 1.21638C110.833 1.55081 111.064 2.13669 111.071 2.78794C111.091 4.13823 111.086 5.48852 111.091 6.83881V7.3744C111.536 6.98968 111.894 6.62508 112.304 6.3334C113.58 5.42818 115 5.20187 116.494 5.58659C118.035 5.98388 119.03 7.21599 119.08 8.8479C119.132 10.6131 119.104 12.3833 119.109 14.1485V14.8022C119.341 14.8022 119.53 14.8098 119.721 14.8022C120.233 14.7771 120.624 14.9682 120.845 15.4485C121.054 15.9086 120.934 16.5146 120.579 16.8893C119.704 17.8121 117.105 17.6537 116.377 16.6077C116.188 16.3361 116.094 15.9765 116.019 15.6446C115.957 15.373 115.974 15.0814 115.974 14.7972C115.969 13.3816 115.977 11.9634 115.972 10.5452C115.962 8.68194 114.858 7.80187 113.09 8.345C112.449 8.54113 111.872 8.97866 111.302 9.36086C111.161 9.4539 111.101 9.76318 111.101 9.97189C111.086 11.9558 111.104 13.9398 111.086 15.9237C111.076 17.1332 110.069 17.8247 108.938 17.4324C108.433 17.2589 108.098 16.9094 107.993 16.3763C107.943 16.1173 107.926 15.8458 107.926 15.5817C107.921 11.7471 107.924 7.91251 107.924 4.07789V3.41406L107.921 3.41154Z" fill="#545554"/>
<path d="M132.94 14.8031H133.584C134.101 14.8031 134.464 15.0596 134.676 15.5223C134.877 15.9749 134.755 16.5633 134.377 16.8977C134.196 17.0586 133.977 17.2095 133.748 17.2824C132.791 17.5942 131.811 17.5992 130.911 17.1466C130.484 16.9329 130.168 16.4954 129.753 16.1157C129.76 16.1081 129.661 16.1836 129.564 16.259C127.925 17.5137 126.113 17.8708 124.156 17.2246C122.786 16.772 122.003 15.6605 121.931 14.2298C121.861 12.789 122.503 11.7228 123.845 11.0892C125.208 10.4404 126.652 10.4279 128.107 10.5812C128.649 10.6366 129.178 10.7472 129.807 10.8478C129.778 10.2946 129.81 9.75901 129.706 9.25108C129.546 8.46152 128.878 7.92342 127.928 7.96868C127.09 8.01143 126.257 8.25533 125.434 8.46404C125.041 8.56713 124.686 8.8035 124.305 8.96442C123.579 9.27371 122.908 9.07506 122.59 8.46907C122.232 7.78512 122.376 6.9151 123.057 6.59324C123.942 6.17332 124.885 5.83889 125.837 5.6151C127.13 5.31336 128.455 5.31839 129.76 5.62265C131.744 6.08783 132.881 7.47835 132.923 9.53773C132.955 11.0892 132.933 12.6381 132.935 14.1896V14.8031M127.51 12.4621C126.998 12.5224 126.55 12.54 126.123 12.6356C125.347 12.8116 124.984 13.2642 125.006 13.9306C125.031 14.5793 125.469 15.0093 126.23 15.135C127.155 15.2884 128.03 15.1048 128.865 14.7126C129.815 14.2675 129.81 14.2499 129.79 13.1812C129.785 12.9122 129.701 12.784 129.444 12.7488C128.781 12.6557 128.117 12.5526 127.51 12.4646" fill="#545554"/>
<path d="M48.3013 12.416C48.3957 13.6406 49.1914 14.5332 50.442 14.8123C51.6801 15.0889 52.8611 14.9556 53.9551 14.2516C54.2858 14.0378 54.6363 13.8367 55.0043 13.7059C55.5389 13.5123 56.1182 13.7185 56.419 14.1384C56.7398 14.591 56.7447 15.2071 56.3966 15.6773C56.2524 15.8759 56.0759 16.067 55.872 16.1953C53.3857 17.7593 50.7652 18.0309 48.1098 16.7661C45.8921 15.7075 44.7732 13.2282 45.1561 10.5905C45.8324 5.89588 51.2401 3.68311 54.9422 6.60245C56.327 7.69375 56.9138 9.19239 56.8566 10.945C56.8268 11.8351 56.1505 12.3959 55.1212 12.4084C53.7711 12.426 52.4186 12.4135 51.0685 12.4135H48.3062M48.2888 10.3088H53.6717C53.6443 8.8127 52.702 7.92508 51.2351 7.89742C49.5643 7.86976 48.3709 8.87054 48.2888 10.3088Z" fill="#545554"/>
<path d="M136.201 8.03044C135.825 8.03044 135.53 8.04302 135.234 8.03044C134.552 8.00027 134.088 7.49988 134.073 6.79079C134.058 6.10182 134.528 5.57126 135.211 5.53354C135.552 5.51342 135.895 5.53103 136.293 5.53103C136.293 4.85714 136.288 4.22851 136.293 3.59989C136.3 2.62929 136.885 2.03083 137.824 2.02832C138.734 2.02832 139.306 2.60414 139.334 3.57223C139.351 4.18828 139.349 4.80433 139.356 5.42039C139.356 5.43296 139.368 5.44805 139.406 5.526C140.226 5.526 141.077 5.50839 141.927 5.53103C142.889 5.55114 143.431 6.45385 143.031 7.33392C142.814 7.80414 142.437 8.03044 141.927 8.03296C141.089 8.03547 140.251 8.03296 139.381 8.03296C139.366 8.19389 139.339 8.31961 139.336 8.44785C139.334 10.1477 139.329 11.8475 139.336 13.5448C139.341 14.5883 139.831 15.0006 140.85 14.797C141.168 14.7341 141.479 14.6059 141.788 14.4952C142.427 14.2714 142.976 14.4148 143.279 14.8875C143.625 15.4256 143.543 16.18 143.061 16.625C142.869 16.801 142.638 16.9519 142.397 17.0475C141.191 17.5277 139.945 17.6786 138.67 17.3769C137.133 17.0148 136.238 15.8581 136.206 14.1281C136.174 12.295 136.196 10.462 136.193 8.62889V8.02793" fill="#545554"/>
<path d="M59.6184 8.20225H59.1435C58.4946 8.1947 58.0968 7.90302 57.9327 7.31211C57.7636 6.69606 57.9675 6.10012 58.5294 5.82353C59.4841 5.35583 60.4737 5.33571 61.4284 5.82101C61.9803 6.10264 62.2638 6.60805 62.311 7.23416C62.3359 7.52836 62.3409 7.82256 62.3608 8.23996C62.6516 7.80747 62.8655 7.4655 63.1066 7.14616C63.7034 6.35409 64.3572 5.63242 65.4189 5.49664C66.1822 5.40109 66.7292 5.66511 66.9778 6.25602C67.2488 6.89973 67.0648 7.66163 66.5004 8.09664C66.2667 8.27768 65.9982 8.41347 65.7297 8.53165C64.9465 8.87613 64.1633 9.23068 63.3602 9.52488C62.9251 9.68581 62.771 9.90205 62.7784 10.3823C62.8108 12.2003 62.8033 14.0158 62.7884 15.8313C62.776 17.1237 61.8088 17.8303 60.6179 17.438C59.964 17.2243 59.6258 16.7164 59.6233 15.8891C59.6159 13.5229 59.6209 11.1568 59.6209 8.79064V8.20225H59.6184Z" fill="#545554"/>
<path d="M69.603 8.20476C69.3444 8.18967 69.133 8.18212 68.9217 8.16704C68.3673 8.12178 68.0018 7.83764 67.865 7.34479C67.7159 6.80418 67.8775 6.27362 68.2952 5.95679C69.1529 5.30302 71.3061 5.34576 72.0768 6.09006C72.3553 6.36162 72.5219 6.77652 72.6685 7.15118C72.768 7.40263 72.768 7.70688 72.768 7.98851C72.7755 10.6011 72.7804 13.2187 72.768 15.8338C72.7605 17.091 71.7934 17.8077 70.6372 17.4405C69.9635 17.2268 69.6079 16.7264 69.6054 15.9193C69.5955 14.1063 69.6005 12.2883 69.6005 10.4728V8.20224" fill="#545554"/>
<path d="M97.0784 12.416C97.1729 13.6406 97.9685 14.5332 99.2216 14.8123C100.46 15.0889 101.638 14.9556 102.732 14.2516C103.063 14.0378 103.413 13.8367 103.781 13.7059C104.316 13.5123 104.898 13.7185 105.196 14.1384C105.517 14.591 105.522 15.2071 105.174 15.6773C105.03 15.8759 104.851 16.067 104.647 16.1953C102.16 17.7593 99.5423 18.0309 96.8845 16.7661C94.6667 15.7075 93.5504 13.2282 93.9308 10.5905C94.607 5.89588 100.015 3.68311 103.717 6.60245C105.104 7.69375 105.688 9.19239 105.631 10.945C105.604 11.8351 104.925 12.3959 103.896 12.4084C102.546 12.426 101.193 12.4135 99.8432 12.4135H97.0784M97.061 10.3088H102.444C102.416 8.8127 101.474 7.92508 100.007 7.89742C98.334 7.86976 97.1406 8.87054 97.0585 10.3088" fill="#545554"/>
<path d="M72.7768 2.49833C72.7768 3.48653 71.9837 4.28615 71.0066 4.28615C70.0295 4.28615 69.2363 3.48653 69.2363 2.49833C69.2363 1.51013 70.0295 0.708008 71.0066 0.708008C71.9837 0.708008 72.7768 1.51013 72.7768 2.49833Z" fill="#545554"/>
</svg>
