<svg width="190" height="40" viewBox="0 0 190 40" fill="none" xmlns="http://www.w3.org/2000/svg">
<path d="M11.3707 3.24326C8.76999 0.609668 4.55281 0.609668 1.95206 3.24326C-0.651988 5.87353 -0.651988 10.1419 1.95206 12.7721L6.65976 17.5366L11.3707 12.7721C13.9715 10.1419 13.9715 5.87686 11.3707 3.24326Z" fill="#FBDB00"/>
<path d="M20.819 3.24369C18.2182 0.61343 14.0011 0.61343 11.4003 3.24369C8.79625 5.87396 8.79625 10.1423 11.4003 12.7726L16.108 17.537L20.819 12.7726C23.4197 10.1423 23.4197 5.87729 20.819 3.24369Z" fill="#7CC14B"/>
<path d="M16.1085 8.03129C13.5078 5.40103 9.29058 5.40103 6.68982 8.03129C4.08907 10.6616 4.08907 14.9266 6.68982 17.5568L11.4008 22.3213L16.1118 17.5568C18.7126 14.9266 18.7126 10.6616 16.1118 8.03129" fill="#19B3B5"/>
<path d="M178.827 38.9919C178.827 39.5146 178.405 39.9374 177.888 39.9374C177.372 39.9374 176.95 39.5146 176.95 38.9919C176.95 38.4691 177.372 38.043 177.888 38.043C178.405 38.043 178.827 38.4658 178.827 38.9919Z" fill="#19B3B5"/>
<path d="M180.864 38.9919C180.864 39.5146 180.446 39.9374 179.926 39.9374C179.405 39.9374 178.987 39.5146 178.987 38.9919C178.987 38.4691 179.409 38.043 179.926 38.043C180.442 38.043 180.864 38.4658 180.864 38.9919Z" fill="#19B3B5"/>
<path d="M161.247 32.2197C161.227 31.8502 161.162 31.4972 161.059 31.1643C161.053 31.141 161.046 31.1177 161.04 31.0944C161.03 31.0611 161.02 31.0278 161.007 30.9978C160.925 30.7681 160.829 30.5483 160.711 30.3353C160.345 29.686 159.838 29.1799 159.186 28.817C158.534 28.4541 157.794 28.271 156.967 28.271C156.961 28.271 156.954 28.271 156.948 28.271C156.941 28.271 156.934 28.271 156.931 28.271C156.105 28.271 155.364 28.4541 154.712 28.817C154.06 29.1799 153.55 29.686 153.188 30.3353C153.07 30.5483 152.974 30.7681 152.892 30.9978C152.879 31.0311 152.869 31.0644 152.856 31.0944C152.846 31.1177 152.842 31.141 152.836 31.1643C152.737 31.4972 152.671 31.8502 152.651 32.2197C152.645 32.3196 152.642 32.4195 152.642 32.5194V34.9499C152.642 35.2429 152.727 35.4759 152.895 35.6491C153.063 35.8189 153.3 35.9054 153.606 35.9054H160.289C160.595 35.9054 160.832 35.8189 161 35.6491C161.171 35.4759 161.254 35.2462 161.254 34.9499V32.5194C161.254 32.4162 161.25 32.3196 161.244 32.2197M159.677 34.0143H154.209V32.799C154.209 31.9833 154.436 31.3607 154.897 30.9212C154.9 30.9179 154.903 30.9112 154.91 30.9079L154.916 30.9013C154.939 30.878 154.963 30.8613 154.989 30.8413C155.453 30.4451 156.102 30.242 156.938 30.242H156.951C157.787 30.242 158.436 30.4418 158.9 30.8413C158.923 30.8613 158.949 30.878 158.972 30.9013L158.979 30.9079C158.982 30.9112 158.985 30.9179 158.989 30.9212C159.446 31.3607 159.677 31.9867 159.677 32.799V34.0143Z" fill="#19B3B5"/>
<path d="M173.954 32.7656C173.951 34.0974 173.954 35.4259 173.954 36.7576C173.954 36.8076 173.954 36.8575 173.954 36.9075V32.7656H173.951H173.954Z" fill="#19B3B5"/>
<path d="M174.014 37.2506C173.974 37.1474 173.961 37.0276 173.958 36.9077V37.1674C173.958 37.6002 173.859 37.9265 173.665 38.1396C173.47 38.3527 173.204 38.4592 172.865 38.4592C172.674 38.4592 172.496 38.4226 172.331 38.346C172.164 38.2728 171.996 38.1596 171.824 38.0098C171.703 37.8899 171.587 37.8067 171.482 37.7534C171.377 37.6968 171.261 37.6702 171.13 37.6702C170.916 37.6702 170.728 37.7434 170.564 37.8966C170.402 38.0464 170.323 38.2428 170.323 38.4859C170.323 38.7855 170.478 39.0685 170.781 39.3249C171.021 39.518 171.327 39.6778 171.703 39.8077C172.078 39.9375 172.447 40.0008 172.802 40.0008C173.767 40.0008 174.508 39.7344 175.024 39.205C175.288 38.9353 175.479 38.6124 175.607 38.2262C175.12 38.2395 174.613 38.123 174.356 37.8766C174.191 37.7168 174.093 37.4704 174.007 37.2473" fill="#19B3B5"/>
<path d="M175.804 32.04C175.804 31.9101 175.788 31.7936 175.758 31.6937C175.669 31.4407 175.485 31.2676 175.212 31.1843C174.53 30.9679 173.961 31.3874 173.954 32.1299C173.954 32.343 173.954 32.5561 173.954 32.7658H173.957V36.9043C173.961 37.0242 173.974 37.144 174.013 37.2506C174.099 37.4737 174.198 37.7167 174.362 37.8765C174.616 38.1229 175.123 38.2394 175.613 38.2261C175.738 37.8466 175.804 37.4104 175.804 36.9143V32.0367V32.04Z" fill="#19B3B5"/>
<path d="M170.899 32.0464C170.566 31.82 170.155 31.6368 169.664 31.4903L168.242 31.0742C167.732 30.9277 167.366 30.7745 167.149 30.618C166.929 30.4582 166.823 30.2185 166.823 29.8856C166.823 29.5892 166.935 29.3595 167.166 29.193C167.383 29.0365 167.696 28.9533 168.104 28.9466C168.124 28.9466 168.143 28.9433 168.163 28.9433C168.473 28.9433 168.785 28.9899 169.101 29.0832C169.414 29.1764 169.776 29.3329 170.188 29.5559C170.379 29.6658 170.589 29.7191 170.817 29.7191C171.063 29.7191 171.271 29.6292 171.442 29.4427C171.61 29.2596 171.692 29.0365 171.692 28.7802C171.692 28.7702 171.692 28.7602 171.689 28.7502C171.676 28.3207 171.38 27.9878 170.79 27.7414C170.408 27.5649 169.974 27.4351 169.49 27.3452C169.447 27.3352 169.401 27.3319 169.355 27.3252C168.92 27.2553 168.506 27.2153 168.107 27.2153C167.116 27.2153 166.293 27.4517 165.638 27.9212C165.441 28.0643 165.279 28.2275 165.141 28.4106C164.822 28.8334 164.66 29.3662 164.66 30.0087C164.66 31.3738 165.503 32.3094 167.192 32.8188L168.285 33.1218C168.868 33.2882 169.269 33.4547 169.487 33.6212C169.704 33.7877 169.816 34.0141 169.816 34.3004C169.816 34.357 169.812 34.4069 169.806 34.4536C169.773 34.7399 169.658 34.9563 169.454 35.1095C169.213 35.2859 168.858 35.3791 168.394 35.3791C167.896 35.3791 167.37 35.2493 166.817 34.9863C166.616 34.893 166.415 34.7865 166.208 34.66C166.129 34.6134 166.063 34.5734 166 34.5368C165.931 34.4835 165.865 34.4269 165.803 34.3703C165.539 34.1239 165.283 33.7843 165.022 33.3482C164.93 33.1817 164.841 33.0552 164.753 32.9719C164.664 32.8854 164.565 32.8221 164.456 32.7755C164.193 32.669 163.939 32.6656 163.692 32.7622C163.449 32.8587 163.271 33.0419 163.166 33.3082C163.044 33.6145 163.087 33.9808 163.304 34.4069C163.564 34.8831 163.939 35.3192 164.42 35.7187C164.558 35.8353 164.703 35.9385 164.851 36.0417C164.934 36.1216 165.032 36.1915 165.151 36.2481C165.233 36.2947 165.322 36.338 165.408 36.3813C165.625 36.4978 165.849 36.6077 166.086 36.7043C166.981 37.0705 167.864 37.207 168.739 37.1171C169.253 37.0605 169.737 36.9307 170.188 36.7242C170.198 36.7176 170.208 36.7143 170.221 36.7109C170.234 36.7043 170.247 36.6976 170.26 36.6943C170.263 36.6943 170.267 36.6909 170.27 36.6909C170.507 36.5844 170.718 36.4546 170.909 36.3114C171.149 36.1249 171.353 35.9119 171.514 35.6621C171.814 35.206 171.966 34.6733 171.966 34.0673C171.966 33.2017 171.61 32.5291 170.902 32.0464" fill="#19B3B5"/>
<path d="M186.494 37.5237C185.816 37.5237 185.21 37.3839 184.677 37.1042C184.144 36.8245 183.726 36.425 183.426 35.9122C183.123 35.3995 182.972 34.8069 182.972 34.1377C182.972 33.4684 183.12 32.8525 183.413 32.3331C183.706 31.8137 184.117 31.4142 184.647 31.1278C185.174 30.8448 185.786 30.7017 186.481 30.7017C187.176 30.7017 187.762 30.8448 188.295 31.1278C188.828 31.4142 189.246 31.8137 189.546 32.3331C189.849 32.8525 190 33.4518 190 34.1377C190 34.8235 189.849 35.3962 189.546 35.9122C189.246 36.425 188.832 36.8245 188.302 37.1042C187.772 37.3839 187.169 37.5237 186.494 37.5237ZM186.468 36.0055C186.981 36.0055 187.403 35.8323 187.739 35.4861C188.074 35.1398 188.239 34.687 188.239 34.1243C188.239 33.5617 188.078 33.0955 187.755 32.7459C187.432 32.3963 187.021 32.2199 186.514 32.2199C186.007 32.2199 185.566 32.393 185.23 32.7393C184.894 33.0855 184.73 33.545 184.73 34.1143C184.73 34.6837 184.891 35.1298 185.22 35.4794C185.546 35.829 185.964 36.0055 186.465 36.0055" fill="#19B3B5"/>
<path d="M146.478 34.0375C146.478 34.0375 146.449 34.0342 146.436 34.0342V35.8953C146.528 35.902 146.626 35.9053 146.725 35.9053H153.833V34.0375H146.475H146.478Z" fill="#19B3B5"/>
<path d="M178.972 34.0474C178.972 34.0474 178.942 34.0474 178.929 34.0474V35.9085C179.021 35.9152 179.12 35.9185 179.222 35.9185H183.808V34.0474H178.972Z" fill="#19B3B5"/>
<path d="M180.312 31.3407C180.157 31.1908 179.966 31.1143 179.736 31.1143C179.505 31.1143 179.311 31.1875 179.153 31.3407C178.995 31.4905 178.916 31.7002 178.916 31.9666V34.0475H174.402V35.9187H179.633C179.933 35.9187 180.157 35.8387 180.312 35.6823C180.463 35.5224 180.539 35.2994 180.539 35.0064V31.9699C180.539 31.7002 180.463 31.4938 180.312 31.344" fill="#19B3B5"/>
<path d="M128.603 32.8523C128.603 32.496 128.665 32.1231 128.793 31.7436C128.922 31.364 129.08 31.0511 129.271 30.808C129.524 30.4984 129.804 30.3452 130.104 30.3452C130.341 30.3452 130.535 30.4285 130.686 30.5916C130.835 30.7547 130.91 30.9445 130.91 31.1609C130.91 31.2941 130.881 31.414 130.828 31.5172C130.772 31.6237 130.69 31.7369 130.575 31.8601C130.426 32.0366 130.314 32.2097 130.239 32.3729C130.166 32.5393 130.127 32.7224 130.127 32.9122C130.127 33.2585 130.235 33.5248 130.443 33.7213C130.654 33.9177 130.973 34.0176 131.404 34.0176H139.285V31.9367C139.285 31.6703 139.364 31.4606 139.522 31.3108C139.68 31.1609 139.871 31.0844 140.105 31.0844C140.339 31.0844 140.526 31.1576 140.681 31.3108C140.836 31.4606 140.912 31.6703 140.912 31.9367V34.9698C140.912 35.2628 140.833 35.4892 140.681 35.649C140.53 35.8088 140.303 35.8887 140.006 35.8887H131.654C130.67 35.8887 129.916 35.6257 129.393 35.1063C128.866 34.5836 128.606 33.8311 128.606 32.8523" fill="#19B3B5"/>
<path d="M150.189 30.2388C149.926 29.6828 149.537 29.25 149.03 28.9437C148.523 28.634 147.917 28.4775 147.216 28.4775H145.527C146.229 28.4775 146.834 28.634 147.341 28.9437C147.848 29.25 148.237 29.6861 148.5 30.2388C148.658 30.5718 148.767 30.9413 148.833 31.3375C148.931 31.5839 148.987 31.8603 148.987 32.1766C148.987 32.4929 148.941 32.7592 148.846 32.9989C148.737 33.7913 148.464 34.4339 148.019 34.92C147.433 35.5626 146.601 35.8856 145.527 35.8856H147.216C148.293 35.8856 149.122 35.5626 149.708 34.92C150.294 34.2774 150.587 33.3652 150.587 32.1865C150.587 31.4441 150.452 30.7915 150.189 30.2355" fill="#19B3B5"/>
<path d="M148.845 32.9989C148.772 33.1887 148.667 33.3618 148.535 33.5083C148.233 33.8479 147.765 34.0177 147.126 34.0177H138.014C137.494 34.0177 137.115 34.1509 136.885 34.4173C136.654 34.6836 136.539 35.0798 136.539 35.5959C136.539 35.6958 136.546 35.7923 136.552 35.8822H145.523C146.6 35.8822 147.429 35.5593 148.015 34.9167C148.46 34.4306 148.736 33.788 148.845 32.9956" fill="#19B3B5"/>
<path d="M148.53 30.858C148.658 30.9978 148.76 31.161 148.833 31.3374C148.77 30.9379 148.658 30.5717 148.5 30.2354C148.237 29.6794 147.848 29.2466 147.341 28.9369C146.834 28.6273 146.229 28.4741 145.527 28.4741H142.693C142.41 28.4741 142.196 28.5574 142.054 28.7238C141.909 28.8903 141.837 29.12 141.837 29.413C141.837 29.706 141.909 29.9358 142.054 30.1022C142.199 30.2687 142.41 30.3553 142.693 30.3553H147.131C147.759 30.3553 148.224 30.5217 148.53 30.8547" fill="#19B3B5"/>
<path d="M135.492 29.4264C135.492 29.9525 135.074 30.3753 134.554 30.3753C134.034 30.3753 133.619 29.9525 133.619 29.4264C133.619 28.9004 134.037 28.4775 134.554 28.4775C135.071 28.4775 135.492 28.9037 135.492 29.4264Z" fill="#19B3B5"/>
<path d="M137.53 29.4264C137.53 29.9525 137.112 30.3753 136.592 30.3753C136.072 30.3753 135.657 29.9525 135.657 29.4264C135.657 28.9004 136.075 28.4775 136.592 28.4775C137.109 28.4775 137.53 28.9037 137.53 29.4264Z" fill="#19B3B5"/>
<path d="M37.4174 7.54835C37.2956 9.18977 37.1705 10.8345 37.052 12.4793C36.8676 15.0529 36.6997 17.6266 36.5055 20.2036C36.41 21.5221 35.6397 22.2812 34.4282 22.2878C33.0784 22.2978 32.2718 21.532 32.341 20.1536C32.4397 18.1493 32.6274 16.1483 32.7755 14.1473C32.8908 12.6291 33.0027 11.1109 33.1179 9.59263C33.2331 8.10104 33.3517 6.60945 33.4735 5.04461C33.1475 5.01797 32.8513 5.00132 32.5583 4.97136C31.8077 4.89145 31.2809 4.422 31.1427 3.72282C30.9748 2.88379 31.2118 2.19127 31.8965 1.85167C32.3772 1.61195 32.9138 1.46212 33.4405 1.36557C33.9541 1.27567 34.4841 1.27567 35.0076 1.28233C38.5828 1.32561 40.0346 2.24121 41.2691 5.69718C42.3358 8.68037 43.5308 11.6103 44.7324 14.73C44.874 14.387 44.9695 14.1806 45.0485 13.9742C46.3488 10.5382 47.6361 7.09888 48.9529 3.66622C49.6837 1.76177 51.1421 0.982679 53.1273 1.38554C54.5363 1.67188 55.3725 2.57416 55.5075 4.06908C55.7873 7.18877 56.0309 10.3118 56.2877 13.4348C56.449 15.4125 56.5938 17.3935 56.7716 19.3712C56.9066 20.8928 56.3766 21.8883 55.2177 22.2079C53.7462 22.6141 52.5248 21.8916 52.3372 20.3767C52.1396 18.7586 52.0804 17.1238 51.9717 15.4957C51.7907 12.8388 51.6228 10.1786 51.3232 7.48509C51.2376 7.69152 51.1454 7.90127 51.0664 8.11103C49.7595 11.6169 48.469 15.1262 47.1455 18.6254C46.5299 20.2569 44.9695 20.9627 43.4452 20.3601C42.5662 20.0138 42.0757 19.3213 41.7498 18.4623C40.4494 15.0496 39.1326 11.6436 37.819 8.23422C37.7301 7.99783 37.6248 7.76477 37.526 7.52838C37.4898 7.53504 37.4536 7.54169 37.4141 7.54835" fill="#545554"/>
<path d="M119.645 2.55435C120.346 2.90062 120.975 3.35342 121.133 4.1991C121.429 5.80723 120.043 6.97586 118.469 6.42983C117.916 6.23672 117.399 5.93374 116.863 5.6907C115.483 5.06143 114.058 4.73514 112.537 5.05144C111.526 5.2612 110.924 5.83719 110.812 6.69952C110.693 7.61845 111.085 8.43083 112.046 8.81039C113.321 9.31314 114.651 9.66606 115.954 10.0956C116.781 10.3686 117.623 10.615 118.423 10.9579C120.438 11.8202 121.682 13.3085 121.758 15.5891C121.837 17.9331 120.932 19.8175 118.904 21.0261C116.695 22.3413 114.279 22.4844 111.806 22.0882C110.203 21.8352 108.652 21.3491 107.27 20.4868C106.769 20.1738 106.325 19.6378 106.065 19.0984C105.716 18.3692 105.946 17.6168 106.532 17.0441C107.122 16.4648 107.842 16.3449 108.593 16.6512C109.074 16.8477 109.518 17.1407 109.979 17.3937C111.556 18.2694 113.215 18.8786 115.042 18.5457C115.612 18.4425 116.241 18.1795 116.655 17.7866C117.633 16.8477 117.334 15.2196 116.053 14.6536C114.865 14.1242 113.577 13.8312 112.349 13.3917C111.263 13.0022 110.14 12.6659 109.14 12.1132C106.97 10.9179 105.982 8.99684 106.239 6.50308C106.493 4.03263 107.941 2.47445 110.223 1.77859C111.457 1.40236 114.298 0.446813 119.655 2.55102" fill="#545554"/>
<path d="M142.897 3.57974C142.614 3.57974 142.419 3.58973 142.225 3.57974C141.392 3.53313 140.872 3.09031 140.701 2.2979C140.54 1.54878 140.839 0.763028 141.537 0.460048C143.042 -0.195853 144.563 -0.172547 145.998 0.673133C146.752 1.11595 147.058 1.89171 147.068 2.75404C147.094 4.54195 147.088 6.32987 147.094 8.11778V8.82695C147.683 8.31755 148.157 7.83478 148.701 7.44856C150.39 6.24996 152.269 5.95031 154.248 6.45972C156.289 6.98577 157.606 8.6172 157.672 10.778C157.741 13.1153 157.705 15.4592 157.711 17.7965V18.6621C158.017 18.6621 158.268 18.6721 158.521 18.6621C159.199 18.6289 159.716 18.8819 160.009 19.5178C160.286 20.1271 160.128 20.9295 159.657 21.4256C158.498 22.6475 155.058 22.4377 154.093 21.0527C153.843 20.6931 153.718 20.217 153.619 19.7775C153.537 19.4179 153.56 19.0317 153.56 18.6555C153.553 16.781 153.563 14.9032 153.557 13.0254C153.543 10.5583 152.082 9.39296 149.741 10.1121C148.892 10.3718 148.128 10.9511 147.374 11.4572C147.186 11.5804 147.107 11.9899 147.107 12.2663C147.088 14.8932 147.111 17.5201 147.088 20.1471C147.074 21.7485 145.741 22.6641 144.243 22.1448C143.575 21.915 143.13 21.4522 142.992 20.7464C142.926 20.4034 142.903 20.0439 142.903 19.6943C142.897 14.6169 142.9 9.53946 142.9 4.46205V3.58307L142.897 3.57974Z" fill="#545554"/>
<path d="M176.022 18.6619H176.874C177.559 18.6619 178.04 19.0015 178.32 19.6142C178.586 20.2135 178.425 20.9926 177.925 21.4354C177.684 21.6485 177.394 21.8482 177.092 21.9448C175.824 22.3576 174.527 22.3643 173.335 21.765C172.769 21.482 172.351 20.9027 171.801 20.3999C171.811 20.3899 171.679 20.4898 171.551 20.5897C169.382 22.2511 166.982 22.7239 164.391 21.8682C162.577 21.2689 161.54 19.7973 161.444 17.9028C161.352 15.995 162.201 14.5834 163.979 13.7443C165.783 12.8853 167.696 12.8687 169.622 13.0718C170.34 13.145 171.041 13.2915 171.874 13.4247C171.834 12.6922 171.877 11.9831 171.739 11.3105C171.528 10.2651 170.642 9.55257 169.385 9.6125C168.275 9.6691 167.173 9.99205 166.083 10.2684C165.563 10.4049 165.092 10.7179 164.588 10.931C163.627 11.3405 162.738 11.0775 162.317 10.2751C161.843 9.36945 162.034 8.21746 162.936 7.79129C164.108 7.23527 165.355 6.79245 166.616 6.49613C168.328 6.0966 170.083 6.10326 171.811 6.50612C174.438 7.12207 175.943 8.96325 175.999 11.6901C176.041 13.7443 176.012 15.7953 176.015 17.8496V18.6619M168.832 15.5622C168.154 15.6421 167.561 15.6654 166.995 15.792C165.968 16.025 165.487 16.6243 165.517 17.5066C165.55 18.3656 166.129 18.935 167.136 19.1014C168.361 19.3045 169.52 19.0615 170.626 18.5421C171.883 17.9528 171.877 17.9295 171.851 16.5144C171.844 16.1582 171.732 15.9884 171.393 15.9418C170.514 15.8186 169.635 15.6821 168.832 15.5656" fill="#545554"/>
<path d="M63.955 15.5025C64.0801 17.1239 65.1335 18.3059 66.7895 18.6755C68.4289 19.0417 69.9927 18.8652 71.4412 17.933C71.879 17.65 72.3432 17.3836 72.8305 17.2105C73.5383 16.9541 74.3053 17.2271 74.7037 17.7832C75.1283 18.3825 75.1349 19.1982 74.674 19.8208C74.4831 20.0838 74.2493 20.3368 73.9794 20.5067C70.6873 22.5776 67.2174 22.9371 63.7015 21.2624C60.7649 19.8607 59.2835 16.5779 59.7905 13.0853C60.6859 6.86923 67.8462 3.93931 72.7482 7.8048C74.5818 9.24978 75.3588 11.2341 75.2831 13.5548C75.2436 14.7334 74.3481 15.4759 72.9852 15.4925C71.1976 15.5158 69.4067 15.4992 67.6191 15.4992H63.9615M63.9385 12.7124H71.0659C71.0297 10.7314 69.782 9.55609 67.8396 9.51947C65.6274 9.48284 64.0471 10.808 63.9385 12.7124Z" fill="#545554"/>
<path d="M180.341 9.69593C179.844 9.69593 179.452 9.71258 179.06 9.69593C178.158 9.65598 177.543 8.99342 177.523 8.05451C177.503 7.14224 178.125 6.43973 179.031 6.38979C179.482 6.36315 179.936 6.38646 180.463 6.38646C180.463 5.49417 180.456 4.6618 180.463 3.82944C180.473 2.54427 181.246 1.75186 182.491 1.74854C183.696 1.74854 184.453 2.51098 184.489 3.79282C184.512 4.60853 184.509 5.42425 184.519 6.23996C184.519 6.25661 184.535 6.27659 184.584 6.3798C185.671 6.3798 186.797 6.35649 187.923 6.38646C189.197 6.41309 189.914 7.60837 189.384 8.77367C189.098 9.39628 188.598 9.69593 187.923 9.69926C186.813 9.70259 185.704 9.69926 184.552 9.69926C184.532 9.91234 184.496 10.0788 184.492 10.2486C184.489 12.4993 184.482 14.75 184.492 16.9974C184.499 18.3791 185.147 18.9252 186.497 18.6555C186.919 18.5722 187.33 18.4024 187.738 18.2559C188.584 17.9596 189.312 18.1494 189.714 18.7753C190.171 19.4878 190.063 20.4867 189.424 21.076C189.17 21.309 188.864 21.5088 188.545 21.6353C186.948 22.2713 185.299 22.471 183.61 22.0715C181.575 21.5921 180.39 20.0605 180.348 17.7698C180.305 15.3427 180.334 12.9155 180.331 10.4883V9.6926" fill="#545554"/>
<path d="M78.9412 9.92244H78.3124C77.4532 9.91245 76.9264 9.52624 76.7092 8.74381C76.4853 7.9281 76.7552 7.13902 77.4993 6.77278C78.7634 6.1535 80.0737 6.12687 81.3378 6.76945C82.0687 7.14235 82.444 7.81157 82.5065 8.6406C82.5395 9.03015 82.546 9.41969 82.5724 9.97238C82.9576 9.39972 83.2407 8.94691 83.56 8.52407C84.3501 7.47529 85.2159 6.51974 86.6217 6.33995C87.6323 6.21343 88.3566 6.56303 88.6858 7.34545C89.0446 8.19778 88.801 9.20661 88.0537 9.7826C87.7443 10.0223 87.3887 10.2021 87.0332 10.3586C85.9962 10.8147 84.9591 11.2842 83.8958 11.6737C83.3197 11.8868 83.1156 12.1731 83.1255 12.8091C83.1683 15.2163 83.1584 17.6201 83.1386 20.024C83.1222 21.7353 81.8415 22.6709 80.2646 22.1515C79.3988 21.8685 78.9511 21.196 78.9478 20.1006C78.9379 16.9676 78.9445 13.8345 78.9445 10.7015V9.92244H78.9412Z" fill="#545554"/>
<path d="M92.1585 9.92557C91.8161 9.90559 91.5363 9.89561 91.2564 9.87563C90.5223 9.8157 90.0384 9.43947 89.8573 8.7869C89.6598 8.07107 89.8738 7.36855 90.4268 6.94904C91.5626 6.08339 94.4136 6.13999 95.4341 7.1255C95.8028 7.48508 96.0234 8.03444 96.2176 8.53053C96.3493 8.86348 96.3493 9.26634 96.3493 9.63924C96.3592 13.0985 96.3658 16.5645 96.3493 20.0271C96.3394 21.6918 95.0588 22.6407 93.528 22.1546C92.6358 21.8716 92.1651 21.2091 92.1618 20.1403C92.1486 17.7398 92.1552 15.3326 92.1552 12.9287V9.92224" fill="#545554"/>
<path d="M128.539 15.5025C128.664 17.1239 129.718 18.3059 131.377 18.6755C133.017 19.0417 134.577 18.8652 136.026 17.933C136.463 17.65 136.928 17.3836 137.415 17.2105C138.123 16.9541 138.893 17.2271 139.288 17.7832C139.713 18.3825 139.719 19.1982 139.258 19.8208C139.067 20.0838 138.83 20.3368 138.56 20.5067C135.268 22.5776 131.802 22.9371 128.283 21.2624C125.346 19.8607 123.868 16.5779 124.372 13.0853C125.267 6.86923 132.427 3.93931 137.329 7.8048C139.166 9.24978 139.94 11.2341 139.864 13.5548C139.828 14.7334 138.929 15.4759 137.566 15.4925C135.779 15.5158 133.988 15.4992 132.2 15.4992H128.539M128.516 12.7124H135.644C135.607 10.7314 134.36 9.55609 132.417 9.51947C130.202 9.48284 128.622 10.808 128.513 12.7124" fill="#545554"/>
<path d="M96.3627 2.37106C96.3627 3.67953 95.3126 4.73829 94.0188 4.73829C92.725 4.73829 91.6748 3.67953 91.6748 2.37106C91.6748 1.06258 92.725 0.000488281 94.0188 0.000488281C95.3126 0.000488281 96.3627 1.06258 96.3627 2.37106Z" fill="#545554"/>
</svg>
