<svg width="153" height="33" viewBox="0 0 153 33" fill="none" xmlns="http://www.w3.org/2000/svg">
<path d="M9.69699 3.39461C7.61638 1.28773 4.24264 1.28773 2.16204 3.39461C0.0787999 5.49882 0.0787999 8.91351 2.16204 11.0177L5.92819 14.8293L9.69699 11.0177C11.7776 8.91351 11.7776 5.50149 9.69699 3.39461" fill="#FBDB00"/>
<path d="M17.2566 3.39652C15.176 1.29231 11.8022 1.29231 9.72161 3.39652C7.63837 5.50073 7.63837 8.91541 9.72161 11.0196L13.4878 14.8312L17.2566 11.0196C19.3372 8.91541 19.3372 5.50339 17.2566 3.39652" fill="#7CC14B"/>
<path d="M13.486 7.2266C11.4054 5.12238 8.03168 5.12238 5.95108 7.2266C3.87047 9.33081 3.87047 12.7428 5.95108 14.847L9.71987 18.6586L13.4887 14.847C15.5693 12.7428 15.5693 9.33081 13.4887 7.2266" fill="#19B3B5"/>
<path d="M143.66 31.9935C143.66 32.4117 143.323 32.7499 142.91 32.7499C142.496 32.7499 142.159 32.4117 142.159 31.9935C142.159 31.5753 142.496 31.2344 142.91 31.2344C143.323 31.2344 143.66 31.5726 143.66 31.9935Z" fill="#19B3B5"/>
<path d="M145.291 31.9935C145.291 32.4117 144.957 32.7499 144.541 32.7499C144.125 32.7499 143.79 32.4117 143.79 31.9935C143.79 31.5753 144.127 31.2344 144.541 31.2344C144.954 31.2344 145.291 31.5726 145.291 31.9935Z" fill="#19B3B5"/>
<path d="M129.596 26.5769C129.581 26.2813 129.528 25.999 129.446 25.7326C129.441 25.714 129.436 25.6953 129.43 25.6767C129.423 25.65 129.415 25.6234 129.404 25.5994C129.338 25.4156 129.262 25.2398 129.167 25.0694C128.875 24.55 128.469 24.1451 127.948 23.8548C127.426 23.5645 126.834 23.418 126.173 23.418C126.167 23.418 126.162 23.418 126.157 23.418C126.151 23.418 126.146 23.418 126.144 23.418C125.483 23.418 124.89 23.5645 124.368 23.8548C123.847 24.1451 123.439 24.55 123.149 25.0694C123.054 25.2398 122.978 25.4156 122.912 25.5994C122.902 25.6261 122.894 25.6527 122.883 25.6767C122.875 25.6953 122.873 25.714 122.867 25.7326C122.788 25.999 122.736 26.2813 122.72 26.5769C122.715 26.6569 122.712 26.7368 122.712 26.8167V28.7611C122.712 28.9955 122.78 29.1819 122.915 29.3204C123.049 29.4563 123.239 29.5255 123.484 29.5255H128.83C129.075 29.5255 129.264 29.4563 129.399 29.3204C129.536 29.1819 129.602 28.9981 129.602 28.7611V26.8167C129.602 26.7341 129.599 26.6569 129.594 26.5769M128.34 28.0126H123.966V27.0404C123.966 26.3878 124.147 25.8898 124.516 25.5382C124.519 25.5355 124.521 25.5302 124.527 25.5275L124.532 25.5222C124.55 25.5035 124.569 25.4902 124.59 25.4742C124.961 25.1573 125.48 24.9948 126.149 24.9948H126.159C126.828 24.9948 127.347 25.1546 127.719 25.4742C127.737 25.4902 127.758 25.5035 127.776 25.5222L127.782 25.5275C127.784 25.5302 127.787 25.5355 127.79 25.5382C128.156 25.8898 128.34 26.3905 128.34 27.0404V28.0126Z" fill="#19B3B5"/>
<path d="M139.764 27.0137C139.762 28.0791 139.764 29.1419 139.764 30.2073C139.764 30.2472 139.764 30.2872 139.764 30.3271V27.0137H139.762H139.764Z" fill="#19B3B5"/>
<path d="M139.812 30.6025C139.78 30.5199 139.77 30.424 139.767 30.3281V30.5359C139.767 30.8821 139.688 31.1432 139.533 31.3136C139.377 31.4841 139.164 31.5693 138.893 31.5693C138.74 31.5693 138.598 31.54 138.466 31.4788C138.332 31.4202 138.197 31.3296 138.06 31.2098C137.963 31.1139 137.871 31.0473 137.786 31.0047C137.702 30.9594 137.61 30.9381 137.505 30.9381C137.333 30.9381 137.183 30.9967 137.052 31.1192C136.923 31.2391 136.859 31.3962 136.859 31.5907C136.859 31.8304 136.983 32.0568 137.225 32.2619C137.418 32.4164 137.663 32.5442 137.963 32.6481C138.263 32.752 138.558 32.8026 138.843 32.8026C139.614 32.8026 140.207 32.5895 140.62 32.166C140.831 31.9502 140.984 31.6919 141.086 31.3829C140.697 31.3935 140.291 31.3003 140.086 31.1032C139.954 30.9754 139.875 30.7783 139.806 30.5998" fill="#19B3B5"/>
<path d="M141.246 26.4332C141.246 26.3293 141.233 26.2361 141.209 26.1562C141.138 25.9537 140.99 25.8152 140.772 25.7486C140.227 25.5755 139.771 25.9111 139.766 26.5051C139.766 26.6756 139.766 26.846 139.766 27.0138H139.768V30.3246C139.771 30.4205 139.781 30.5164 139.813 30.6016C139.882 30.7801 139.961 30.9745 140.092 31.1024C140.295 31.2995 140.701 31.3927 141.093 31.3821C141.193 31.0784 141.246 30.7295 141.246 30.3326V26.4305V26.4332Z" fill="#19B3B5"/>
<path d="M137.321 26.4371C137.055 26.256 136.726 26.1095 136.334 25.9923L135.196 25.6593C134.788 25.5421 134.495 25.4196 134.321 25.2944C134.145 25.1666 134.061 24.9748 134.061 24.7084C134.061 24.4714 134.15 24.2876 134.335 24.1544C134.508 24.0292 134.759 23.9626 135.085 23.9573C135.101 23.9573 135.117 23.9547 135.133 23.9547C135.38 23.9547 135.63 23.9919 135.883 24.0665C136.133 24.1411 136.423 24.2663 136.752 24.4447C136.905 24.5326 137.074 24.5753 137.255 24.5753C137.453 24.5753 137.619 24.5033 137.756 24.3542C137.89 24.2077 137.956 24.0292 137.956 23.8241C137.956 23.8161 137.956 23.8082 137.953 23.8002C137.943 23.4566 137.706 23.1902 137.234 22.9931C136.929 22.8519 136.581 22.7481 136.194 22.6761C136.16 22.6682 136.123 22.6655 136.086 22.6602C135.738 22.6042 135.407 22.5723 135.088 22.5723C134.295 22.5723 133.637 22.7614 133.113 23.1369C132.955 23.2515 132.826 23.382 132.715 23.5285C132.459 23.8668 132.33 24.2929 132.33 24.807C132.33 25.8991 133.005 26.6475 134.356 27.055L135.23 27.2974C135.696 27.4306 136.018 27.5638 136.191 27.697C136.365 27.8301 136.455 28.0113 136.455 28.2403C136.455 28.2856 136.452 28.3256 136.447 28.3628C136.421 28.5919 136.328 28.765 136.165 28.8876C135.973 29.0287 135.688 29.1033 135.317 29.1033C134.919 29.1033 134.498 28.9994 134.055 28.789C133.895 28.7144 133.734 28.6292 133.568 28.528C133.505 28.4907 133.452 28.4587 133.402 28.4294C133.347 28.3868 133.294 28.3415 133.244 28.2963C133.034 28.0992 132.828 27.8275 132.62 27.4785C132.546 27.3454 132.475 27.2441 132.404 27.1776C132.333 27.1083 132.254 27.0577 132.167 27.0204C131.956 26.9352 131.754 26.9325 131.556 27.0098C131.361 27.087 131.219 27.2335 131.135 27.4466C131.037 27.6916 131.072 27.9846 131.245 28.3256C131.453 28.7064 131.754 29.0554 132.138 29.375C132.249 29.4682 132.365 29.5508 132.483 29.6334C132.549 29.6973 132.628 29.7532 132.723 29.7985C132.789 29.8358 132.86 29.8704 132.928 29.905C133.102 29.9983 133.281 30.0862 133.471 30.1634C134.187 30.4564 134.893 30.5656 135.594 30.4937C136.004 30.4484 136.392 30.3445 136.752 30.1794C136.76 30.1741 136.768 30.1714 136.779 30.1687C136.789 30.1634 136.8 30.1581 136.81 30.1554C136.813 30.1554 136.816 30.1528 136.818 30.1528C137.008 30.0675 137.176 29.9636 137.329 29.8491C137.521 29.6999 137.685 29.5295 137.814 29.3297C138.053 28.9648 138.175 28.5386 138.175 28.0539C138.175 27.3613 137.89 26.8233 137.324 26.4371" fill="#19B3B5"/>
<path d="M149.796 30.819C149.253 30.819 148.768 30.7071 148.342 30.4834C147.915 30.2596 147.581 29.94 147.341 29.5298C147.099 29.1196 146.978 28.6455 146.978 28.1101C146.978 27.5747 147.096 27.082 147.33 26.6665C147.565 26.251 147.894 25.9313 148.318 25.7023C148.739 25.4759 149.229 25.3613 149.785 25.3613C150.341 25.3613 150.81 25.4759 151.236 25.7023C151.663 25.9313 151.997 26.251 152.237 26.6665C152.479 27.082 152.6 27.5614 152.6 28.1101C152.6 28.6588 152.479 29.1169 152.237 29.5298C151.997 29.94 151.665 30.2596 151.241 30.4834C150.817 30.7071 150.335 30.819 149.796 30.819M149.775 29.6044C150.185 29.6044 150.522 29.4659 150.791 29.1889C151.06 28.9119 151.191 28.5496 151.191 28.0995C151.191 27.6493 151.062 27.2764 150.804 26.9968C150.546 26.7171 150.217 26.5759 149.811 26.5759C149.406 26.5759 149.053 26.7144 148.784 26.9914C148.516 27.2684 148.384 27.636 148.384 28.0915C148.384 28.5469 148.513 28.9039 148.776 29.1835C149.037 29.4632 149.372 29.6044 149.772 29.6044" fill="#19B3B5"/>
<path d="M117.784 28.032C117.784 28.032 117.761 28.0293 117.75 28.0293V29.5182C117.824 29.5236 117.903 29.5262 117.982 29.5262H123.668V28.032H117.782H117.784Z" fill="#19B3B5"/>
<path d="M143.777 28.0391C143.777 28.0391 143.754 28.0391 143.743 28.0391V29.528C143.817 29.5333 143.896 29.536 143.978 29.536H147.646V28.0391H143.777V28.0391Z" fill="#19B3B5"/>
<path d="M144.849 25.8745C144.725 25.7546 144.572 25.6934 144.388 25.6934C144.203 25.6934 144.048 25.752 143.921 25.8745C143.795 25.9943 143.732 26.1621 143.732 26.3752V28.04H140.121V29.5369H144.306C144.546 29.5369 144.725 29.473 144.849 29.3478C144.97 29.2199 145.03 29.0415 145.03 28.8071V26.3779C145.03 26.1621 144.97 25.997 144.849 25.8771" fill="#19B3B5"/>
<path d="M103.48 27.0838C103.48 26.7988 103.531 26.5005 103.633 26.1968C103.736 25.8932 103.862 25.6428 104.015 25.4484C104.218 25.2006 104.442 25.0781 104.681 25.0781C104.871 25.0781 105.026 25.1447 105.148 25.2752C105.266 25.4057 105.327 25.5576 105.327 25.7307C105.327 25.8372 105.303 25.9331 105.261 26.0157C105.216 26.1009 105.15 26.1915 105.058 26.29C104.94 26.4312 104.85 26.5697 104.789 26.7002C104.731 26.8334 104.7 26.9799 104.7 27.1317C104.7 27.4087 104.787 27.6218 104.953 27.779C105.121 27.9361 105.377 28.016 105.722 28.016H112.027V26.3513C112.027 26.1382 112.09 25.9704 112.216 25.8506C112.343 25.7307 112.496 25.6694 112.683 25.6694C112.87 25.6694 113.02 25.728 113.143 25.8506C113.267 25.9704 113.328 26.1382 113.328 26.3513V28.7778C113.328 29.0122 113.265 29.1933 113.143 29.3212C113.022 29.449 112.841 29.513 112.604 29.513H105.922C105.134 29.513 104.531 29.3025 104.113 28.887C103.691 28.4688 103.483 27.8669 103.483 27.0838" fill="#19B3B5"/>
<path d="M120.751 24.9911C120.54 24.5462 120.229 24.2 119.824 23.9549C119.418 23.7072 118.934 23.582 118.373 23.582H117.021C117.582 23.582 118.067 23.7072 118.473 23.9549C118.878 24.2 119.189 24.5489 119.4 24.9911C119.526 25.2574 119.613 25.5531 119.666 25.87C119.745 26.0671 119.789 26.2882 119.789 26.5412C119.789 26.7943 119.753 27.0074 119.676 27.1991C119.589 27.8331 119.371 28.3471 119.015 28.736C118.546 29.2501 117.88 29.5085 117.021 29.5085H118.373C119.234 29.5085 119.897 29.2501 120.366 28.736C120.835 28.222 121.069 27.4921 121.069 26.5492C121.069 25.9553 120.961 25.4332 120.751 24.9884" fill="#19B3B5"/>
<path d="M119.676 27.1999C119.618 27.3518 119.534 27.4903 119.428 27.6075C119.186 27.8791 118.812 28.015 118.301 28.015H111.011C110.595 28.015 110.292 28.1215 110.108 28.3346C109.923 28.5477 109.831 28.8647 109.831 29.2775C109.831 29.3574 109.836 29.4347 109.842 29.5066H117.018C117.88 29.5066 118.543 29.2482 119.012 28.7341C119.368 28.3453 119.589 27.8312 119.676 27.1973" fill="#19B3B5"/>
<path d="M119.423 25.4872C119.525 25.5991 119.607 25.7296 119.665 25.8707C119.615 25.5511 119.525 25.2581 119.399 24.9891C119.188 24.5443 118.877 24.198 118.472 23.9503C118.066 23.7026 117.582 23.5801 117.021 23.5801H114.753C114.527 23.5801 114.355 23.6467 114.242 23.7798C114.126 23.913 114.068 24.0968 114.068 24.3312C114.068 24.5656 114.126 24.7494 114.242 24.8826C114.358 25.0157 114.527 25.085 114.753 25.085H118.303C118.806 25.085 119.178 25.2182 119.423 25.4845" fill="#19B3B5"/>
<path d="M108.995 24.3411C108.995 24.762 108.66 25.1003 108.244 25.1003C107.828 25.1003 107.496 24.762 107.496 24.3411C107.496 23.9203 107.831 23.582 108.244 23.582C108.658 23.582 108.995 23.923 108.995 24.3411Z" fill="#19B3B5"/>
<path d="M110.624 24.3411C110.624 24.762 110.289 25.1003 109.873 25.1003C109.457 25.1003 109.125 24.762 109.125 24.3411C109.125 23.9203 109.459 23.582 109.873 23.582C110.286 23.582 110.624 23.923 110.624 24.3411Z" fill="#19B3B5"/>
<path d="M30.5359 6.83907C30.4384 8.15221 30.3383 9.46801 30.2435 10.7838C30.096 12.8427 29.9617 14.9017 29.8063 16.9633C29.73 18.018 29.1137 18.6253 28.1445 18.6306C27.0647 18.6386 26.4194 18.026 26.4747 16.9233C26.5537 15.3198 26.7039 13.719 26.8224 12.1182C26.9146 10.9037 27.0041 9.68908 27.0963 8.4745C27.1885 7.28122 27.2833 6.08795 27.3807 4.83608C27.12 4.81477 26.883 4.80145 26.6486 4.77748C26.0481 4.71355 25.6267 4.33799 25.5161 3.77864C25.3818 3.10743 25.5714 2.55341 26.1192 2.28172C26.5037 2.08995 26.933 1.97009 27.3544 1.89284C27.7652 1.82093 28.1893 1.82093 28.608 1.82625C31.4682 1.86088 32.6296 2.59336 33.6173 5.35813C34.4706 7.74468 35.4266 10.0886 36.3879 12.5844C36.5011 12.31 36.5775 12.1449 36.6407 11.9797C37.681 9.23095 38.7108 6.47949 39.7643 3.73336C40.3489 2.20981 41.5157 1.58653 43.1038 1.90882C44.231 2.13789 44.8999 2.85972 45.0079 4.05565C45.2318 6.55141 45.4267 9.04983 45.6321 11.5482C45.7611 13.1304 45.877 14.7152 46.0192 16.2974C46.1272 17.5146 45.7032 18.311 44.7762 18.5667C43.5989 18.8917 42.6218 18.3137 42.4717 17.1018C42.3137 15.8073 42.2663 14.4995 42.1793 13.197C42.0345 11.0715 41.9002 8.94328 41.6605 6.78846C41.592 6.95361 41.5183 7.12141 41.4551 7.28921C40.4095 10.0939 39.3771 12.9013 38.3184 15.7007C37.8259 17.0059 36.5775 17.5706 35.3581 17.0884C34.6549 16.8114 34.2625 16.2574 34.0018 15.5702C32.9615 12.8401 31.908 10.1152 30.8572 7.38777C30.7861 7.19865 30.7018 7.0122 30.6228 6.82309C30.5938 6.82842 30.5648 6.83375 30.5332 6.83907" fill="#545554"/>
<path d="M96.3167 2.84387C96.8777 3.12088 97.3807 3.48313 97.5071 4.15967C97.7441 5.44617 96.6354 6.38108 95.3765 5.94426C94.934 5.78977 94.5205 5.54739 94.0912 5.35295C92.9877 4.84953 91.8473 4.58851 90.6306 4.84154C89.822 5.00935 89.3401 5.47014 89.2505 6.16001C89.1557 6.89515 89.4691 7.54506 90.2382 7.8487C91.2574 8.2509 92.3214 8.53324 93.3643 8.87684C94.0254 9.09525 94.6996 9.29235 95.3396 9.5667C96.9514 10.2566 97.9469 11.4472 98.0075 13.2717C98.0707 15.1469 97.3464 16.6544 95.7241 17.6213C93.9569 18.6734 92.0238 18.7879 90.0459 18.471C88.7633 18.2685 87.5228 17.8797 86.4167 17.1898C86.0164 16.9394 85.6608 16.5106 85.4528 16.0791C85.1736 15.4958 85.358 14.8938 85.8268 14.4357C86.2982 13.9722 86.8749 13.8763 87.4754 14.1214C87.8599 14.2785 88.2155 14.5129 88.5842 14.7154C89.8457 15.4159 91.1731 15.9033 92.6348 15.6369C93.0904 15.5544 93.5935 15.344 93.9253 15.0297C94.7075 14.2785 94.4678 12.9761 93.4433 12.5232C92.4926 12.0997 91.4628 11.8653 90.4805 11.5138C89.6113 11.2021 88.7133 10.9331 87.9126 10.491C86.177 9.53473 85.3869 7.99786 85.5923 6.00286C85.7951 4.02649 86.954 2.77995 88.7791 2.22326C89.7667 1.92228 92.0396 1.15784 96.3246 2.84121" fill="#545554"/>
<path d="M114.919 3.66457C114.692 3.66457 114.537 3.67257 114.381 3.66457C113.715 3.62728 113.299 3.27303 113.162 2.6391C113.033 2.0398 113.273 1.4112 113.831 1.16882C115.035 0.644099 116.251 0.662744 117.4 1.33929C118.003 1.69354 118.248 2.31415 118.256 3.00401C118.277 4.43434 118.271 5.86467 118.277 7.29501V7.86234C118.748 7.45482 119.127 7.0686 119.562 6.75963C120.913 5.80075 122.417 5.56103 124 5.96855C125.633 6.3894 126.686 7.69454 126.739 9.42319C126.794 11.293 126.765 13.1682 126.77 15.038V15.7305C127.015 15.7305 127.215 15.7385 127.418 15.7305C127.961 15.7039 128.374 15.9063 128.609 16.415C128.83 16.9025 128.703 17.5444 128.327 17.9413C127.4 18.9188 124.648 18.751 123.876 17.6429C123.676 17.3553 123.576 16.9744 123.497 16.6228C123.431 16.3351 123.449 16.0262 123.449 15.7252C123.444 14.2256 123.452 12.7233 123.447 11.2211C123.436 9.24739 122.267 8.31515 120.394 8.89048C119.715 9.09824 119.104 9.56169 118.501 9.96656C118.35 10.0651 118.287 10.3927 118.287 10.6138C118.271 12.7153 118.29 14.8169 118.271 16.9184C118.261 18.1996 117.194 18.9321 115.996 18.5166C115.461 18.3328 115.106 17.9626 114.995 17.3979C114.942 17.1235 114.924 16.8359 114.924 16.5562C114.919 12.4943 114.921 8.43235 114.921 4.37042V3.66724L114.919 3.66457Z" fill="#545554"/>
<path d="M141.417 15.7311H142.099C142.647 15.7311 143.032 16.0028 143.256 16.4929C143.469 16.9723 143.34 17.5956 142.94 17.9499C142.747 18.1203 142.516 18.2801 142.273 18.3574C141.259 18.6877 140.222 18.693 139.268 18.2136C138.815 17.9871 138.481 17.5237 138.041 17.1215C138.049 17.1135 137.944 17.1934 137.841 17.2733C136.105 18.6024 134.185 18.9807 132.113 18.2961C130.661 17.8167 129.832 16.6394 129.755 15.1238C129.682 13.5976 130.361 12.4683 131.783 11.797C133.227 11.1098 134.757 11.0965 136.297 11.259C136.872 11.3176 137.433 11.4348 138.099 11.5413C138.067 10.9554 138.102 10.388 137.991 9.84998C137.822 9.01362 137.114 8.44362 136.108 8.49156C135.22 8.53684 134.338 8.79521 133.466 9.01628C133.05 9.12549 132.674 9.37586 132.271 9.54633C131.502 9.87395 130.79 9.66353 130.453 9.02161C130.074 8.29712 130.227 7.37553 130.948 7.03459C131.886 6.58978 132.884 6.23553 133.893 5.99847C135.262 5.67884 136.666 5.68417 138.049 6.00646C140.151 6.49922 141.354 7.97217 141.399 10.1536C141.433 11.797 141.409 13.4378 141.412 15.0812V15.7311M135.665 13.2513C135.123 13.3153 134.649 13.3339 134.196 13.4351C133.374 13.6216 132.99 14.101 133.013 14.8069C133.04 15.4941 133.503 15.9495 134.309 16.0827C135.289 16.2452 136.216 16.0507 137.101 15.6352C138.107 15.1638 138.102 15.1451 138.08 14.0131C138.075 13.7281 137.986 13.5923 137.714 13.555C137.011 13.4564 136.308 13.3472 135.665 13.254" fill="#545554"/>
<path d="M51.7655 13.2028C51.8656 14.4999 52.7084 15.4455 54.0331 15.7411C55.3447 16.0341 56.5957 15.893 57.7545 15.1472C58.1048 14.9208 58.4761 14.7077 58.8659 14.5692C59.4322 14.3641 60.0458 14.5825 60.3645 15.0273C60.7042 15.5068 60.7095 16.1593 60.3408 16.6574C60.188 16.8678 60.001 17.0703 59.7851 17.2061C57.1514 18.8628 54.3755 19.1505 51.5627 17.8107C49.2135 16.6894 48.0283 14.0631 48.4339 11.269C49.1503 6.29616 54.8785 3.95223 58.8001 7.04462C60.267 8.20061 60.8886 9.78809 60.828 11.6446C60.7964 12.5875 60.0801 13.1815 58.9897 13.1948C57.5596 13.2134 56.1269 13.2001 54.6968 13.2001H51.7708M51.7524 10.9707H57.4543C57.4253 9.38589 56.4271 8.44565 54.8733 8.41636C53.1034 8.38706 51.8393 9.44715 51.7524 10.9707Z" fill="#545554"/>
<path d="M144.873 8.55714C144.475 8.55714 144.162 8.57045 143.848 8.55714C143.127 8.52517 142.634 7.99512 142.619 7.244C142.603 6.51418 143.1 5.95217 143.825 5.91222C144.186 5.89091 144.549 5.90956 144.97 5.90956C144.97 5.19572 144.965 4.52983 144.97 3.86394C144.978 2.83581 145.597 2.20188 146.593 2.19922C147.557 2.19922 148.162 2.80917 148.191 3.83464C148.21 4.48722 148.207 5.13979 148.215 5.79236C148.215 5.80568 148.228 5.82166 148.268 5.90423C149.137 5.90423 150.038 5.88558 150.938 5.90956C151.958 5.93087 152.532 6.88708 152.108 7.81933C151.879 8.31741 151.478 8.55713 150.938 8.5598C150.051 8.56246 149.163 8.5598 148.241 8.5598C148.226 8.73027 148.197 8.86344 148.194 8.99929C148.191 10.7999 148.186 12.6004 148.194 14.3983C148.199 15.5037 148.718 15.9405 149.798 15.7248C150.135 15.6582 150.464 15.5223 150.791 15.4051C151.468 15.1681 152.05 15.3199 152.371 15.8207C152.737 16.3907 152.65 17.1897 152.139 17.6612C151.936 17.8476 151.692 18.0074 151.436 18.1087C150.159 18.6174 148.839 18.7772 147.488 18.4576C145.861 18.074 144.912 16.8488 144.878 15.0163C144.844 13.0745 144.868 11.1328 144.865 9.19106V8.55447" fill="#545554"/>
<path d="M63.753 8.73756H63.2499C62.5625 8.72957 62.1411 8.4206 61.9673 7.79466C61.7882 7.14209 62.0042 6.51083 62.5994 6.21783C63.6107 5.72241 64.6589 5.7011 65.6703 6.21517C66.255 6.51349 66.5552 7.04886 66.6052 7.71209C66.6316 8.02373 66.6368 8.33536 66.6579 8.77751C66.966 8.31938 67.1925 7.95714 67.448 7.61887C68.0801 6.77985 68.7727 6.0154 69.8973 5.87157C70.7059 5.77036 71.2853 6.05003 71.5486 6.67597C71.8357 7.35784 71.6408 8.1649 71.043 8.62569C70.7954 8.81747 70.511 8.9613 70.2265 9.08649C69.3969 9.4514 68.5673 9.82696 67.7166 10.1386C67.2557 10.3091 67.0925 10.5381 67.1004 11.0469C67.1346 12.9726 67.1267 14.8957 67.1109 16.8188C67.0977 18.1879 66.0732 18.9363 64.8117 18.5208C64.119 18.2944 63.7609 17.7564 63.7582 16.8801C63.7503 14.3737 63.7556 11.8672 63.7556 9.36083V8.73756H63.753Z" fill="#545554"/>
<path d="M74.3264 8.74124C74.0525 8.72526 73.8286 8.71727 73.6048 8.70128C73.0175 8.65334 72.6303 8.35236 72.4855 7.8303C72.3274 7.25763 72.4986 6.69562 72.9411 6.36002C73.8497 5.66749 76.1305 5.71277 76.9469 6.50118C77.2419 6.78885 77.4183 7.22834 77.5737 7.62521C77.6791 7.89156 77.6791 8.21385 77.6791 8.51217C77.687 11.2796 77.6922 14.0524 77.6791 16.8225C77.6712 18.1543 76.6467 18.9134 75.422 18.5245C74.7083 18.2981 74.3317 17.768 74.329 16.913C74.3185 14.9926 74.3238 13.0669 74.3238 11.1438V8.73857" fill="#545554"/>
<path d="M103.433 13.2028C103.533 14.4999 104.376 15.4455 105.704 15.7411C107.015 16.0341 108.264 15.893 109.422 15.1472C109.773 14.9208 110.144 14.7077 110.534 14.5692C111.1 14.3641 111.716 14.5825 112.032 15.0273C112.372 15.5068 112.377 16.1593 112.009 16.6574C111.856 16.8678 111.666 17.0703 111.45 17.2061C108.817 18.8628 106.043 19.1505 103.228 17.8107C100.879 16.6894 99.6962 14.0631 100.099 11.269C100.816 6.29616 106.544 3.95223 110.465 7.04462C111.935 8.20061 112.554 9.78809 112.493 11.6446C112.464 12.5875 111.745 13.1815 110.655 13.1948C109.225 13.2134 107.792 13.2001 106.362 13.2001H103.433M103.415 10.9707H109.117C109.088 9.38589 108.09 8.44565 106.536 8.41636C104.763 8.38706 103.499 9.44715 103.412 10.9707" fill="#545554"/>
<path d="M77.6908 2.69724C77.6908 3.74401 76.8506 4.59103 75.8156 4.59103C74.7806 4.59103 73.9404 3.74401 73.9404 2.69724C73.9404 1.65046 74.7806 0.800781 75.8156 0.800781C76.8506 0.800781 77.6908 1.65046 77.6908 2.69724Z" fill="#545554"/>
</svg>
