<svg id="Group_15770" data-name="Group 15770" xmlns="http://www.w3.org/2000/svg" xmlns:xlink="http://www.w3.org/1999/xlink" width="16.211" height="18.582" viewBox="0 0 16.211 18.582">
  <defs>
    <clipPath id="clip-path">
      <rect id="Rectangle_16426" data-name="Rectangle 16426" width="16.211" height="18.582" fill="#fff"/>
    </clipPath>
  </defs>
  <g id="Group_16202" data-name="Group 16202" clip-path="url(#clip-path)">
    <path id="Path_41243" data-name="Path 41243" d="M5.705,16.179H.934a1.315,1.315,0,0,1-.592-.116.508.508,0,0,1-.321-.65,3.151,3.151,0,0,1,.414-1.02c.245-.4.49-.8.759-1.177a5.147,5.147,0,0,0,.514-.871,8.464,8.464,0,0,0,.569-1.953,18.1,18.1,0,0,0,.23-2.91,5.528,5.528,0,0,1,3.059-5.05,4.967,4.967,0,0,1,1.56-.526c.078-.013.106-.04.1-.122-.005-.3,0-.609,0-.913A.875.875,0,0,1,8.971.747,1.2,1.2,0,0,1,8.98.93c0,.288,0,.575,0,.863,0,.065.015.093.085.106a5.536,5.536,0,0,1,3.713,2.4,5.644,5.644,0,0,1,.957,3.368,11.864,11.864,0,0,0,.693,4.435,5.26,5.26,0,0,0,.581,1.1c.31.456.6.926.881,1.4a2.586,2.586,0,0,1,.309.855.479.479,0,0,1-.253.565,1.208,1.208,0,0,1-.642.157h-2.73c-.646,0-1.292,0-1.939,0-.084,0-.107.026-.111.108a2.4,2.4,0,0,1-4.795.136c-.007-.077-.014-.154-.022-.242" transform="translate(0 0.001)" fill="#fff"/>
  </g>
</svg>
