<svg width="35" height="38" viewBox="0 0 35 38" fill="none" xmlns="http://www.w3.org/2000/svg">
<g id="pending-verification 1" clip-path="url(#clip0_301_22230)">
<path id="Vector" d="M1.63672 17.8399C1.63672 13.0976 1.63672 8.35527 1.63672 3.61294C1.63672 2.23018 2.39924 1.46198 3.78193 1.46198C11.4071 1.46198 19.0323 1.48247 26.6575 1.4415C28.0402 1.43126 28.9653 2.27115 28.9552 3.78706C28.9145 10.0043 28.945 16.2114 28.9348 22.4286C28.9348 22.7359 29.006 22.8896 29.3314 22.992C32.5034 24.047 34.425 27.0686 34.1505 30.5306C33.9065 33.6034 31.4156 36.2972 28.2638 36.8093C25.7526 37.2088 23.6074 36.4303 21.8689 34.5662C21.6655 34.3511 21.4723 34.2691 21.1877 34.2691C15.3824 34.2794 9.5669 34.2794 3.7616 34.2691C2.64324 34.2691 1.87056 33.6751 1.68755 32.6918C1.64689 32.4972 1.65705 32.2821 1.65705 32.0772C1.63672 27.3246 1.63672 22.5823 1.63672 17.8399ZM27.8775 22.6335C27.8775 22.4594 27.8775 22.3262 27.8775 22.1931C27.8775 16.0168 27.8775 9.84046 27.8775 3.67439C27.8775 2.81401 27.603 2.53746 26.7693 2.53746C19.1238 2.53746 11.4681 2.53746 3.8226 2.53746C2.96858 2.53746 2.70424 2.80377 2.70424 3.65391C2.70424 13.1283 2.70424 22.6028 2.70424 32.067C2.70424 32.9171 2.97875 33.1834 3.8226 33.1834C9.3534 33.1834 14.8842 33.1834 20.415 33.1834C20.5472 33.1834 20.6793 33.1834 20.8522 33.1834C19.6321 30.592 19.6626 28.1031 21.2283 25.7677C22.794 23.4427 25.0613 22.4594 27.8775 22.6335ZM33.1134 29.7419C33.0931 26.3721 30.409 23.6885 27.0743 23.6987C23.7396 23.709 21.0555 26.4233 21.0555 29.7829C21.0657 33.1527 23.7904 35.8567 27.1353 35.8362C30.4497 35.8158 33.1338 33.0707 33.1134 29.7419Z" fill="#19B3B5"/>
<path id="Vector_2" d="M15.3003 7.83194C12.7687 7.83194 10.227 7.83194 7.69543 7.83194C7.57343 7.83194 7.44126 7.84219 7.31925 7.81146C7.04475 7.73976 6.87191 7.56563 6.89224 7.2686C6.90241 6.97156 7.08542 6.80768 7.37009 6.76671C7.48192 6.74622 7.59376 6.75647 7.71576 6.75647C12.7687 6.75647 17.8318 6.75647 22.8848 6.75647C22.9763 6.75647 23.0576 6.75647 23.1491 6.75647C23.4846 6.76671 23.6676 6.95108 23.6981 7.27884C23.7286 7.56563 23.4948 7.79097 23.1796 7.83194C23.0678 7.84219 22.9559 7.83194 22.8339 7.83194C20.3227 7.83194 17.8115 7.83194 15.3003 7.83194Z" fill="#19B3B5"/>
<path id="Vector_3" d="M15.2809 12.0407C17.8125 12.0407 20.3542 12.0407 22.8858 12.0407C23.0078 12.0407 23.1704 11.9998 23.2619 12.0612C23.4348 12.1841 23.6483 12.3582 23.6788 12.5324C23.6991 12.686 23.5263 12.9113 23.3839 13.0445C23.2924 13.1264 23.0993 13.1162 22.9468 13.1162C17.8531 13.1162 12.7595 13.1162 7.65574 13.1162C7.53374 13.1162 7.40157 13.1162 7.27957 13.0855C7.00506 13.0035 6.85256 12.7987 6.89323 12.5119C6.92373 12.2353 7.09656 12.0817 7.37107 12.051C7.48291 12.0407 7.59474 12.051 7.71674 12.051C10.2381 12.0407 12.7595 12.0407 15.2809 12.0407Z" fill="#19B3B5"/>
<path id="Vector_4" d="M15.2708 17.3356C17.8023 17.3356 20.344 17.3356 22.8756 17.3356C22.9976 17.3356 23.1603 17.2947 23.2518 17.3561C23.4246 17.479 23.6381 17.6429 23.6686 17.817C23.6991 17.9707 23.5263 18.2063 23.3738 18.3292C23.2518 18.4214 23.0383 18.4111 22.8654 18.4111C17.8125 18.4111 12.7494 18.4111 7.69641 18.4111C7.55407 18.4111 7.41174 18.4111 7.27957 18.3804C7.00506 18.2985 6.85256 18.1038 6.89323 17.8068C6.92373 17.5303 7.09656 17.3766 7.37107 17.3459C7.48291 17.3356 7.59474 17.3459 7.71674 17.3459C10.228 17.3356 12.7494 17.3356 15.2708 17.3356Z" fill="#19B3B5"/>
<path id="Vector_5" d="M14.1533 22.613C16.2782 22.613 18.4132 22.613 20.5381 22.613C20.6804 22.613 20.8533 22.572 20.9448 22.6335C21.1176 22.7461 21.3413 22.9203 21.3616 23.0944C21.382 23.2583 21.1888 23.4836 21.0465 23.627C20.955 23.7089 20.7618 23.6885 20.6093 23.6885C16.2985 23.6885 11.9878 23.6885 7.67699 23.6885C7.52448 23.6885 7.33131 23.7089 7.23981 23.627C7.08731 23.4939 6.9043 23.2685 6.91447 23.1046C6.92463 22.9408 7.14831 22.7564 7.32114 22.6437C7.41265 22.572 7.59565 22.6232 7.72782 22.6232C9.87304 22.613 12.0081 22.613 14.1533 22.613Z" fill="#19B3B5"/>
<path id="Vector_6" d="M12.6255 27.9047C14.2827 27.9047 15.95 27.9047 17.6073 27.9047C17.7496 27.9047 17.9224 27.8637 18.0139 27.9354C18.1868 28.0583 18.4003 28.2427 18.4104 28.4066C18.4206 28.5705 18.2274 28.7958 18.0648 28.9187C17.9733 29.0007 17.7699 28.9699 17.6276 28.9699C14.303 28.9699 10.9886 28.9699 7.66402 28.9699C7.52169 28.9699 7.37935 28.9699 7.24718 28.929C6.98284 28.8573 6.81 28.6422 6.89134 28.3861C6.94217 28.2017 7.13534 28.0379 7.30818 27.9252C7.40985 27.8535 7.58269 27.8945 7.71486 27.8945C9.3619 27.9047 10.9988 27.9047 12.6255 27.9047Z" fill="#19B3B5"/>
<path id="Vector_7" d="M27.622 29.2277C28.5574 29.2277 29.4317 29.2277 30.3061 29.2277C30.7534 29.2277 30.9873 29.4223 30.9771 29.7705C30.9669 30.0983 30.7331 30.3032 30.3163 30.3032C29.2894 30.3032 28.2625 30.3032 27.2357 30.3032C26.7477 30.3032 26.5545 30.1188 26.5545 29.6374C26.5443 28.2854 26.5443 26.9333 26.5545 25.5711C26.5545 25.1511 26.7578 24.9258 27.0933 24.9258C27.4289 24.9258 27.6119 25.1511 27.6119 25.5813C27.6119 26.6465 27.6119 27.7015 27.6119 28.7668C27.622 28.8999 27.622 29.0433 27.622 29.2277Z" fill="#19B3B5"/>
</g>
<defs>
<clipPath id="clip0_301_22230">
<rect width="33.9574" height="36.9759" fill="white" transform="translate(0.914062 0.712891)"/>
</clipPath>
</defs>
</svg>
