<svg width="24" height="26" viewBox="0 0 24 26" fill="none" xmlns="http://www.w3.org/2000/svg">
<g clip-path="url(#clip0_301_18993)">
<path d="M1.60589 23.0676C1.7299 23.0676 1.83932 23.0676 1.94145 23.0676C5.50862 23.0676 9.0758 23.0676 12.643 23.0676C12.7305 23.0676 12.8253 23.0676 12.9129 23.0676C13.2339 23.0897 13.4454 23.3035 13.4527 23.6058C13.46 23.908 13.2484 24.1366 12.9275 24.1661C12.8837 24.1734 12.8399 24.1661 12.7889 24.1661C8.76941 24.1661 4.74267 24.1661 0.723214 24.1661C0.65756 24.1661 0.599202 24.1661 0.504369 24.1661C0.497074 24.0628 0.489779 23.9744 0.489779 23.8859C0.424126 19.1677 2.51774 15.7248 6.5299 13.4173C7.12078 13.0782 7.74814 12.8054 8.37549 12.5253C8.48492 12.4737 8.66729 12.4884 8.77671 12.54C10.9725 13.6532 13.1609 13.6606 15.3494 12.5327C15.5025 12.4516 15.6266 12.4516 15.7797 12.5105C16.7573 12.9013 17.7129 13.3215 18.5445 13.985C18.7925 14.184 18.8655 14.4347 18.756 14.6854C18.6539 14.9139 18.4132 15.0466 18.1725 14.995C18.063 14.9729 17.9536 14.9139 17.8588 14.8402C17.246 14.3757 16.5676 14.0145 15.8527 13.7417C15.7214 13.6975 15.5463 13.6901 15.4223 13.7417C13.1755 14.7148 10.9433 14.7222 8.70376 13.727C8.61622 13.6901 8.48492 13.6754 8.39738 13.7122C6.26729 14.6706 4.42899 15.9902 3.1378 17.9955C2.18218 19.4773 1.71531 21.1213 1.60589 22.8759C1.59859 22.9349 1.60589 22.9865 1.60589 23.0676Z" fill="#29BCC1"/>
<path d="M12.0956 0.766602C15.1084 0.766602 17.5522 3.25105 17.5449 6.31052C17.5376 9.36263 15.0792 11.8176 12.0519 11.8102C9.05368 11.8028 6.60991 9.32577 6.6172 6.28104C6.6245 3.22893 9.06827 0.766602 12.0956 0.766602ZM12.0956 1.87244C9.67374 1.87244 7.71143 3.83345 7.71143 6.27366C7.70413 8.72125 9.65915 10.7044 12.0664 10.7118C14.4883 10.7191 16.4506 8.75074 16.4506 6.31052C16.4579 3.85557 14.5102 1.87244 12.0956 1.87244Z" fill="#29BCC1"/>
<path d="M22.9302 20.7996C22.9302 23.4006 20.8464 25.4996 18.2874 25.4996C15.7284 25.4996 13.6445 23.4006 13.6445 20.7996C13.6445 18.1986 15.7284 16.0996 18.2874 16.0996C20.8464 16.0996 22.9302 18.1986 22.9302 20.7996Z" stroke="#29BCC1"/>
<path d="M16 20.7997L17.5242 22.5331L20.5714 19.0664" stroke="#29BCC1" stroke-linecap="round" stroke-linejoin="round"/>
</g>
<defs>
<clipPath id="clip0_301_18993">
<rect width="24" height="26" fill="white"/>
</clipPath>
</defs>
</svg>
