<svg width="20" height="21" viewBox="0 0 20 21" fill="none" xmlns="http://www.w3.org/2000/svg">
<path d="M0 11.5841V10.4121C0.0117357 10.3495 0.0298281 10.2873 0.034229 10.2242C0.0943742 9.32321 0.283123 8.44812 0.590695 7.60091C2.33882 2.78373 7.41791 0.0699053 12.3963 1.28741C17.534 2.54404 20.8259 7.68357 19.8186 12.8735C19.4323 14.8634 18.5306 16.5852 17.1057 18.0233C15.6118 19.5318 13.8168 20.4813 11.72 20.8428C11.3435 20.9078 10.9621 20.946 10.5831 20.9969H9.41151C9.14794 20.9651 8.8834 20.9386 8.62033 20.9015C6.64923 20.6231 4.90648 19.8356 3.41459 18.5178C1.65766 16.9657 0.558422 15.0346 0.15403 12.7189C0.0885064 12.3432 0.0508545 11.9622 0 11.5841ZM16.6617 16.7349C19.1677 14.0284 19.9579 8.82428 16.4969 5.04166C13.0002 1.21893 7.09323 1.19349 3.54123 4.99861C0.0635679 8.724 0.774553 13.9565 3.33195 16.7363C3.98034 14.4481 5.416 12.8701 7.61742 11.9783C5.10256 10.1743 5.49033 6.98653 7.03064 5.50146C8.70639 3.88579 11.322 3.88872 12.9752 5.5132C14.5698 7.07996 14.8207 10.2233 12.3801 11.9734C14.583 12.8647 16.0089 14.452 16.6622 16.7349H16.6617ZM10.0682 19.8248C10.2609 19.8151 10.521 19.8043 10.7807 19.7872C10.897 19.7794 11.0129 19.7608 11.1293 19.7456C12.7889 19.5294 14.2647 18.8847 15.5629 17.8325C15.6065 17.7973 15.6407 17.7132 15.6338 17.6579C15.2417 14.5767 12.3552 12.3746 9.25748 12.7894C6.71279 13.1298 4.72898 15.0967 4.3642 17.6466C4.35539 17.7068 4.39011 17.7993 4.43706 17.8369C6.06 19.1459 7.91814 19.8009 10.0682 19.8248ZM9.9934 11.5224C11.6579 11.5273 13.0192 10.1763 13.0354 8.50193C13.0515 6.84027 11.6726 5.4545 10.0007 5.45206C8.33036 5.44961 6.95191 6.82804 6.95875 8.49459C6.9656 10.1636 8.32254 11.5176 9.9934 11.5224Z" fill="#19B3B5"/>
</svg>
