<svg xmlns="http://www.w3.org/2000/svg" xmlns:xlink="http://www.w3.org/1999/xlink" width="12.961" height="14.75" viewBox="0 0 12.961 14.75">
  <defs>
    <clipPath id="clip-path">
      <rect id="Rectangle_16773" data-name="Rectangle 16773" width="12.961" height="14.75" fill="#1ebcc2"/>
    </clipPath>
  </defs>
  <g id="Group_16666" data-name="Group 16666" transform="translate(4749 672.748)">
    <g id="Group_16606" data-name="Group 16606" transform="translate(-4749 -672.748)">
      <g id="Group_16605" data-name="Group 16605" clip-path="url(#clip-path)">
        <path id="Path_41425" data-name="Path 41425" d="M6.482,156.06H.521c-.365,0-.526-.164-.521-.528a5.683,5.683,0,0,1,4.762-5.513,5.121,5.121,0,0,1,.745-.062q.936-.013,1.872,0a5.652,5.652,0,0,1,5.378,4.154,5.753,5.753,0,0,1,.2,1.406c.007.386-.15.546-.532.546H6.482" transform="translate(0.001 -141.31)" fill="#1ebcc2"/>
        <path id="Path_41426" data-name="Path 41426" d="M48.874,7.778A3.889,3.889,0,1,1,52.76,3.893a3.9,3.9,0,0,1-3.886,3.885" transform="translate(-42.39 0)" fill="#1ebcc2"/>
      </g>
    </g>
  </g>
</svg>
