<svg id="Group_4" data-name="Group 4" xmlns="http://www.w3.org/2000/svg" xmlns:xlink="http://www.w3.org/1999/xlink" width="19.905" height="19.628" viewBox="0 0 19.905 19.628">
  <defs>
    <clipPath id="clip-path">
      <rect id="Rectangle_20" data-name="Rectangle 20" width="19.905" height="19.628" fill="#fff"/>
    </clipPath>
  </defs>
  <g id="Group_3" data-name="Group 3" clip-path="url(#clip-path)">
    <path id="Path_19" data-name="Path 19" d="M12.656,14.628a7.976,7.976,0,0,1-2.045,1.031,7.909,7.909,0,0,1-5.9-.308,7.906,7.906,0,0,1-3.7-3.423A7.853,7.853,0,0,1,.022,7.462a7.891,7.891,0,0,1,1.3-3.835A7.944,7.944,0,0,1,4.211.971,7.879,7.879,0,0,1,8.281,0a7.846,7.846,0,0,1,4.594,1.617A7.817,7.817,0,0,1,15.84,6.076a7.851,7.851,0,0,1-.856,6.013.272.272,0,0,0,.049.4Q17.2,14.64,19.353,16.8a1.608,1.608,0,0,1-2.044,2.482c-.1-.082-.2-.169-.288-.26q-2.112-2.109-4.22-4.22c-.05-.05-.09-.11-.144-.177m.826-6.6a5.438,5.438,0,1,0-5.417,5.441,5.449,5.449,0,0,0,5.417-5.441" transform="translate(0 0)" fill="#fff"/>
  </g>
</svg>
