<svg id="Group_758" data-name="Group 758" xmlns="http://www.w3.org/2000/svg" xmlns:xlink="http://www.w3.org/1999/xlink" width="12.876" height="12.243" viewBox="0 0 12.876 12.243">
  <defs>
    <clipPath id="clip-path">
      <rect id="Rectangle_436" data-name="Rectangle 436" width="12.876" height="12.243" fill="#fff"/>
    </clipPath>
  </defs>
  <g id="Group_757" data-name="Group 757" clip-path="url(#clip-path)">
    <path id="Path_1657" data-name="Path 1657" d="M6.439,0a.518.518,0,0,1,.485.3q.821,1.666,1.646,3.33a.158.158,0,0,0,.135.1c.68.1,1.36.2,2.039.294.563.081,1.126.16,1.688.246a.519.519,0,0,1,.28.888c-.379.372-.761.742-1.142,1.112q-.782.761-1.565,1.521a.118.118,0,0,0-.04.12q.314,1.814.622,3.628a.816.816,0,0,1,0,.317.511.511,0,0,1-.742.324c-.432-.222-.861-.45-1.29-.675q-1.03-.54-2.058-1.082a.125.125,0,0,0-.133.005L3.062,12.164a.523.523,0,0,1-.733-.186.487.487,0,0,1-.061-.326q.192-1.121.384-2.242c.087-.5.175-1.008.258-1.513a.147.147,0,0,0-.046-.107q-.837-.82-1.678-1.635C.845,5.822.5,5.49.16,5.155a.491.491,0,0,1-.131-.532.5.5,0,0,1,.413-.351c.15-.027.3-.045.454-.067l2.525-.366c.255-.037.51-.076.765-.109A.136.136,0,0,0,4.3,3.643Q5.126,1.973,5.951.3A.52.52,0,0,1,6.439,0" transform="translate(0)" fill="#fff"/>
  </g>
</svg>
